<?xml version="1.0" encoding="UTF-8"?>
<svg width="127px" height="120px" viewBox="0 0 127 120" version="1.1" xmlns="http://www.w3.org/2000/svg" xmlns:xlink="http://www.w3.org/1999/xlink">
    <!-- Generator: sketchtool 54.1 (76490) - https://sketchapp.com -->
    <title>7A4F2AA2-C93F-43F6-B1F5-4DCD35B75999</title>
    <desc>Created with sketchtool.</desc>
    <defs>
        <linearGradient x1="49.9983096%" y1="100.00595%" x2="49.9983096%" y2="-0.00150157813%" id="linearGradient-1">
            <stop stop-color="#808080" stop-opacity="0.25" offset="0%"></stop>
            <stop stop-color="#808080" stop-opacity="0.12" offset="54%"></stop>
            <stop stop-color="#808080" stop-opacity="0.1" offset="100%"></stop>
        </linearGradient>
    </defs>
    <g id="Landing-Page" stroke="none" stroke-width="1" fill="none" fill-rule="evenodd">
        <g id="landing_page" transform="translate(-653.000000, -124.000000)">
            <g id="hero_grp">
                <g id="hero_content" transform="translate(410.000000, 124.000000)">
                    <g id="illu_hero" transform="translate(240.000000, 0.000000)">
                        <circle id="Oval" fill="#FFFFFF" fill-rule="nonzero" opacity="0.8" cx="70" cy="60" r="60"></circle>
                        <g id="undraw_book_lover_mkck-(1)" transform="translate(0.000000, 5.000000)">
                            <polygon id="Path" fill="#6FB9A6" fill-rule="nonzero" points="59.5923754 94.1590909 12.7505376 93.9313636 8.09618768 83.0536364 24.5540567 81.8631818 21.6856305 69.9368182 54.2373412 65.7327273 23.0664712 54.9354545 25.8199413 54.2836364 75.942131 62.4313636 73.1818182 81.0436364 69.2363636 91.2722727"></polygon>
                            <path d="M86.316911,85.4918182 C86.316911,85.4918182 83.2144673,89.265 85.6778104,94.9690909 L60.9075269,105.673636 L58.5304008,106.17 L57.4355816,101.397273 L58.1677419,95.3740909 L58.1677419,92.0822727 L86.316911,85.4918182 Z" id="Path" fill="#D5D6DB" fill-rule="nonzero"></path>
                            <polygon id="Path" fill="#6FB9A6" fill-rule="nonzero" points="8.09618768 83.0536364 42.3804497 76.8259091 87.8086022 84.0368182 59.5923754 94.1590909"></polygon>
                            <polygon id="Path" fill="#6FB9A6" fill-rule="nonzero" points="8.09618768 83.0536364 42.3804497 76.8259091 87.8086022 84.0368182 59.5923754 94.1590909"></polygon>
                            <path d="M8.09618768,83.0522727 C8.09618768,83.0522727 4.88973607,89.1054545 8.58475073,94.6963636 L59.4254154,105.673636 C59.4254154,105.673636 56.2695992,100.851818 59.5882698,94.1590909 L8.09618768,83.0522727 Z" id="Path" fill="#6FB9A6" fill-rule="nonzero"></path>
                            <path d="M8.09618768,83.0522727 C8.09618768,83.0522727 4.88973607,89.1054545 8.58475073,94.6963636 L59.4254154,105.673636 C59.4254154,105.673636 56.2695992,100.851818 59.5882698,94.1590909 L8.09618768,83.0522727 Z" id="Path" fill="#000000" fill-rule="nonzero" opacity="0.1"></path>
                            <path d="M9.6111437,85.1509091 C9.6111437,85.1509091 7.77869013,89.58 9.6111437,92.4463636" id="Path" fill="#000000" fill-rule="nonzero" opacity="0.1"></path>
                            <path d="M59.4254154,105.673636 L87.8086022,93.6054545 C87.8086022,93.6054545 89.3960899,93.9463636 88.369697,95.1054545 C87.343304,96.2645455 59.972825,106.832727 59.972825,106.832727 L8.58475073,94.6963636 L59.4254154,105.673636 Z" id="Path" fill="#6FB9A6" fill-rule="nonzero"></path>
                            <path d="M59.4254154,105.673636 L87.8086022,93.6054545 C87.8086022,93.6054545 89.3960899,93.9463636 88.369697,95.1054545 C87.343304,96.2645455 59.972825,106.832727 59.972825,106.832727 L8.58475073,94.6963636 L59.4254154,105.673636 Z" id="Path" fill="#000000" fill-rule="nonzero" opacity="0.1"></path>
                            <path d="M57.0989247,95.3781818 C57.0989247,95.3781818 54.3618768,98.6509091 57.0989247,103.56" id="Path" fill="#000000" fill-rule="nonzero" opacity="0.1"></path>
                            <polygon id="Rectangle" fill="#000000" fill-rule="nonzero" opacity="0.1" transform="translate(64.233169, 97.428146) rotate(-18.450000) translate(-64.233169, -97.428146) " points="57.7643449 97.3530018 70.7018464 97.3668781 70.7019931 97.5032907 57.7644916 97.4894144"></polygon>
                            <polygon id="Rectangle" fill="#000000" fill-rule="nonzero" opacity="0.1" transform="translate(65.463392, 97.772937) rotate(-20.820000) translate(-65.463392, -97.772937) " points="57.5821179 97.6953693 73.3445044 97.7140801 73.3446667 97.8505054 57.5822803 97.8317947"></polygon>
                            <polygon id="Rectangle" fill="#000000" fill-rule="nonzero" opacity="0.1" transform="translate(66.635271, 98.409826) rotate(-22.260000) translate(-66.635271, -98.409826) " points="57.5008658 98.3301663 75.7695044 98.3530516 75.7696757 98.4894854 57.5010371 98.4666001"></polygon>
                            <polygon id="Rectangle" fill="#000000" fill-rule="nonzero" opacity="0.1" transform="translate(67.964112, 98.683746) rotate(-24.310000) translate(-67.964112, -98.683746) " points="57.4505442 98.6014268 78.4774968 98.6296178 78.4776802 98.7660643 57.4507276 98.7378733"></polygon>
                            <polygon id="Rectangle" fill="#000000" fill-rule="nonzero" opacity="0.1" transform="translate(69.070808, 98.963389) rotate(-23.610000) translate(-69.070808, -98.963389) " points="57.5714448 98.8800874 80.5699919 98.9102478 80.5701713 99.0466899 57.5716241 99.0165294"></polygon>
                            <polygon id="Rectangle" fill="#000000" fill-rule="nonzero" opacity="0.1" transform="translate(71.485882, 99.048002) rotate(-23.360000) translate(-71.485882, -99.048002) " points="57.724805 98.9618825 85.2467818 98.9976818 85.2469597 99.1341223 57.7249829 99.098323"></polygon>
                            <polygon id="Path" fill="#FFFFFF" fill-rule="nonzero" opacity="0.3" points="20.8330401 83.7190909 44.9190616 78.6736364 59.5923754 81.4690909 39.855523 87.81"></polygon>
                            <path d="M87.8086022,84.0368182 C87.8086022,84.0368182 89.0539589,84.5372727 88.3231672,85.3104545 C87.5923754,86.0836364 59.5882698,94.1590909 59.5882698,94.1590909 L87.8086022,84.0368182 Z" id="Path" fill="#6FB9A6" fill-rule="nonzero"></path>
                            <path d="M99.9049853,72.3763636 C99.9049853,72.3763636 96.8039101,76.1481818 99.2672532,81.8536364 L74.4969697,92.5581818 L72.1198436,93.0572727 L71.0250244,88.2845455 L71.7681329,82.2627273 L71.7681329,78.9668182 L99.9049853,72.3763636 Z" id="Path" fill="#D5D6DB" fill-rule="nonzero"></path>
                            <polygon id="Path" fill="#3A3768" fill-rule="nonzero" points="21.6856305 69.9368182 55.9685239 63.7104545 101.398045 70.9213636 73.1818182 81.0436364"></polygon>
                            <path d="M21.6801564,69.9368182 C21.6801564,69.9368182 18.4723363,75.99 22.1673509,81.5809091 L73.0080156,92.5581818 C73.0080156,92.5581818 69.8535679,87.7322727 73.1763441,81.0422727 L21.6801564,69.9368182 Z" id="Path" fill="#3A3768" fill-rule="nonzero"></path>
                            <path d="M21.6801564,69.9368182 C21.6801564,69.9368182 18.4723363,75.99 22.1673509,81.5809091 L73.0080156,92.5581818 C73.0080156,92.5581818 69.8535679,87.7322727 73.1763441,81.0422727 L57.0989247,77.5745455 L21.6801564,69.9368182 Z" id="Path" fill="#000000" fill-rule="nonzero" opacity="0.1"></path>
                            <path d="M23.199218,72.0354545 C23.199218,72.0354545 21.3681329,76.4631818 23.199218,79.3309091" id="Path" fill="#000000" fill-rule="nonzero" opacity="0.1"></path>
                            <path d="M73.0134897,92.5581818 L101.398045,80.49 C101.398045,80.49 102.984164,80.8309091 101.957771,81.99 C100.931378,83.1490909 73.5608993,93.7172727 73.5608993,93.7172727 L22.172825,81.5809091 L73.0134897,92.5581818 Z" id="Path" fill="#3A3768" fill-rule="nonzero"></path>
                            <path d="M73.0134897,92.5581818 L101.398045,80.49 C101.398045,80.49 102.984164,80.8309091 101.957771,81.99 C100.931378,83.1490909 73.5608993,93.7172727 73.5608993,93.7172727 L22.172825,81.5809091 L73.0134897,92.5581818 Z" id="Path" fill="#000000" fill-rule="nonzero" opacity="0.1"></path>
                            <path d="M70.686999,82.2627273 C70.686999,82.2627273 67.9499511,85.5354545 70.686999,90.4445455" id="Path" fill="#000000" fill-rule="nonzero" opacity="0.1"></path>
                            <polygon id="Rectangle" fill="#000000" fill-rule="nonzero" opacity="0.1" transform="translate(77.822305, 84.314142) rotate(-18.450000) translate(-77.822305, -84.314142) " points="71.3534809 84.2389975 84.2909825 84.2528738 84.2911292 84.3892864 71.3536277 84.3754101"></polygon>
                            <polygon id="Rectangle" fill="#000000" fill-rule="nonzero" opacity="0.1" transform="translate(79.054245, 84.658284) rotate(-20.820000) translate(-79.054245, -84.658284) " points="71.1729709 84.5807154 86.9353574 84.5994262 86.9355198 84.7358516 71.1731333 84.7171408"></polygon>
                            <polygon id="Rectangle" fill="#000000" fill-rule="nonzero" opacity="0.1" transform="translate(80.224118, 85.293284) rotate(-22.260000) translate(-80.224118, -85.293284) " points="71.089713 85.2136241 89.3583516 85.2365094 89.3585229 85.3729432 71.0898844 85.3500579"></polygon>
                            <polygon id="Rectangle" fill="#000000" fill-rule="nonzero" opacity="0.1" transform="translate(81.554545, 85.567469) rotate(-24.310000) translate(-81.554545, -85.567469) " points="71.0409768 85.4851506 92.0679293 85.5133416 92.0681127 85.6497881 71.0411602 85.6215971"></polygon>
                            <polygon id="Rectangle" fill="#000000" fill-rule="nonzero" opacity="0.1" transform="translate(82.659282, 85.845377) rotate(-23.610000) translate(-82.659282, -85.845377) " points="71.1599189 85.7620763 94.1584661 85.7922367 94.1586455 85.9286787 71.1600983 85.8985183"></polygon>
                            <polygon id="Rectangle" fill="#000000" fill-rule="nonzero" opacity="0.1" transform="translate(85.075397, 85.930009) rotate(-23.360000) translate(-85.075397, -85.930009) " points="71.3143201 85.8438891 98.8362969 85.8796883 98.8364748 86.0161288 71.314498 85.9803295"></polygon>
                            <polygon id="Path" fill="#FFFFFF" fill-rule="nonzero" opacity="0.45" points="34.4224829 70.6036364 58.5085044 65.5581818 73.1818182 68.3536364 53.4449658 74.6945455"></polygon>
                            <path d="M101.398045,70.9213636 C101.398045,70.9213636 102.642033,71.4218182 101.91261,72.1936364 C101.183187,72.9654545 73.1818182,81.0422727 73.1818182,81.0422727 L101.398045,70.9213636 Z" id="Path" fill="#3A3768" fill-rule="nonzero"></path>
                            <path d="M101.191398,57.3722727 C101.191398,57.3722727 98.0889541,64.1454545 100.552297,69.8495455 L75.7820137,77.5540909 L73.4103617,78.0545455 L72.3155425,73.2818182 L73.0477028,67.2586364 L73.0477028,63.9627273 L101.191398,57.3722727 Z" id="Path" fill="#D5D6DB" fill-rule="nonzero"></path>
                            <polygon id="Path" fill="#6FB9A6" fill-rule="nonzero" points="22.9761486 54.9340909 57.2604106 48.7063636 102.689932 55.9172727 74.4723363 66.0395455"></polygon>
                            <path d="M22.9761486,54.9327273 C22.9761486,54.9327273 19.7642229,60.9859091 23.4592375,66.5768182 L74.2999022,77.5540909 C74.2999022,77.5540909 71.144086,72.7281818 74.4668622,66.0395455 L22.9761486,54.9327273 Z" id="Path" fill="#6FB9A6" fill-rule="nonzero"></path>
                            <path d="M22.9761486,54.9327273 C22.9761486,54.9327273 19.7642229,60.9859091 23.4592375,66.5768182 L74.2999022,77.5540909 C74.2999022,77.5540909 71.144086,72.7281818 74.4668622,66.0395455 L22.9761486,54.9327273 Z" id="Path" fill="#000000" fill-rule="nonzero" opacity="0.1"></path>
                            <path d="M24.4911046,57.0313636 C24.4911046,57.0313636 22.658651,61.4604545 24.4911046,64.3268182" id="Path" fill="#000000" fill-rule="nonzero" opacity="0.1"></path>
                            <path d="M74.3053763,77.5540909 L102.688563,68.4859091 C102.688563,68.4859091 104.276051,68.8268182 103.249658,69.9859091 C102.223265,71.145 74.8527859,78.7131818 74.8527859,78.7131818 L23.4647116,66.5768182 L74.3053763,77.5540909 Z" id="Path" fill="#6FB9A6" fill-rule="nonzero"></path>
                            <path d="M74.3053763,77.5540909 L102.688563,68.4859091 C102.688563,68.4859091 104.276051,68.8268182 103.249658,69.9859091 C102.223265,71.145 74.8527859,78.7131818 74.8527859,78.7131818 L23.4647116,66.5768182 L74.3053763,77.5540909 Z" id="Path" fill="#000000" fill-rule="nonzero" opacity="0.1"></path>
                            <path d="M71.9788856,67.2586364 C71.9788856,67.2586364 69.2418377,70.5313636 71.9788856,75.4404545" id="Path" fill="#000000" fill-rule="nonzero" opacity="0.1"></path>
                            <polygon id="Rectangle" fill="#000000" fill-rule="nonzero" opacity="0.1" transform="translate(79.114578, 69.309775) rotate(-18.450000) translate(-79.114578, -69.309775) " points="72.6457542 69.2346309 85.5832557 69.2485072 85.5834024 69.3849198 72.6459009 69.3710435"></polygon>
                            <polygon id="Rectangle" fill="#000000" fill-rule="nonzero" opacity="0.1" transform="translate(80.345573, 69.654607) rotate(-20.820000) translate(-80.345573, -69.654607) " points="72.4642986 69.5770391 88.226685 69.5957499 88.2268474 69.7321753 72.464461 69.7134645"></polygon>
                            <polygon id="Rectangle" fill="#000000" fill-rule="nonzero" opacity="0.1" transform="translate(81.514190, 70.290266) rotate(-22.260000) translate(-81.514190, -70.290266) " points="72.3797854 70.2106066 90.6484239 70.233492 90.6485953 70.3699257 72.3799567 70.3470404"></polygon>
                            <polygon id="Rectangle" fill="#000000" fill-rule="nonzero" opacity="0.1" transform="translate(82.846522, 70.563258) rotate(-24.310000) translate(-82.846522, -70.563258) " points="72.3329536 70.4809394 93.3599061 70.5091304 93.3600895 70.6455769 72.3331369 70.6173859"></polygon>
                            <polygon id="Rectangle" fill="#000000" fill-rule="nonzero" opacity="0.1" transform="translate(83.951964, 70.842467) rotate(-23.610000) translate(-83.951964, -70.842467) " points="72.4526005 70.7591658 95.4511476 70.7893263 95.451327 70.9257683 72.4527798 70.8956079"></polygon>
                            <polygon id="Rectangle" fill="#000000" fill-rule="nonzero" opacity="0.1" transform="translate(86.367628, 70.927981) rotate(-23.360000) translate(-86.367628, -70.927981) " points="72.6065502 70.8418613 100.128527 70.8776605 100.128705 71.014101 72.6067281 70.9783018"></polygon>
                            <polygon id="Path" fill="#FFFFFF" fill-rule="nonzero" opacity="0.3" points="35.713001 55.5995455 59.7990225 50.5540909 74.4723363 53.3495455 54.7354839 59.6904545"></polygon>
                            <path d="M102.688563,55.9172727 C102.688563,55.9172727 103.93392,56.4177273 103.203128,57.1909091 C102.472336,57.9640909 74.4723363,66.0395455 74.4723363,66.0395455 L102.688563,55.9172727 Z" id="Path" fill="#6FB9A6" fill-rule="nonzero"></path>
                            <path d="M42.4817204,14.5227273 C42.4817204,14.5227273 37.2813294,14.2104545 37.8889541,17.8459091 C37.8889541,17.8459091 37.7671554,18.4881818 38.3515152,18.78 C38.3515152,18.78 38.3610948,18.5072727 38.8852395,18.6013636 C39.07228,18.6333792 39.2625418,18.6425377 39.4518084,18.6286364 C39.7069407,18.6112318 39.9494881,18.5116879 40.142913,18.345 L40.142913,18.345 C40.142913,18.345 41.6058651,17.7422727 42.1751711,15.3586364 C42.1751711,15.3586364 42.5966764,14.8390909 42.5857283,14.7054545 L41.7043988,15.0790909 C41.7043988,15.0790909 42.0041056,15.7104545 41.7687195,16.2354545 C41.7687195,16.2354545 41.7399804,15.1022727 41.5702835,15.1281818 C41.5360704,15.1281818 41.114565,15.3477273 41.114565,15.3477273 C41.114565,15.3477273 41.6304985,16.4481818 41.2404692,17.2472727 C41.2404692,17.2472727 41.3882698,15.8918182 40.9530792,15.4268182 L40.3345064,15.7868182 C40.3345064,15.7868182 40.9380254,16.9227273 40.5288368,17.85 C40.5288368,17.85 40.6342131,16.4277273 40.2044966,15.8740909 L39.6434018,16.3104545 C39.6434018,16.3104545 40.2113392,17.43 39.8651026,18.1990909 C39.8651026,18.1990909 39.8199413,16.5436364 39.5229717,16.4181818 C39.5229717,16.4181818 39.0316716,16.8490909 38.9577713,17.0263636 C38.9577713,17.0263636 39.3464321,17.8445455 39.1042033,18.2686364 C39.1042033,18.2686364 38.9577713,17.1654545 38.8304985,17.16 C38.8304985,17.16 38.3419355,17.8909091 38.2913001,18.3872727 C38.3149617,17.9245242 38.4598108,17.4760144 38.711437,17.0863636 C38.4298597,17.1394469 38.1700765,17.2736155 37.9642229,17.4722727 C37.9642229,17.4722727 38.0394917,16.9554545 38.8332356,16.9104545 C38.8332356,16.9104545 39.2369501,16.3554545 39.3450635,16.3227273 C39.3450635,16.3227273 38.5554252,16.2559091 38.0778104,16.4672727 C38.0778104,16.4672727 38.4993157,15.9804545 39.4887586,16.1945455 L40.0361681,15.7445455 C40.0361681,15.7445455 38.998827,15.6081818 38.5581623,15.7595455 C38.5581623,15.7595455 39.0658847,15.3286364 40.1853372,15.6422727 L40.7888563,15.2836364 C40.7888563,15.2836364 39.9034213,15.0940909 39.3765396,15.1622727 C39.3765396,15.1622727 39.9321603,14.8636364 40.9653959,15.1868182 L41.3951124,14.9945455 C41.3951124,14.9945455 40.7478006,14.8677273 40.5575758,14.8472727 C40.3673509,14.8268182 40.3577713,14.775 40.3577713,14.775 C40.7686211,14.7077658 41.1901261,14.7549568 41.5757576,14.9113636 C41.5757576,14.9113636 42.4995112,14.58 42.4817204,14.5227273 Z" id="Path" fill="#6FB9A6" fill-rule="nonzero"></path>
                            <path d="M115.643011,29.4654545 C115.643011,29.4654545 110.44262,29.1531818 111.050244,32.7886364 C111.050244,32.7886364 110.928446,33.4309091 111.512805,33.7227273 C111.512805,33.7227273 111.522385,33.45 112.04653,33.5440909 C112.233652,33.5753606 112.423823,33.5845149 112.613099,33.5713636 C112.865911,33.5528047 113.105931,33.4533133 113.297361,33.2877273 L113.297361,33.2877273 C113.297361,33.2877273 114.761681,32.685 115.329619,30.3013636 C115.329619,30.3013636 115.751124,29.7818182 115.740176,29.6481818 L114.861584,30.0218182 C114.861584,30.0218182 115.16129,30.6531818 114.925904,31.1781818 C114.925904,31.1781818 114.897165,30.045 114.728837,30.0709091 C114.694624,30.0709091 114.27175,30.2904545 114.27175,30.2904545 C114.27175,30.2904545 114.787683,31.3909091 114.399022,32.19 C114.399022,32.19 114.546823,30.8345455 114.110264,30.3695455 L113.491691,30.7295455 C113.491691,30.7295455 114.09521,31.8654545 113.686022,32.7927273 C113.686022,32.7927273 113.791398,31.3704545 113.361681,30.8168182 L112.801955,31.2531818 C112.801955,31.2531818 113.368524,32.3727273 113.022287,33.1418182 C113.022287,33.1418182 112.977126,31.4863636 112.680156,31.3609091 C112.680156,31.3609091 112.190225,31.7918182 112.114956,31.9690909 C112.114956,31.9690909 112.503617,32.7872727 112.262757,33.2113636 C112.262757,33.2113636 112.114956,32.1081818 111.989052,32.1027273 C111.989052,32.1027273 111.500489,32.8336364 111.449853,33.33 C111.473545,32.8670559 111.6189,32.4184412 111.871359,32.0290909 C111.589426,32.0823036 111.329239,32.2164352 111.122776,32.415 C111.122776,32.415 111.199413,31.8981818 111.991789,31.8531818 C111.991789,31.8531818 112.395503,31.2981818 112.503617,31.2640909 C112.503617,31.2640909 111.715347,31.1986364 111.236364,31.41 C111.236364,31.41 111.657869,30.9231818 112.647312,31.1372727 L113.194721,30.6872727 C113.194721,30.6872727 112.156012,30.5509091 111.716716,30.7022727 C111.716716,30.7022727 112.223069,30.2713636 113.343891,30.585 L113.946041,30.2263636 C113.946041,30.2263636 113.060606,30.0368182 112.533724,30.105 C112.533724,30.105 113.089345,29.8063636 114.122581,30.1295455 L114.553666,29.9372727 C114.553666,29.9372727 113.904985,29.8104545 113.714761,29.79 C113.524536,29.7695455 113.514956,29.7177273 113.514956,29.7177273 C113.925783,29.6496288 114.347525,29.6968463 114.732942,29.8540909 C114.732942,29.8540909 115.659433,29.5227273 115.643011,29.4654545 Z" id="Path" fill="#6FB9A6" fill-rule="nonzero" opacity="0.1"></path>
                            <path d="M51.2402737,36.9818182 C51.2402737,36.9818182 48.973998,32.3004545 46.0891496,34.6077273 C46.0891496,34.6077273 45.4664712,34.815 45.4965787,35.4654545 C45.4965787,35.4654545 45.7360704,35.3413636 45.9071359,35.8431818 C45.9710373,36.0205734 46.0555479,36.1899063 46.1589443,36.3477273 C46.2989655,36.5616601 46.5050348,36.7243951 46.7460411,36.8113636 L46.7460411,36.8113636 C46.7460411,36.8113636 47.9872923,37.7904545 50.3534702,37.1222727 C50.3534702,37.1222727 51.0144673,37.2354545 51.1225806,37.1563636 L50.3671554,36.5740909 C50.3671554,36.5740909 49.9565982,37.1427273 49.3845552,37.1931818 C49.3845552,37.1931818 50.3644184,36.6163636 50.259042,36.4827273 C50.2371457,36.4554545 49.8484848,36.1922727 49.8484848,36.1922727 C49.8484848,36.1922727 49.1354839,37.1781818 48.2459433,37.2286364 C48.2459433,37.2286364 49.5049853,36.6968182 49.6993157,36.09 L49.08348,35.7272727 C49.08348,35.7272727 48.3814272,36.8072727 47.370088,36.9027273 C47.370088,36.9027273 48.6674487,36.3013636 48.942522,35.6577273 L48.2883675,35.385 C48.2883675,35.385 47.5835777,36.4240909 46.740567,36.4990909 C46.740567,36.4990909 48.169306,35.6522727 48.1337243,35.3318182 C48.1337243,35.3318182 47.51652,35.1163636 47.3249267,35.1368182 C47.3249267,35.1368182 46.8021505,35.8718182 46.3094819,35.8718182 C46.3094819,35.8718182 47.2031281,35.205 47.1483871,35.0972727 C47.1483871,35.0972727 46.2697947,35.0290909 45.8072336,35.2336364 C46.2240494,35.0272064 46.6878637,34.9331763 47.1524927,34.9609091 C46.9681619,34.7418931 46.723696,34.5812355 46.4490714,34.4986364 C46.4490714,34.4986364 46.9390029,34.3131818 47.3646139,34.98 C47.3646139,34.98 48.0488759,35.0604545 48.1296188,35.1381818 C48.1296188,35.1381818 47.8025415,34.4209091 47.3851417,34.1086364 C47.3851417,34.1086364 48.0173998,34.2354545 48.3061584,35.1995455 L48.9698925,35.4613636 C48.9698925,35.4613636 48.5880743,34.4904545 48.2363636,34.1836364 C48.2363636,34.1836364 48.8604106,34.4140909 49.1327468,35.5472727 L49.7403715,35.8963636 C49.7403715,35.8963636 49.4762463,35.0331818 49.1587488,34.6090909 C49.1587488,34.6090909 49.6911046,34.9472727 49.911437,36.0027273 L50.2905181,36.2836364 C50.2905181,36.2836364 50.0852395,35.6577273 50.0168133,35.4831818 C49.9483871,35.3086364 49.9826002,35.2731818 49.9826002,35.2731818 C50.2429388,35.5969421 50.4078261,35.9864427 50.4588465,36.3981818 C50.4588465,36.3981818 51.1910068,37.0227273 51.2402737,36.9818182 Z" id="Path" fill="#6FB9A6" fill-rule="nonzero" opacity="0.1"></path>
                            <path d="M103.761486,22.8518182 C103.761486,22.8518182 101.496579,18.1704545 98.6103617,20.4777273 C98.6103617,20.4777273 97.9890518,20.685 98.0177908,21.3354545 C98.0177908,21.3354545 98.258651,21.2127273 98.428348,21.7131818 C98.4921327,21.8912998 98.5771323,22.0611498 98.6815249,22.2190909 C98.8210427,22.4326221 99.0267026,22.5949345 99.2672532,22.6813636 L99.2672532,22.6813636 C99.2672532,22.6813636 100.509873,23.6604545 102.874682,22.9936364 C102.874682,22.9936364 103.535679,23.1054545 103.645161,23.0263636 L102.893842,22.4427273 C102.893842,22.4427273 102.483284,23.0127273 101.91261,23.0631818 C101.91261,23.0631818 102.891105,22.485 102.785728,22.3513636 C102.763832,22.3240909 102.375171,22.0609091 102.375171,22.0609091 C102.375171,22.0609091 101.663539,23.0468182 100.77263,23.0972727 C100.77263,23.0972727 102.03304,22.5654545 102.22737,21.96 L101.601955,21.6 C101.601955,21.6 100.901271,22.6786364 99.888563,22.7754545 C99.888563,22.7754545 101.185924,22.1727273 101.462366,21.5290909 L100.806843,21.2563636 C100.806843,21.2563636 100.102053,22.2968182 99.2604106,22.3704545 C99.2604106,22.3704545 100.687781,21.5236364 100.652199,21.2045455 C100.652199,21.2045455 100.036364,20.9877273 99.8447703,21.0095455 C99.8447703,21.0095455 99.3219941,21.7431818 98.827957,21.7431818 C98.827957,21.7431818 99.7229717,21.0763636 99.6682307,20.9686364 C99.6682307,20.9686364 98.7896383,20.9004545 98.3257087,21.105 C98.7425036,20.8985094 99.2063342,20.804476 99.6709677,20.8322727 C99.4873275,20.6131173 99.2432487,20.4524015 98.968915,20.37 C98.968915,20.37 99.4588465,20.1845455 99.8844575,20.8513636 C99.8844575,20.8513636 100.568719,20.9331818 100.649462,21.0109091 C100.649462,21.0109091 100.322385,20.2922727 99.9036168,19.98 C99.9036168,19.98 100.535875,20.1081818 100.824633,21.0777273 L101.489736,21.3395455 C101.489736,21.3395455 101.107918,20.3672727 100.756207,20.0604545 C100.756207,20.0604545 101.380254,20.2909091 101.651222,21.4240909 L102.260215,21.7731818 C102.260215,21.7731818 101.994721,20.9113636 101.677224,20.4859091 C101.677224,20.4859091 102.210948,20.8240909 102.429912,21.8795455 L102.808993,22.1604545 C102.808993,22.1604545 102.605083,21.5345455 102.535288,21.36 C102.465494,21.1854545 102.501075,21.1513636 102.501075,21.1513636 C102.760673,21.475424 102.92505,21.8648384 102.975953,22.2763636 C102.975953,22.2763636 103.719062,22.8954545 103.761486,22.8518182 Z" id="Path" fill="#6FB9A6" fill-rule="nonzero" opacity="0.1"></path>
                            <path d="M110.999609,46.0077273 C110.999609,46.0077273 108.734702,41.325 105.844379,43.6322727 C105.844379,43.6322727 105.223069,43.8395455 105.251808,44.49 C105.251808,44.49 105.492669,44.3672727 105.662366,44.8677273 C105.725706,45.0457863 105.810246,45.2156351 105.914174,45.3736364 C106.053692,45.5871675 106.259352,45.7494799 106.499902,45.8359091 L106.499902,45.8359091 C106.499902,45.8359091 107.742522,46.8163636 110.1087,46.1481818 C110.1087,46.1481818 110.768328,46.2613636 110.87781,46.1809091 L110.122385,45.5986364 C110.122385,45.5986364 109.711828,46.1686364 109.139785,46.2190909 C109.139785,46.2190909 110.11828,45.6409091 110.012903,45.5072727 C109.991007,45.48 109.602346,45.2168182 109.602346,45.2168182 C109.602346,45.2168182 108.890714,46.2027273 107.999804,46.2545455 C107.999804,46.2545455 109.260215,45.7213636 109.454545,45.1159091 L108.837341,44.7531818 C108.837341,44.7531818 108.136657,45.8331818 107.123949,45.9286364 C107.123949,45.9286364 108.42131,45.3259091 108.697752,44.6822727 L108.042229,44.4095455 C108.042229,44.4095455 107.337439,45.4486364 106.495797,45.5236364 C106.495797,45.5236364 107.924536,44.6768182 107.888954,44.3563636 C107.888954,44.3563636 107.27175,44.1395455 107.080156,44.1613636 C107.080156,44.1613636 106.55738,44.895 106.063343,44.895 C106.063343,44.895 106.958358,44.2281818 106.903617,44.1204545 C106.903617,44.1204545 106.025024,44.0522727 105.561095,44.2568182 C105.978423,44.0504565 106.442659,43.9564366 106.907722,43.9840909 C106.723823,43.7645935 106.4792,43.6038329 106.204301,43.5218182 C106.204301,43.5218182 106.694233,43.335 107.119844,44.0031818 C107.119844,44.0031818 107.804106,44.0836364 107.884848,44.1613636 C107.884848,44.1613636 107.557771,43.4440909 107.140371,43.1304545 C107.140371,43.1304545 107.77263,43.2586364 108.061388,44.2281818 L108.725122,44.49 C108.725122,44.49 108.343304,43.5177273 107.991593,43.2122727 C107.991593,43.2122727 108.61564,43.4413636 108.886608,44.5759091 L109.495601,44.9236364 C109.495601,44.9236364 109.230108,44.0618182 108.91261,43.6363636 C108.91261,43.6363636 109.446334,43.9745455 109.666667,45.0313636 L110.045748,45.3040909 C110.045748,45.3040909 109.840469,44.6781818 109.772043,44.5036364 C109.703617,44.3290909 109.73783,44.295 109.73783,44.295 C109.998052,44.6186903 110.162507,45.0082886 110.212708,45.42 C110.212708,45.42 110.957185,46.0486364 110.999609,46.0077273 Z" id="Path" fill="#6FB9A6" fill-rule="nonzero" opacity="0.1"></path>
                            <ellipse id="Oval" fill="#6FB9A6" fill-rule="nonzero" opacity="0.1" cx="27.6373412" cy="106.580455" rx="3.14623656" ry="1"></ellipse>
                            <ellipse id="Oval" fill="#6FB9A6" fill-rule="nonzero" opacity="0.1" cx="7.01231672" cy="100.624091" rx="3.14623656" ry="1"></ellipse>
                            <ellipse id="Oval" fill="#6FB9A6" fill-rule="nonzero" opacity="0.1" cx="43.3589443" cy="110.536364" rx="3.14623656" ry="1"></ellipse>
                            <ellipse id="Oval" fill="#6FB9A6" fill-rule="nonzero" opacity="0.1" cx="123.923949" cy="101.919545" rx="3.14623656" ry="1"></ellipse>
                            <ellipse id="Oval" fill="#6FB9A6" fill-rule="nonzero" opacity="0.1" cx="97.7427175" cy="100.219091" rx="3.14623656" ry="1"></ellipse>
                            <ellipse id="Oval" fill="#6FB9A6" fill-rule="nonzero" opacity="0.1" cx="80.8058651" cy="108.226364" rx="3.72101662" ry="1"></ellipse>
                            <path d="M82.4658847,101.825455 C82.4658847,101.825455 77.284653,104.492727 79.9614858,107.634545 C79.9614858,107.634545 80.2132942,108.316364 80.941349,108.268636 C80.941349,108.268636 80.7962854,108.004091 81.3519062,107.792727 C81.5496077,107.716578 81.7375059,107.617243 81.9116325,107.496818 C82.1469261,107.334736 82.3227716,107.100634 82.4125122,106.83 L82.4125122,106.83 C82.4125122,106.83 83.4717498,105.417273 82.6506354,102.803182 C82.6506354,102.803182 82.7573803,102.064091 82.6643206,101.944091 L82.0347996,102.804545 C82.0347996,102.804545 82.6848485,103.239545 82.7601173,103.879091 C82.7601173,103.879091 82.0758553,102.805909 81.9390029,102.924545 C81.9088954,102.949091 81.6269795,103.395 81.6269795,103.395 C81.6269795,103.395 82.7546432,104.157273 82.8381232,105.147273 C82.8381232,105.147273 82.2031281,103.760455 81.5174976,103.562727 L81.1247312,104.260909 C81.1247312,104.260909 82.3564027,105.008182 82.4932551,106.131818 C82.4932551,106.131818 81.7775171,104.706818 81.0467253,104.419091 L80.7579668,105.156818 C80.7579668,105.156818 81.9458456,105.909545 82.0553275,106.845 C82.0553275,106.845 81.0617791,105.280909 80.7045943,105.33 C80.7045943,105.33 80.4801564,106.022727 80.5102639,106.236818 C80.5102639,106.236818 81.3491691,106.795909 81.3642229,107.345455 C81.3642229,107.345455 80.5896383,106.370455 80.4705767,106.434545 C80.4705767,106.434545 80.4213099,107.415 80.659433,107.925 C80.659433,107.925 80.2488759,107.196818 80.3159335,106.434545 C80.0759254,106.64603 79.9032434,106.922852 79.8191593,107.230909 C79.8191593,107.230909 79.5960899,106.692273 80.3309873,106.195909 C80.3309873,106.195909 80.400782,105.433636 80.4856305,105.339545 C80.4856305,105.339545 79.6905181,105.726818 79.3524927,106.201364 C79.3524927,106.201364 79.4770283,105.493636 80.5554252,105.141818 L80.82913,104.394545 C80.82913,104.394545 79.7507331,104.85 79.4181818,105.250909 C79.4181818,105.250909 79.6576735,104.548636 80.9139785,104.211818 L81.286217,103.53 C81.286217,103.53 80.3282502,103.851818 79.8602151,104.211818 C79.8602151,104.211818 80.2228739,103.607727 81.401173,103.329545 L81.7036168,102.9 C81.7036168,102.9 81.0084066,103.146818 80.8140762,103.235455 C80.6197458,103.324091 80.5814272,103.280455 80.5814272,103.280455 C80.9366445,102.981064 81.368197,102.785648 81.8281525,102.715909 C81.8281525,102.715909 82.513783,101.871818 82.4658847,101.825455 Z" id="Path" fill="#6FB9A6" fill-rule="nonzero"></path>
                            <path d="M97.8439883,51.4486364 C96.9489736,49.0254545 92.0222874,48.7977273 89.884653,49.4154545 C88.3655914,49.8559091 85.1632454,50.3522727 83.4525904,50.6018182 L83.34174,50.4968182 C83.5634409,50.4313636 83.568915,50.2704545 83.5415445,50.0318182 C83.5256125,49.717309 83.5301839,49.402101 83.5552297,49.0881818 C84.6035191,49.4127273 85.5368524,48.645 85.5368524,48.645 L85.5368524,48.645 C86.7685239,48.0995455 86.4373412,45.765 86.6727273,45.1268182 C86.8492669,44.6495455 87.0394917,41.8377273 87.1243402,40.4359091 L87.142131,40.4359091 L87.1517107,39.9654545 C87.1640274,39.7622727 87.1695015,39.6436364 87.1695015,39.6436364 C87.1695015,39.6436364 87.2899316,36.2154545 87.5253177,35.5213636 C87.7442815,34.8831818 87.9221896,31.6677273 87.9495601,31.1577273 C87.9495601,31.1140909 87.9495601,31.0909091 87.9495601,31.0909091 L87.9317693,30.7936364 C87.944086,30.5768182 87.9495601,30.3354545 87.9481916,30.0818182 C87.9481916,28.9159091 87.826393,27.4472727 87.8113392,27.21 C87.8113392,27.1759091 87.8113392,27.135 87.8113392,27.0859091 C87.8209189,26.5881818 87.7579668,24.0954545 85.629912,23.1531818 C84.8457478,22.8040909 83.9028348,22.3881818 82.9900293,21.9831818 C82.7546432,19.9581818 82.2168133,17.9440909 82.2633431,15.9040909 C82.2633431,15.5972727 82.2907136,15.2904545 82.3208211,14.985 C82.3208211,15.0736364 82.3112414,15.1636364 82.3098729,15.2577273 C82.3098729,15.4554545 82.3098729,15.6545455 82.3098729,15.8522727 C82.3906158,13.3009091 83.3581623,10.7359091 83.2678397,8.23909091 C83.2596285,8.48318182 83.2418377,8.72863636 83.2185728,8.97409091 C83.265822,8.12956681 83.1771145,7.28295028 82.9558162,6.46636364 C82.8737048,6.17863636 82.7628543,5.88136364 82.5260997,5.68909091 C82.3023123,5.53424007 82.0456613,5.43297297 81.7761486,5.39318182 C81.1285661,5.22801401 80.4706802,5.10592664 79.8068426,5.02772727 C79.7059676,4.72005513 79.5562696,4.43047564 79.3634409,4.17 C77.9757576,2.27181818 75.9202346,0.488181818 73.4897361,0.0790909091 C72.2703812,-0.125454545 70.8676442,0.045 70.0383187,0.913636364 C69.9517113,0.989943937 69.8703301,1.07194562 69.7947214,1.15909091 C69.3485826,1.68954545 69.1569892,2.38636364 68.6999022,2.91545455 C68.6697947,2.95090909 68.6355816,2.98363636 68.602737,3.01772727 C67.7077224,3.81545455 66.3131965,3.98181818 65.3182796,4.69772727 C65.1429709,4.82624439 64.9786428,4.96900484 64.8269795,5.12454545 C64.4260874,5.52039824 64.0666002,5.95581637 63.7540567,6.42409091 C63.3065494,7.05136364 62.8467253,7.70454545 62.7043988,8.45318182 C62.4183773,9.95318182 63.4434018,11.3754545 63.6336266,12.885 C64.057869,16.2627273 60.3067449,19.26 61.0170088,22.5927273 C61.2065332,23.4114783 61.6250501,24.1599435 62.2240469,24.7513636 C60.7610948,26.0713636 59.515738,27.3518182 59.515738,27.3518182 L59.515738,27.4281818 L59.2844575,27.4281818 L59.3077224,27.7009091 L59.2844575,27.7009091 L59.4117302,29.1804545 L59.2844575,31.335 C59.2844575,31.335 59.2844575,31.3581818 59.2844575,31.4018182 L59.2844575,31.4127273 L59.2844575,31.4713636 C59.2844575,31.4713636 59.2844575,31.4945455 59.2844575,31.5381818 L59.2926686,31.5381818 C59.3350929,32.3277273 59.5034213,35.1668182 59.7032258,35.7654545 C59.9386119,36.4595455 60.0576735,39.8877273 60.0576735,39.8877273 C60.0576735,39.8877273 60.3176931,44.7327273 60.5558162,45.3736364 C60.7939394,46.0145455 60.455914,48.3422727 61.6916911,48.8918182 L61.6916911,48.8918182 C62.053212,49.1681387 62.4812547,49.3449515 62.9329423,49.4045455 C62.8699902,49.9145455 62.9096774,50.2840909 63.1135875,50.4 C63.2008664,50.451126 63.299766,50.4792821 63.4009775,50.4818182 C63.3171343,50.6057235 63.2425756,50.7356212 63.1779081,50.8704545 C62.687405,50.8194268 62.2054416,50.70624 61.743695,50.5336364 C60.4162268,49.9881818 56.0109482,48.7609091 54.7313783,49.6240909 C53.4518084,50.4872727 50.3726295,51.27 51.7945259,54.7445455 C53.2164223,58.2190909 53.8787879,58.3063636 53.8787879,58.3063636 C54.3164638,58.6229552 54.7004103,59.007372 55.0160313,59.445 C55.4430108,60.0845455 59.4213099,61.5477273 60.4162268,61.5477273 C60.8391074,61.5412358 61.2619636,61.5621892 61.6821114,61.6104545 C61.6821114,61.6104545 60.602346,62.5540909 60.7460411,63.1022727 C60.8897361,63.6504545 60.4175953,68.0386364 60.4175953,68.0386364 C60.4175953,68.0386364 61.5124145,69.1377273 61.9804497,67.6963636 L61.9968719,67.7181818 C62.0844575,67.8368182 62.5579668,68.3727273 63.4488759,67.6963636 C63.8134919,67.4207287 64.2007882,67.1762258 64.6066471,66.9654545 L68.9202346,66.3572727 C69.3699575,66.329264 69.8208914,66.3260773 70.2709677,66.3477273 C70.9552297,66.4036364 71.627175,66 72.0500489,65.6877273 C72.943695,66.0259091 73.9481916,66.3954545 74.4258065,66.5304545 C75.3947214,66.8031818 79.8478983,67.9936364 80.8893451,67.6213636 C81.1058268,67.5355943 81.298316,67.398994 81.4504399,67.2231818 L82.4439883,67.2545455 L81.9786901,67.3472727 C81.9786901,67.3472727 82.884653,67.3622727 84.1163245,67.3786364 L84.0643206,67.4086364 L85.6093842,67.395 C87.8701857,67.4154545 90.4101662,67.4222727 90.744086,67.3472727 C91.2668622,67.2313636 93.9833822,67.3131818 94.7839687,67.3472727 L95.0070381,67.3472727 C95.0070381,67.3472727 97.9917889,66.7540909 96.7601173,63.7363636 C95.8130987,61.4181818 92.9022483,60.7445455 91.6103617,60.5590909 C91.9743891,60.4868182 92.287781,60.4309091 92.4957967,60.3981818 C93.397654,60.2618182 95.1493646,59.4436364 95.2916911,59.1640909 C95.4340176,58.8845455 96.9024438,58.0731818 97.2815249,57.6109091 C97.6606061,57.1486364 98.7431085,53.8718182 97.8439883,51.4486364 Z M73.1216031,58.23 L72.9751711,58.2777273 L72.8766373,58.3104545 L72.687781,58.4959091 C72.5372434,58.395 72.3757576,58.2886364 72.2074291,58.1795455 C72.5043988,58.1972727 72.8095797,58.215 73.1216031,58.23 Z" id="Shape" fill="url(#linearGradient-1)" fill-rule="nonzero"></path>
                            <path d="M81.8473118,43.8518182 C81.8473118,43.8518182 83.9411535,49.3063636 85.1317693,48.7609091 C86.3223851,48.2154545 85.9994135,45.8972727 86.2265885,45.2618182 C86.4537634,44.6263636 86.7055718,39.8072727 86.7055718,39.8072727 C86.7055718,39.8072727 86.8205279,36.3981818 87.0477028,35.7081818 C87.2584555,35.0740909 87.429521,31.8763636 87.45826,31.3731818 C87.45826,31.3295455 87.45826,31.3063636 87.45826,31.3063636 L87.2324536,27.3518182 L85.9542522,27.0340909 L82.9900293,28.125 L82.5794721,30.4609091 L82.4193548,31.3731818 L82.3509286,31.7618182 L81.8473118,43.8518182 Z" id="Path" fill="#BE6F72" fill-rule="nonzero"></path>
                            <path d="M82.5370479,42.9381818 C82.5370479,42.9381818 84.5350929,44.5677273 85.1372434,44.7109091 C85.7393939,44.8540909 86.1088954,46.125 86.1088954,46.125" id="Path" fill="#000000" fill-rule="nonzero" opacity="0.1"></path>
                            <path d="M65.4729228,44.0904545 C65.4729228,44.0904545 63.3790811,49.545 62.1884653,48.9995455 C60.9978495,48.4540909 61.3208211,46.1359091 61.0936461,45.5004545 C60.8664712,44.865 60.6146628,40.0459091 60.6146628,40.0459091 C60.6146628,40.0459091 60.4997067,36.6368182 60.2725318,35.9468182 C60.0617791,35.3127273 59.8907136,32.115 59.8619746,31.6118182 C59.8619746,31.5681818 59.8619746,31.545 59.8619746,31.545 L60.0891496,27.5904545 L61.3673509,27.2727273 L64.3315738,28.3636364 L64.742131,30.6995455 L64.9022483,31.6118182 L64.9706745,32.0004545 L65.4729228,44.0904545 Z" id="Path" fill="#BE6F72" fill-rule="nonzero"></path>
                            <rect id="Rectangle" fill="#3E373A" fill-rule="nonzero" x="74.4340176" y="14.9004545" width="4.67350929" height="7.25863636"></rect>
                            <rect id="Rectangle" fill="#000000" fill-rule="nonzero" opacity="0.1" x="74.4340176" y="14.9004545" width="4.67350929" height="7.25863636"></rect>
                            <path d="M64.6518084,49.5231818 C64.6518084,49.5231818 63.054741,51.2727273 63.6473118,51.5904545 C64.2398827,51.9081818 68.0731183,57.8631818 68.0731183,57.8631818 C68.0731183,57.8631818 80.6635386,59.4081818 83.0379277,57.09 C85.4123167,54.7718182 85.3644184,50.6304545 85.3644184,50.6304545 C85.3644184,50.6304545 83.456696,51.0395455 83.2486804,50.8172727 C83.0406647,50.595 81.8979472,49.5231818 81.8979472,49.5231818 C81.8979472,49.5231818 65.7466276,48.5468182 64.6518084,49.5231818 Z" id="Path" fill="#4B4B5B" fill-rule="nonzero"></path>
                            <path d="M64.6518084,49.5231818 C64.6518084,49.5231818 63.054741,51.2727273 63.6473118,51.5904545 C64.2398827,51.9081818 68.0731183,57.8631818 68.0731183,57.8631818 C68.0731183,57.8631818 80.6635386,59.4081818 83.0379277,57.09 C85.4123167,54.7718182 85.3644184,50.6304545 85.3644184,50.6304545 C85.3644184,50.6304545 83.456696,51.0395455 83.2486804,50.8172727 C83.0406647,50.595 81.8979472,49.5231818 81.8979472,49.5231818 C81.8979472,49.5231818 65.7466276,48.5468182 64.6518084,49.5231818 Z" id="Path" fill="#000000" fill-rule="nonzero" opacity="0.02"></path>
                            <path d="M87.3173021,27.4090909 L83.2117302,30.6818182 L81.970479,30.7718182 L81.5147605,30.8045455 L73.8606061,31.3636364 L65.9231672,30.7854545 L64.742131,30.6995455 L63.2367546,30.5904545 L60.0891496,27.5904545 C60.0891496,27.5904545 62.3171065,25.2122727 64.2686217,23.6072727 C65.0377322,22.9731818 65.7644184,22.4604545 66.2940371,22.2586364 L66.3843597,22.2272727 C66.717483,22.0978265 67.0148956,21.8912226 67.2520039,21.6245455 C68.7929619,20.0413636 70.2175953,16.1345455 70.2175953,16.1345455 C70.2175953,16.1345455 77.0150538,12.6354545 76.1939394,17.2254545 C75.372825,21.8154545 79.2498534,20.6809091 79.2498534,20.6809091 L80.5280547,21.2618182 L81.0330401,21.4922727 L82.3208211,22.08 L85.2261975,23.4081818 C87.5061584,24.4540909 87.3173021,27.4090909 87.3173021,27.4090909 Z" id="Path" fill="#BE6F72" fill-rule="nonzero"></path>
                            <ellipse id="Oval" fill="#000000" fill-rule="nonzero" opacity="0.1" cx="73.54174" cy="13.7809091" rx="6.11319648" ry="6.09136364"></ellipse>
                            <path d="M87.3268817,31.7481818 L59.8619746,31.7481818 C59.8619746,31.7045455 59.8619746,31.6813636 59.8619746,31.6813636 L60.0891496,27.7268182 C60.0891496,27.7268182 62.3171065,25.3486364 64.2686217,23.7436364 L81.5120235,23.0618182 L82.3139785,22.2190909 L85.2193548,23.5472727 C87.5006843,24.5918182 87.3173021,27.5468182 87.3173021,27.5468182 C87.3173021,27.5468182 87.6293255,30.9709091 87.3268817,31.7481818 Z" id="Path" fill="#000000" fill-rule="nonzero" opacity="0.1"></path>
                            <path d="M87.3268817,31.6118182 L59.8619746,31.6118182 C59.8619746,31.5681818 59.8619746,31.545 59.8619746,31.545 L60.0891496,27.5904545 C60.0891496,27.5904545 62.3171065,25.2122727 64.2686217,23.6072727 L81.5120235,22.9254545 L82.3139785,22.0827273 L85.2193548,23.4109091 C87.5006843,24.4554545 87.3173021,27.4104545 87.3173021,27.4104545 C87.3173021,27.4104545 87.6293255,30.8345455 87.3268817,31.6118182 Z" id="Path" fill="#E7C7CA" fill-rule="nonzero"></path>
                            <path d="M69.1391984,20.5227273 C69.1391984,20.5227273 73.4719453,26.0236364 79.2430108,20.4095455 C85.0140762,14.7954545 79.8821114,32.9318182 79.8821114,32.9318182 L67.4285435,34.4045455 L69.1391984,20.5227273 Z" id="Path" fill="#000000" fill-rule="nonzero" opacity="0.1"></path>
                            <path d="M69.1391984,20.7954545 C69.1391984,20.7954545 73.4719453,26.2963636 79.2430108,20.6822727 C85.0140762,15.0681818 79.8821114,33.2045455 79.8821114,33.2045455 L67.4285435,34.6772727 L69.1391984,20.7954545 Z" id="Path" fill="#E7C7CA" fill-rule="nonzero"></path>
                            <path d="M81.0261975,21.7609091 L81.484653,28.7277273 L81.9759531,31.0459091 L82.3509286,32.8186364 C82.3509286,32.8186364 83.3088954,46.455 83.0351906,47.1368182 C82.7614858,47.8186364 83.172043,48.3640909 83.229521,48.7268182 C83.286999,49.0895455 83.172043,50.0004545 83.2172043,50.4095455 C83.2623656,50.8186364 83.2172043,51 82.168915,50.8540909 C81.1206256,50.7081818 79.659042,50.4545455 79.659042,50.4545455 C79.659042,50.4545455 75.9640274,50.7272727 74.6871945,50.2731818 C73.4103617,49.8190909 70.9921799,49.8177273 70.9921799,49.8177273 C70.9921799,49.8177273 67.3423265,49.9090909 66.1571848,49.7727273 C64.972043,49.6363636 64.3315738,51.2277273 63.5569892,50.7722727 C62.7824047,50.3168182 64.4684262,45.9095455 65.0158358,44.6359091 C65.5632454,43.3622727 64.2864125,40.1359091 64.2864125,40.1359091 L65.9286413,31.0581818 L66.2940371,29.0004545 L66.2940371,22.5313636 L66.3843597,22.5 C66.717483,22.3705538 67.0148956,22.1639499 67.2520039,21.8972727 L67.6625611,28.4072727 L80.5266862,28.8627273 L80.5266862,21.5359091" id="Path" fill="#000000" fill-rule="nonzero" opacity="0.1"></path>
                            <path d="M81.0261975,21.4881818 L81.484653,28.455 L81.9759531,30.7731818 L82.3509286,32.5459091 C82.3509286,32.5459091 83.3088954,46.1822727 83.0351906,46.8640909 C82.7614858,47.5459091 83.172043,48.0913636 83.229521,48.4540909 C83.286999,48.8168182 83.172043,49.7277273 83.2172043,50.1368182 C83.2623656,50.5459091 83.2172043,50.7272727 82.168915,50.5813636 C81.1206256,50.4354545 79.659042,50.1818182 79.659042,50.1818182 C79.659042,50.1818182 75.9640274,50.4545455 74.6871945,50.0004545 C73.4103617,49.5463636 70.9921799,49.545 70.9921799,49.545 C70.9921799,49.545 67.3423265,49.6363636 66.1571848,49.5 C64.972043,49.3636364 64.3315738,50.955 63.5569892,50.4995455 C62.7824047,50.0440909 64.4684262,45.6368182 65.0158358,44.3631818 C65.5632454,43.0895455 64.2864125,39.8631818 64.2864125,39.8631818 L65.9286413,30.7854545 L66.2940371,28.7277273 L66.2940371,22.2586364 L66.3843597,22.2272727 C66.717483,22.0978265 67.0148956,21.8912226 67.2520039,21.6245455 L67.6625611,28.1345455 L80.5266862,28.59 L80.5266862,21.2631818" id="Path" fill="#E7C7CA" fill-rule="nonzero"></path>
                            <path d="M82.5055718,6.94909091 C82.427566,6.66409091 82.3194526,6.36818182 82.0950147,6.17727273 C81.8806984,6.02393267 81.6331592,5.92302831 81.372434,5.88272727 C80.7482204,5.71917235 80.113594,5.59798524 79.4729228,5.52 C79.3813997,5.21720558 79.2428703,4.93055369 79.0623656,4.67045455 C77.7212121,2.78318182 75.7368524,1.00363636 73.4021505,0.601363636 C72.1800587,0.39 70.7636364,0.579545455 69.9808407,1.53954545 C69.5511241,2.06727273 69.3663734,2.76681818 68.9325513,3.285 C68.0963832,4.29136364 66.5869013,4.41545455 65.5331378,5.19409091 C64.9706745,5.60318182 64.5628543,6.19636364 64.1646139,6.77181818 C63.7335288,7.395 63.2901271,8.04409091 63.1532747,8.78863636 C62.8795699,10.2763636 63.8662757,11.6945455 64.0482893,13.1959091 C64.4588465,16.5545455 60.8459433,19.5340909 61.5288368,22.8477273 C61.9270772,24.78 63.7184751,26.1409091 65.5714565,26.8309091 C66.2242424,27.075 66.970088,27.3177273 67.2752688,27.9422727 C67.4121212,28.215 67.4353861,28.53 67.5640274,28.8054545 C67.9964809,29.7245455 69.4183773,29.76 70.1820137,29.0904545 C70.94565,28.4209091 71.1865103,27.3381818 71.2768328,26.3277273 C71.6435973,21.915 69.8699902,17.5554545 70.0766373,13.1318182 C70.1382209,11.7940909 70.5159335,10.2763636 71.7188661,9.67090909 C73.3378299,8.85272727 75.2852395,10.2163636 77.0670577,9.95590909 C77.9102372,12.0001883 78.0892349,14.256375 77.5788856,16.4072727 C77.2956012,17.5840909 76.8056696,18.7254545 76.770088,19.9390909 C76.7167155,21.7868182 77.7171065,23.475 78.5820137,25.1086364 C78.7675989,25.4141232 78.8917073,25.752697 78.9474096,26.1054545 C78.9610237,26.4633696 78.8941599,26.8197898 78.7517107,27.1486364 C78.2631476,28.4590909 77.4201369,29.6754545 77.3243402,31.0704545 C77.2962679,31.2332966 77.3330944,31.4006256 77.4269795,31.5368182 C77.5234005,31.6277147 77.6478301,31.6834599 77.7800587,31.695 C79.2580645,31.9472727 80.5362659,30.6422727 81.257478,29.3318182 C82.0615694,27.8844326 82.5301239,26.2759759 82.628739,24.6245455 C82.7779081,21.8481818 81.7788856,19.1168182 81.8404692,16.3377273 C81.9116325,13.1781818 83.344477,9.99681818 82.5055718,6.94909091 Z" id="Path" fill="#000000" fill-rule="nonzero" opacity="0.1"></path>
                            <path d="M82.6424242,6.81272727 C82.5644184,6.52772727 82.456305,6.23181818 82.2318671,6.04090909 C82.0175508,5.88756903 81.7700116,5.78666467 81.5092864,5.74636364 C80.8850727,5.58280872 80.2504464,5.46162161 79.6097752,5.38363636 C79.5182521,5.08084194 79.3797227,4.79419006 79.199218,4.53409091 C77.8580645,2.64681818 75.8737048,0.867272727 73.5390029,0.465 C72.316911,0.253636364 70.9004888,0.443181818 70.1176931,1.40318182 C69.6879765,1.93090909 69.5032258,2.63045455 69.0694037,3.14863636 C68.2332356,4.155 66.7237537,4.27909091 65.6699902,5.05772727 C65.1075269,5.46681818 64.6997067,6.06 64.3014663,6.63545455 C63.8703812,7.25863636 63.4269795,7.90772727 63.2901271,8.65227273 C63.0164223,10.14 64.0031281,11.5581818 64.1851417,13.0595455 C64.5956989,16.4181818 60.9827957,19.3977273 61.6656891,22.7113636 C62.0639296,24.6436364 63.8553275,26.0045455 65.7083089,26.6945455 C66.3610948,26.9386364 67.1069404,27.1813636 67.4121212,27.8059091 C67.5489736,28.0786364 67.5722385,28.3936364 67.7008798,28.6690909 C68.1333333,29.5881818 69.5552297,29.6236364 70.3188661,28.9540909 C71.0825024,28.2845455 71.3233627,27.2018182 71.4136852,26.1913636 C71.7804497,21.7786364 70.0068426,17.4190909 70.2134897,12.9954545 C70.2750733,11.6577273 70.6527859,10.14 71.8557185,9.53454545 C73.4746823,8.71636364 75.4220919,10.08 77.2039101,9.81954545 C78.0470896,11.8638247 78.2260873,14.1200114 77.715738,16.2709091 C77.4324536,17.4477273 76.942522,18.5890909 76.9069404,19.8027273 C76.8535679,21.6504545 77.8539589,23.3386364 78.7188661,24.9722727 C78.9044513,25.2777596 79.0285596,25.6163333 79.084262,25.9690909 C79.0978761,26.3270059 79.0310123,26.6834261 78.888563,27.0122727 C78.4,28.3227273 77.5569892,29.5390909 77.4611926,30.9340909 C77.4331203,31.096933 77.4699468,31.264262 77.5638319,31.4004545 C77.6602529,31.4913511 77.7846824,31.5470963 77.916911,31.5586364 C79.3949169,31.8109091 80.6731183,30.5059091 81.3943304,29.1954545 C82.1984218,27.7480689 82.6669763,26.1396122 82.7655914,24.4881818 C82.9147605,21.7118182 81.915738,18.9804545 81.9773216,16.2013636 C82.0484848,13.0418182 83.4813294,9.86045455 82.6424242,6.81272727 Z" id="Path" fill="#3E373A" fill-rule="nonzero"></path>
                            <polygon id="Path" fill="#C3C7D9" fill-rule="nonzero" points="79.6193548 67.1904545 85.0482893 67.3636364 84.2695992 63.3518182 80.1106549 63.7459091"></polygon>
                            <path d="M96.4412512,57.6818182 C96.0758553,58.1359091 94.6621701,58.9540909 94.5253177,59.2268182 C94.3884653,59.4995455 92.7010753,60.3177273 91.8334311,60.4540909 C90.9657869,60.5904545 88.2301075,61.1822727 87.7278592,61.5 C87.3679374,61.7290909 84.4789834,62.4545455 82.5808407,62.8568182 C82.0667128,62.9780161 81.5463654,63.071335 81.0220919,63.1363636 C80.2009775,63.1813636 71.2152493,60.1363636 71.2152493,60.1363636 L72.9478006,58.3636364 L73.0435973,58.3309091 C73.5335288,58.1659091 75.7970674,57.4036364 77.0533724,57.0409091 C78.4684262,56.6318182 80.1106549,54.9504545 80.1106549,54.9504545 C80.1106549,54.9504545 82.5274682,54.1322727 82.8477028,54.0409091 C83.1679374,53.9495455 82.0265885,50.8595455 82.0265885,50.8595455 C82.0265885,50.8595455 87.2721408,50.1340909 89.3249267,49.5190909 C91.3777126,48.9040909 96.1223851,49.1318182 96.9886608,51.5413636 C97.8549365,53.9509091 96.8121212,57.2277273 96.4412512,57.6818182 Z" id="Path" fill="#4B4B5B" fill-rule="nonzero"></path>
                            <path d="M72.5372434,65.3631818 C72.5372434,65.3631818 71.4889541,66.4540909 70.4392962,66.3640909 C69.3896383,66.2740909 65.7192571,66.6368182 65.7192571,66.6368182 C65.054108,66.901189 64.4312498,67.2608901 63.8703812,67.7045455 C63.0123167,68.3781818 62.5565982,67.8409091 62.4717498,67.7263636 L62.456696,67.7045455 C61.999609,69.1377273 60.9513196,68.0454545 60.9513196,68.0454545 C60.9513196,68.0454545 61.4070381,63.6818182 61.2674487,63.1363636 C61.1278592,62.5909091 62.169306,61.6540909 62.169306,61.6540909 L63.4009775,61.3418182 L66.5212121,60.5454545 L70.9921799,62.0904545 L72.5372434,65.3631818 Z" id="Path" fill="#E7C7CA" fill-rule="nonzero"></path>
                            <path d="M63.3955034,61.3418182 L62.4717498,67.7263636 L62.456696,67.7045455 C61.999609,69.1377273 60.9513196,68.0454545 60.9513196,68.0454545 C60.9513196,68.0454545 61.4070381,63.6818182 61.2674487,63.1363636 C61.1278592,62.5909091 62.169306,61.6540909 62.169306,61.6540909 L63.3955034,61.3418182 Z" id="Path" fill="#000000" fill-rule="nonzero" opacity="0.1"></path>
                            <path d="M69.8521994,43.1809091 C69.8521994,43.1809091 72.2690127,43.9990909 74.3683284,43.1809091" id="Path" fill="#000000" fill-rule="nonzero" opacity="0.1"></path>
                            <path d="M78.1030303,44.7272727 C78.1030303,44.7272727 79.1061584,45.2263636 79.8821114,44.7272727" id="Path" fill="#000000" fill-rule="nonzero" opacity="0.1"></path>
                            <path d="M78.1030303,45.9109091 C78.1030303,45.9109091 79.7904203,46.1359091 80.1106549,45.6818182" id="Path" fill="#000000" fill-rule="nonzero" opacity="0.1"></path>
                            <path d="M77.5556207,48.4540909 C77.5556207,48.4540909 80.7251222,48.045 81.5120235,47.4995455" id="Path" fill="#000000" fill-rule="nonzero" opacity="0.1"></path>
                            <path d="M67.884262,47.4995455 C67.884262,47.4995455 69.6633431,48.4990909 70.9867058,48.4540909" id="Path" fill="#000000" fill-rule="nonzero" opacity="0.1"></path>
                            <path d="M82.5794721,62.8568182 C82.0653443,62.9780161 81.5449969,63.071335 81.0207234,63.1363636 C80.199609,63.1813636 71.2138807,60.1363636 71.2138807,60.1363636 L72.9464321,58.3636364 L73.0422287,58.3309091 C73.3159335,58.5231818 73.5403715,58.6881818 73.7004888,58.8136364 C74.4545455,59.4054545 75.1826002,58.6322727 75.456305,58.6322727 C75.7300098,58.6322727 78.1016618,60.5863636 78.1016618,60.5863636 C78.1016618,60.5863636 80.2913001,61.0868182 80.656696,61.5409091 C81.0220919,61.995 82.2989247,61.905 82.5260997,62.2227273 C82.5945259,62.3209091 82.602737,62.5622727 82.5794721,62.8568182 Z" id="Path" fill="#000000" fill-rule="nonzero" opacity="0.1"></path>
                            <path d="M65.7192571,51.045 C65.7192571,51.045 63.5049853,51.1718182 62.2281525,50.6359091 C60.9513196,50.1 56.7088954,48.8631818 55.4772239,49.7318182 C54.2455523,50.6004545 51.2799609,51.3681818 52.6484848,54.8236364 C54.0170088,58.2790909 54.6561095,58.3690909 54.6561095,58.3690909 C55.0795366,58.6854933 55.4491882,59.0676372 55.7509286,59.5009091 C56.1614858,60.1377273 59.9933529,61.5913636 60.9513196,61.5913636 C61.9092864,61.5913636 63.5966764,61.5913636 65.9683284,63.2277273 C68.3399804,64.8640909 70.4844575,65.0468182 70.4844575,65.0468182 C70.4844575,65.0468182 73.4952102,66.2740909 74.4326491,66.5468182 C75.370088,66.8195455 79.6535679,68.0004545 80.6580645,67.6377273 C81.6625611,67.275 82.3002933,65.0004545 82.3002933,65.0004545 C82.3002933,65.0004545 82.7560117,62.955 82.5274682,62.6372727 C82.2989247,62.3195455 81.0220919,62.4095455 80.6580645,61.9554545 C80.2940371,61.5013636 78.1030303,61.0009091 78.1030303,61.0009091 C78.1030303,61.0009091 75.7368524,59.0454545 75.4631476,59.0454545 C75.1894428,59.0454545 74.4613881,59.8172727 73.7073314,59.2268182 C72.2052512,58.1182398 70.6271357,57.1157898 68.9845552,56.2268182 C67.2520039,55.3172727 65.7192571,51.045 65.7192571,51.045 Z" id="Path" fill="#4B4B5B" fill-rule="nonzero"></path>
                            <path d="M61.2674487,52.3636364 C62.0666225,52.2009493 62.8962018,52.4193293 63.5104594,52.9540909 C64.6052786,53.8636364 68.2893451,55.6895455 68.2893451,55.6895455" id="Path" fill="#000000" fill-rule="nonzero" opacity="0.1"></path>
                            <path d="M88.6406647,52.3063636 C88.6406647,52.3063636 83.7591398,53.0427273 82.8477028,54.0422727" id="Path" fill="#000000" fill-rule="nonzero" opacity="0.1"></path>
                            <path d="M94.2516129,67.3636364 L94.0367546,67.3636364 C93.2649071,67.3363636 90.6496579,67.2545455 90.1460411,67.3636364 C89.5534702,67.5 81.7063539,67.3636364 81.7063539,67.3636364 L83.2404692,67.0459091 C83.2404692,67.0459091 82.6711632,65.0577273 83.0324536,64.8927273 C83.0324536,64.8927273 80.9796676,63.5454545 82.5274682,62.6359091 C84.0752688,61.7263636 85.7434995,62.1095455 85.7434995,62.1095455 L89.628739,60.7977273 L90.3745846,60.5454545 C90.3745846,60.5454545 94.7538612,60.7731818 95.9390029,63.7731818 C97.1241447,66.7731818 94.2516129,67.3636364 94.2516129,67.3636364 Z" id="Path" fill="#E7C7CA" fill-rule="nonzero"></path>
                            <path d="M94.2516129,67.3636364 L94.0367546,67.3636364 C95.3108504,66.3163636 98.1929619,63.1281818 89.628739,60.8045455 L90.3745846,60.5522727 C90.3745846,60.5522727 94.7538612,60.78 95.9390029,63.78 C97.1241447,66.78 94.2516129,67.3636364 94.2516129,67.3636364 Z" id="Path" fill="#000000" fill-rule="nonzero" opacity="0.1"></path>
                            <ellipse id="Oval" fill="#4B4B5B" fill-rule="nonzero" cx="86.2005865" cy="63.5904545" rx="1" ry="1"></ellipse>
                            <ellipse id="Oval" fill="#4B4B5B" fill-rule="nonzero" cx="84.8087977" cy="63.9845455" rx="1" ry="1"></ellipse>
                            <g id="Group" opacity="0.1" transform="translate(61.583578, 8.454545)" fill="#000000" fill-rule="nonzero">
                                <path d="M16.4441838,5.10136364 C16.4972587,3.60147487 16.2294873,2.1074965 15.658651,0.718636364 C13.8795699,0.983181818 11.9307918,-0.384545455 10.3104594,0.433636364 C9.11163245,1.03909091 8.73528837,2.55681818 8.66823069,3.89454545 C8.65180841,4.24772727 8.64907136,4.60090909 8.65591398,4.95409091 C8.65591398,4.82863636 8.65591398,4.70181818 8.66823069,4.57636364 C8.7311828,3.23863636 9.10752688,1.72090909 10.3104594,1.11545455 C11.9307918,0.297272727 13.8768328,1.66090909 15.658651,1.40045455 C16.1420882,2.57687023 16.4082079,3.83064969 16.4441838,5.10136364 Z" id="Path"></path>
                                <path d="M2.65767351,4.85181818 C2.68111295,4.55468356 2.67515397,4.25597176 2.6398827,3.96 C2.49481916,2.76 1.83655914,1.61318182 1.71749756,0.443181818 C1.56422287,1.85454545 2.46608016,3.21 2.6398827,4.64181818 C2.65767351,4.71545455 2.65767351,4.78090909 2.65767351,4.85181818 Z" id="Path"></path>
                                <path d="M9.8684262,17.0890909 C9.78357771,18.1009091 9.54408602,19.1822727 8.77360704,19.8531818 C8.00312805,20.5240909 6.58396872,20.4872727 6.15562072,19.5681818 C6.01876833,19.2954545 5.99824047,18.9777273 5.86549365,18.705 C5.56168133,18.0804545 4.81446725,17.8377273 4.16168133,17.5936364 C2.30733138,16.9022727 0.518670577,15.5481818 0.120430108,13.6104545 C0.0848543514,13.4349114 0.0606272549,13.2572732 0.0478983382,13.0786364 C0.0142433618,13.4845627 0.0386648705,13.8931951 0.120430108,14.2922727 C0.518670577,16.2245455 2.31006843,17.5840909 4.16168133,18.2754545 C4.81446725,18.5195455 5.56168133,18.7622727 5.86549365,19.3868182 C6.00234604,19.6595455 6.02561095,19.9745455 6.15562072,20.25 C6.58670577,21.1690909 8.00860215,21.2045455 8.77360704,20.535 C9.53861193,19.8654545 9.77673509,18.7827273 9.8684262,17.7709091 C9.91009214,17.2383498 9.92425225,16.7040082 9.91085044,16.17 C9.91085044,16.4795455 9.89305963,16.785 9.8684262,17.0890909 Z" id="Path"></path>
                                <path d="M20.4389052,7.10045455 C20.4389052,7.29818182 20.4389052,7.49454545 20.4389052,7.69090909 C20.5155425,5.15454545 21.4488759,2.60454545 21.3571848,0.121363636 C21.2860215,2.41772727 20.4909091,4.76590909 20.4389052,7.10045455 Z" id="Path"></path>
                                <path d="M17.5020528,17.3604545 C17.5357144,17.1986536 17.5463108,17.0329312 17.5335288,16.8681818 C17.4784093,16.5152743 17.3542608,16.1765909 17.1681329,15.8713636 C16.3771261,14.3713636 15.4752688,12.8359091 15.3685239,11.1709091 C15.3685239,11.2418182 15.3589443,11.3072727 15.3575758,11.3836364 C15.3028348,13.23 16.3032258,14.9195455 17.1681329,16.5531818 C17.3151266,16.8062033 17.4274325,17.07771 17.5020528,17.3604545 L17.5020528,17.3604545 Z" id="Path"></path>
                                <path d="M21.2258065,15.3872727 C21.1236445,17.0393474 20.6518416,18.647719 19.8449658,20.0945455 C19.1223851,21.405 17.8455523,22.71 16.3661779,22.4577273 C16.2336367,22.4463455 16.1090168,22.3900337 16.0130987,22.2981818 C15.9853041,22.2669501 15.9635023,22.2308975 15.9487781,22.1918182 C15.9323558,22.2981818 15.9186706,22.4059091 15.9104594,22.515 C15.8821638,22.677414 15.9190235,22.8444043 16.0130987,22.98 C16.1090168,23.0718519 16.2336367,23.1281637 16.3661779,23.1395455 C17.8455523,23.3918182 19.1223851,22.0868182 19.8449658,20.7763636 C20.6518416,19.3295372 21.1236445,17.7211655 21.2258065,16.0690909 C21.2422287,15.75 21.2435973,15.4322727 21.2340176,15.1145455 C21.2312805,15.2059091 21.2312805,15.2959091 21.2258065,15.3872727 Z" id="Path"></path>
                            </g>
                            <path d="M83.0324536,64.8927273 C83.0324536,64.8927273 86.4961877,66.3409091 88.7802542,63.1363636" id="Path" stroke="#000000" stroke-width="0.583333333" opacity="0.1"></path>
                            <path d="M83.7139785,67.4236364 C83.7139785,67.4236364 86.5427175,65.5909091 90.1460411,67.3636364" id="Path" stroke="#000000" stroke-width="0.583333333" opacity="0.1"></path>
                            <path d="M64.7790811,67.0077273 C64.7790811,67.0077273 65.9669599,64.3377273 69.1391984,66.3736364" id="Path" stroke="#000000" stroke-width="0.583333333" opacity="0.1"></path>
                            <path d="M60.9280547,27.5222727 L63.3503421,25.3404545 C63.3503421,25.3404545 72.742522,24.7268182 73.1311828,27.9081818 C73.1311828,27.9081818 76.4608016,24.1363636 83.4635386,24.9763636 L86.426393,27.3272727 L78.2371457,30.9081818 L70.2791789,33.6586364 L64.4177908,31.0445455 L60.9280547,27.5222727 Z" id="Path" fill="#000000" fill-rule="nonzero" opacity="0.1"></path>
                            <path d="M60.9280547,27.6586364 L63.3503421,25.4768182 C63.3503421,25.4768182 72.742522,24.8631818 73.1311828,28.0445455 C73.1311828,28.0445455 76.4608016,24.2727273 83.4635386,25.1127273 L86.426393,27.4636364 L78.2371457,31.0445455 L70.2791789,33.795 L64.4177908,31.1809091 L60.9280547,27.6586364 Z" id="Path" fill="#D5D6DB" fill-rule="nonzero"></path>
                            <polygon id="Path" fill="#000000" fill-rule="nonzero" opacity="0.1" points="59.8565005 27.9313636 60.9280547 40.7045455 72.2868035 41.2731818 71.7941349 28.5545455 71.7845552 28.3404545"></polygon>
                            <polygon id="Path" fill="#6FB9A6" fill-rule="nonzero" points="59.8565005 27.6586364 60.9280547 40.4318182 72.2868035 41.0004545 71.7941349 28.2818182 71.7845552 28.0677273"></polygon>
                            <polygon id="Path" fill="#000000" fill-rule="nonzero" opacity="0.1" points="86.9464321 27.6586364 75.22913 29.4095455 75.22913 42.24 86.6795699 40.5913636"></polygon>
                            <polygon id="Path" fill="#6FB9A6" fill-rule="nonzero" points="86.9464321 27.3859091 75.22913 29.1368182 75.22913 41.9672727 86.6795699 40.3186364"></polygon>
                            <polygon id="Path" fill="#FFFFFF" fill-rule="nonzero" opacity="0.3" points="84.1833822 30.5168182 77.8539589 31.2177273 77.9921799 33.3668182 84.1792766 32.6931818"></polygon>
                            <path d="M61.5438905,47.2718182 L62.1884653,48.9995455 C62.1884653,48.9995455 63.1464321,49.8177273 64.1947214,49.4086364 C65.2430108,48.9995455 66.1571848,48.7963636 66.6129032,48.3981818 C67.0686217,48 67.7077224,45.9995455 67.7077224,45.9995455 C67.7077224,45.9995455 68.3468231,43.8177273 68.9845552,43.2722727 C69.6222874,42.7268182 71.3110459,35.2118182 68.9845552,35.9468182 C66.6580645,36.6818182 64.8789834,43.5 64.8789834,43.5 C64.8789834,43.5 64.4684262,43.9990909 63.8758553,44.0454545 C63.2832845,44.0918182 62.0967742,43.9540909 61.8682307,44.4545455 C61.6396872,44.955 60.8596285,46.2722727 61.5438905,47.2718182 Z" id="Path" fill="#BE6F72" fill-rule="nonzero"></path>
                            <path d="M75.22913,29.4081818 C74.0126485,29.6813237 72.738202,29.364735 71.7927664,28.5545455 L72.2868035,41.2718182 C72.2868035,41.2718182 73.4500489,42.5263636 75.22913,42.24 L75.22913,29.4081818 Z" id="Path" fill="#000000" fill-rule="nonzero" opacity="0.1"></path>
                            <path d="M75.22913,29.1354545 C74.0126485,29.4085964 72.738202,29.0920077 71.7927664,28.2818182 L72.2868035,40.9990909 C72.2868035,40.9990909 73.4500489,42.2536364 75.22913,41.9672727 L75.22913,29.1354545 Z" id="Path" fill="#6FB9A6" fill-rule="nonzero"></path>
                            <path d="M75.22913,29.1354545 C74.0126485,29.4085964 72.738202,29.0920077 71.7927664,28.2818182 L72.2868035,40.9990909 C72.2868035,40.9990909 73.4500489,42.2536364 75.22913,41.9672727 L75.22913,29.1354545 Z" id="Path" fill="#000000" fill-rule="nonzero" opacity="0.1"></path>
                            <path d="M75.5028348,27.7022727 C75.5028348,27.7022727 80.2694037,26.25 81.5120235,26.4545455" id="Path" fill="#000000" fill-rule="nonzero" opacity="0.1"></path>
                            <path d="M70.1710655,27.0681818 C70.1710655,27.0681818 65.5509286,25.9772727 64.7790811,26.2868182" id="Path" fill="#000000" fill-rule="nonzero" opacity="0.1"></path>
                            <path d="M78.5081134,27.8836364 C78.5081134,27.8836364 81.6954057,26.7190909 82.8477028,27.2727273" id="Path" fill="#000000" fill-rule="nonzero" opacity="0.1"></path>
                            <path d="M76.9028348,57.0968182 C77.3967375,56.7272165 77.9224735,56.4018584 78.4739003,56.1245455 C79.2950147,55.7304545 80.800391,54.7077273 80.800391,54.7077273" id="Path" fill="#000000" fill-rule="nonzero" opacity="0.1"></path>
                            <path d="M64.7790811,43.1809091 C64.7790811,43.1809091 62.7796676,44.8104545 62.1788856,44.9536364 C61.5781036,45.0968182 61.2072336,46.3677273 61.2072336,46.3677273" id="Path" fill="#000000" fill-rule="nonzero" opacity="0.1"></path>
                            <path d="M85.77087,47.0290909 L85.1331378,48.7609091 C85.1331378,48.7609091 84.1751711,49.5790909 83.1255132,49.17 C82.0758553,48.7609091 81.1644184,48.5577273 80.7073314,48.1595455 C80.2502444,47.7613636 79.6125122,45.7609091 79.6125122,45.7609091 C79.6125122,45.7609091 78.9747801,43.5790909 78.3356794,43.0336364 C77.6965787,42.4881818 76.0091887,34.9731818 78.3356794,35.7081818 C80.6621701,36.4431818 82.4412512,43.2613636 82.4412512,43.2613636 C82.4412512,43.2613636 82.8518084,43.7604545 83.4443793,43.8068182 C84.0369501,43.8531818 85.2234604,43.7154545 85.4520039,44.2159091 C85.6805474,44.7163636 86.455132,46.0336364 85.77087,47.0290909 Z" id="Path" fill="#BE6F72" fill-rule="nonzero"></path>
                            <path d="M84.6527859,43.8436364 C84.6527859,43.8436364 85.9597263,44.6809091 85.9542522,45.6818182" id="Path" fill="#000000" fill-rule="nonzero" opacity="0.1"></path>
                            <ellipse id="Oval" fill="#BE6F72" fill-rule="nonzero" cx="73.5636364" cy="13.4822727" rx="6.11319648" ry="6.09136364"></ellipse>
                            <path d="M69.7249267,11.8472727 C70.4666667,11.7313636 71.1167155,11.3018182 71.8256109,11.055 C73.4117302,10.5 75.1661779,10.8804545 76.7714565,11.3809091 C77.3872923,11.5731818 78.0127077,11.79 78.658651,11.79 C79.3045943,11.79 79.9902248,11.5268182 80.3200391,10.9718182 C80.6238514,10.4618182 80.5650049,9.79909091 80.3090909,9.26318182 C80.0531769,8.72727273 79.6248289,8.29636364 79.1923754,7.89 C77.7691105,6.55090909 76.0037146,5.29909091 74.0508309,5.43545455 C73.2652981,5.49136364 72.5139785,5.77090909 71.7913978,6.08045455 C70.8815536,6.47113628 69.9959135,6.91556231 69.1391984,7.41136364 C68.4809384,7.79181818 67.2615836,8.30045455 66.8825024,8.99590909 C66.0203324,10.5627273 68.3837732,12.0572727 69.7249267,11.8472727 Z" id="Path" fill="#3E373A" fill-rule="nonzero"></path>
                            <path d="M80.3200391,10.3990909 C79.9902248,10.9540909 79.3045943,11.2172727 78.658651,11.2172727 C78.0127077,11.2172727 77.3872923,11.0086364 76.770088,10.8163636 C75.1648094,10.3159091 73.4117302,9.93409091 71.8242424,10.4904545 C71.1167155,10.7372727 70.4652981,11.1722727 69.7235582,11.2813636 C68.6424242,11.4504545 66.9016618,10.5122727 66.7128055,9.31909091 C66.5006843,10.6977273 68.5192571,11.8786364 69.7235582,11.6904545 C70.4652981,11.5745455 71.1167155,11.145 71.8242424,10.8995455 C73.4117302,10.3431818 75.1648094,10.725 76.770088,11.2254545 C77.3872923,11.4177273 78.0113392,11.6345455 78.658651,11.6263636 C79.3059629,11.6181818 79.9902248,11.3645455 80.3200391,10.8081818 C80.4909986,10.5055129 80.558262,10.1555561 80.5116325,9.81136364 C80.4902818,10.0185865 80.4249745,10.2189215 80.3200391,10.3990909 L80.3200391,10.3990909 Z" id="Path" fill="#000000" fill-rule="nonzero" opacity="0.1"></path>
                        </g>
                    </g>
                </g>
            </g>
        </g>
    </g>
</svg>