<?xml version="1.0" encoding="UTF-8"?>
<svg width="114px" height="54px" viewBox="0 0 114 54" version="1.1" xmlns="http://www.w3.org/2000/svg" xmlns:xlink="http://www.w3.org/1999/xlink">
    <!-- Generator: sketchtool 54.1 (76490) - https://sketchapp.com -->
    <title>573B88C8-BC52-4A87-B5FD-F3C5B6EF9D53</title>
    <desc>Created with sketchtool.</desc>
    <g id="Landing-Page" stroke="none" stroke-width="1" fill="none" fill-rule="evenodd">
        <g id="landing_page" transform="translate(-814.000000, -6259.000000)" fill-rule="nonzero">
            <g id="social" transform="translate(0.000000, 6110.000000)">
                <g id="logos" transform="translate(513.000000, 149.000000)">
                    <g id="LMU_Muenchen_Logo" transform="translate(301.000000, 0.000000)">
                        <rect id="Rectangle" fill="#2F854C" x="0.0867391304" y="0.0935121951" width="53.979" height="53.8147866"></rect>
                        <rect id="Rectangle" fill="#2F854C" x="59.9329391" y="0.0935121951" width="53.979" height="53.8147866"></rect>
                        <path d="M32.7320435,42.7222317 L32.7320435,31.2602378 L39.1051391,31.2602378 L39.1051391,43.3524512 C39.1051391,44.2103598 39.301913,44.8213171 39.696287,45.1853232 C40.0924783,45.5499878 40.6218348,45.7319085 41.2832,45.7319085 C41.9460522,45.7319085 42.4797043,45.5499878 42.8838261,45.1853232 C43.2877826,44.8213171 43.492487,44.2103598 43.492487,43.3524512 L43.492487,31.2602378 L49.8353478,31.2602378 L49.8353478,42.7222317 C49.8353478,44.0901768 49.6288261,45.2521646 49.2151217,46.2105 C48.8027391,47.1686707 48.2218348,47.9468963 47.4783565,48.5501159 C46.7328957,49.1533354 45.8313043,49.5906037 44.7742435,49.8620854 C43.7165217,50.1373537 42.5522348,50.2736707 41.2833652,50.2736707 C40.0333304,50.2736707 38.8832522,50.1373537 37.835113,49.8620854 C36.7876348,49.5907683 35.8853826,49.1533354 35.1323217,48.5501159 C34.3772783,47.9468963 33.7879478,47.1686707 33.3664783,46.2105 C32.9425304,45.2521646 32.7320435,44.0901768 32.7320435,42.7222317 Z M21.4759478,45.5949329 C21.4759478,45.7217012 21.5385652,45.7859085 21.6682609,45.7859085 C21.7586348,45.7859085 21.8057217,45.7215366 21.8057217,45.5949329 C21.9709391,44.3904695 22.1825826,43.0740549 22.4401565,41.6417378 C22.698887,40.2102439 22.9538174,38.8146402 23.212713,37.4550915 C23.470287,36.0981768 23.7186087,34.8614451 23.9568522,33.7508232 C24.1962522,32.63625 24.3801391,31.8086341 24.51,31.2600732 L30.4687304,31.2600732 L30.4687304,49.7815793 L26.8830174,49.7814146 L26.8830174,34.1880915 C26.8830174,34.096061 26.8172609,34.0511159 26.6893826,34.0511159 C26.6165217,34.0511159 26.5790174,34.096061 26.5790174,34.1880915 C26.4324696,34.9161037 26.2750174,35.7328537 26.1104609,36.6363659 C25.9432609,37.538561 25.7420261,38.5958415 25.5018,39.8088659 C25.2630609,41.0223841 24.9739304,42.440378 24.6344087,44.0623537 C24.2942261,45.6867988 23.8935739,47.5917805 23.4339391,49.7814146 L19.7081217,49.7814146 C19.249313,47.6289878 18.8580783,45.7684573 18.5360696,44.1993293 C18.2127391,42.6320122 17.9326957,41.2558354 17.6937913,40.0686585 C17.455713,38.8841159 17.2432435,37.8261768 17.0593565,36.8956646 C16.8767913,35.965811 16.6920783,35.0627927 16.5075304,34.1882561 C16.5075304,34.0962256 16.4429304,34.0512805 16.3138957,34.0512805 C16.2415304,34.0512805 16.2041913,34.0962256 16.2041913,34.1882561 L16.2041913,49.7815793 L12.9218174,49.7815793 L12.9218174,31.2600732 L18.9076435,31.2602378 C19,31.6609573 19.1115217,32.1798841 19.2394,32.8198171 C19.3666174,33.45975 19.5111826,34.1736037 19.6659913,34.9677988 C19.8234435,35.7588659 19.9828783,36.6090366 20.1500783,37.5094207 C20.3146348,38.4149085 20.480513,39.3345549 20.6463913,40.2747805 C20.8122696,41.213689 20.9632783,42.135311 21.1020609,43.0388232 C21.2398522,43.9401951 21.3644261,44.793 21.4759478,45.5949329 Z M3.92804348,31.2602378 L5.74873913,31.2602378 L5.74873913,48.4136341 L11.0454435,48.4136341 L11.0454435,49.7815793 L3.92804348,49.7815793 L3.92804348,31.2602378 Z" id="Shape" fill="#FFFFFF"></path>
                        <polygon id="Path" fill="#FFFFFF" points="63.9046 28.0865854 63.9046 24.153311 64.640313 24.153311 64.640313 27.5032866 66.6022696 27.5032866 66.6022696 28.0865854"></polygon>
                        <path d="M69.2883739,28.1669268 C68.4389913,28.1669268 67.6381826,27.8626829 67.6381826,26.5135061 L67.6381826,24.153311 L68.3765391,24.153311 L68.3765391,26.5810061 C68.3765391,27.2048049 68.6765739,27.6261037 69.2885391,27.6261037 C69.8900957,27.6261037 70.183687,27.2324634 70.183687,26.5810061 L70.183687,24.153311 L70.9213826,24.153311 L70.9213826,26.5135061 C70.9212174,27.7668659 70.1040522,28.1669268 69.2883739,28.1669268 Z" id="Path" fill="#FFFFFF"></path>
                        <path d="M73.5802261,24.7096098 L73.1614,24.7096098 L73.1614,27.5251829 L73.5802261,27.5251829 C74.4192,27.5251829 74.8780087,27.1547561 74.8780087,26.092372 C74.8780087,25.17075 74.4345652,24.7096098 73.5802261,24.7096098 Z M73.6137652,28.0865854 L72.4237043,28.0865854 L72.4237043,24.153311 L73.6137652,24.153311 C75.0194348,24.153311 75.6479217,24.9623232 75.6479217,26.0922073 C75.6479217,27.3849146 74.888913,28.0865854 73.6137652,28.0865854 Z" id="Shape" fill="#FFFFFF"></path>
                        <polygon id="Path" fill="#FFFFFF" points="80.7547913 28.0865854 79.9713304 28.0865854 79.2065391 25.3269878 78.4417478 28.0865854 77.6596087 28.0865854 76.4584783 24.153311 77.2794435 24.153311 78.0848783 27.2324634 78.8445478 24.4735244 79.6253652 24.4735244 80.3812348 27.2324634 81.1802261 24.153311 81.9512957 24.153311"></polygon>
                        <rect id="Rectangle" fill="#FFFFFF" x="83.0671739" y="24.153311" width="1" height="3.93327439"></rect>
                        <path d="M87.0918696,28.1669268 C85.8902435,28.1669268 85.1712174,27.3450732 85.1712174,26.0864451 C85.1712174,24.7255793 86.1734261,24.074122 87.0918696,24.074122 C87.7385304,24.074122 88.1573565,24.276622 88.424513,24.5127073 L88.1231565,25.0632439 C87.9082087,24.8213963 87.6146174,24.6021037 87.0918696,24.6021037 C86.4283565,24.6021037 85.9353478,25.1931402 85.9353478,26.0864451 C85.9353478,27.0021402 86.4283565,27.637628 87.1254087,27.637628 C87.5282087,27.637628 87.7611652,27.5360488 87.8566609,27.447311 L87.8566609,26.4460061 L86.9724174,26.4460061 L86.9724174,25.9065 L88.5664348,25.9065 L88.5664348,27.7953476 C88.2250957,28.0029512 87.766287,28.1669268 87.0918696,28.1669268 Z" id="Path" fill="#FFFFFF"></path>
                        <rect id="Rectangle" fill="#FFFFFF" x="89.5803739" y="26.0806829" width="1.5475913" height="1"></rect>
                        <polygon id="Path" fill="#FFFFFF" points="67.481887 35.3150122 67.3464087 32.3245976 66.3415565 34.7748476 65.6722609 34.7748476 64.6467565 32.3245976 64.5274696 35.3150122 63.8077826 35.3150122 64.0400783 31.3792683 64.9591826 31.3792683 66.0408609 33.9869085 67.0681826 31.3792683 67.9859652 31.3792683 68.2176 35.3150122"></polygon>
                        <path d="M71.1199739,32.1110671 L70.5023913,33.8306707 L71.749287,33.8306707 L71.1199739,32.1110671 Z M72.2874,35.3150122 L71.9414348,34.3581585 L70.3214783,34.3581585 L69.9703913,35.3150122 L69.192713,35.3150122 L70.7687217,31.3792683 L71.5406174,31.3792683 L73.1044,35.3150122 L72.2874,35.3150122 Z" id="Shape" fill="#FFFFFF"></path>
                        <polygon id="Path" fill="#FFFFFF" points="76.7258 35.3150122 75.6543652 33.7277744 74.5617826 35.3150122 73.6768783 35.3150122 75.1962174 33.2750305 73.7956696 31.3792683 74.7198957 31.3792683 75.6950087 32.8403963 76.6469913 31.3792683 77.5317304 31.3792683 76.1364696 33.2750305 77.6498609 35.3150122"></polygon>
                        <rect id="Rectangle" fill="#FFFFFF" x="78.7328609" y="31.3792683" width="1" height="3.9357439"></rect>
                        <polygon id="Path" fill="#FFFFFF" points="84.6291391 35.3150122 84.491513 32.3245976 83.4886435 34.7748476 82.8193478 34.7748476 81.7938435 32.3245976 81.6745565 35.3150122 80.9548696 35.3150122 81.1878261 31.3792683 82.1062696 31.3792683 83.1879478 33.9869085 84.2147739 31.3792683 85.133713 31.3792683 85.3648522 35.3150122"></polygon>
                        <rect id="Rectangle" fill="#FFFFFF" x="86.850487" y="31.3792683" width="1" height="3.9357439"></rect>
                        <polygon id="Path" fill="#FFFFFF" points="91.8663217 35.3150122 91.8663217 34.7297378 89.905687 34.7297378 89.905687 31.3792683 89.1679913 31.3792683 89.1679913 35.3150122"></polygon>
                        <rect id="Rectangle" fill="#FFFFFF" x="93.1203217" y="31.3792683" width="1" height="3.9357439"></rect>
                        <path d="M96.8783565,32.1110671 L96.260113,33.8306707 L97.5070087,33.8306707 L96.8783565,32.1110671 Z M98.045287,35.3150122 L97.6993217,34.3581585 L96.0782087,34.3581585 L95.7271217,35.3150122 L94.9507652,35.3150122 L96.5254522,31.3792683 L97.296687,31.3792683 L98.8624522,35.3150122 L98.045287,35.3150122 Z" id="Shape" fill="#FFFFFF"></path>
                        <polygon id="Path" fill="#FFFFFF" points="102.313183 35.3150122 100.659026 32.3812317 100.659026 35.3150122 99.9324 35.3150122 99.9324 31.3792683 100.896443 31.3792683 102.552583 34.3130488 102.552583 31.3792683 103.27673 31.3792683 103.27673 35.3150122"></polygon>
                        <path d="M107.477383,34.2229939 C107.477383,33.6288293 107.115391,33.3471402 106.667487,33.1555061 L105.885348,32.8249207 C105.640826,32.7233415 105.385896,32.5881768 105.385896,32.3066524 C105.385896,32.0815976 105.584652,31.8295427 106.020991,31.8295427 C106.514661,31.8295427 106.792226,32.0481768 107.018739,32.3247622 L107.331165,31.8359634 C107.045835,31.4982988 106.548365,31.3009024 106.020991,31.3009024 C105.385896,31.3009024 104.631513,31.6719878 104.631513,32.4307866 C104.631513,32.9149756 104.959965,33.2346951 105.385896,33.4148049 L106.168035,33.7460488 C106.474017,33.8759451 106.706313,34.0213171 106.706313,34.3313232 C106.706313,34.583378 106.474017,34.8650671 105.975722,34.8650671 C105.470983,34.8650671 105.143191,34.6400122 104.857861,34.3197988 L104.547417,34.8137012 C104.733948,35.0336524 105.181852,35.3925549 105.963991,35.3925549 C107.154052,35.3922256 107.477383,34.6281585 107.477383,34.2229939 Z" id="Path" fill="#FFFFFF"></path>
                        <rect id="Rectangle" fill="#FFFFFF" x="108.424243" y="33.3072988" width="1.54693043" height="1"></rect>
                        <path d="M65.4981217,42.6206524 C64.6469217,42.6206524 63.8485913,42.3152561 63.8485913,40.9678902 L63.8485913,38.606378 L64.5843043,38.606378 L64.5843043,41.0334146 C64.5843043,41.6572134 64.885,42.0803232 65.4981217,42.0803232 C66.0976957,42.0803232 66.3932696,41.6866829 66.3932696,41.0334146 L66.3932696,38.606378 L67.1289826,38.606378 L67.1289826,40.9678902 C67.1289826,42.2205915 66.3144609,42.6206524 65.4981217,42.6206524 Z" id="Path" fill="#FFFFFF"></path>
                        <polygon id="Path" fill="#FFFFFF" points="71.0134087 42.540311 69.3574348 39.6057073 69.3574348 42.540311 68.6313043 42.540311 68.6313043 38.606378 69.595513 38.606378 71.2509913 41.5401585 71.2509913 38.606378 71.9751391 38.606378 71.9751391 42.540311"></polygon>
                        <rect id="Rectangle" fill="#FFFFFF" x="73.5569304" y="38.606378" width="1" height="3.93393293"></rect>
                        <polygon id="Path" fill="#FFFFFF" points="77.6318522 42.540311 76.8508696 42.540311 75.2737043 38.606378 76.1073913 38.606378 77.2587913 41.7987988 78.4095304 38.606378 79.2085217 38.606378"></polygon>
                        <polygon id="Path" fill="#FFFFFF" points="80.3011043 42.540311 80.3011043 38.606378 82.960113 38.606378 82.960113 39.1799634 81.0388 39.1799634 81.0388 40.2141951 82.8077826 40.2141951 82.8077826 40.7762561 81.0388 40.7762561 81.0388 41.9570122 83.0349565 41.9570122 83.0349565 42.540311"></polygon>
                        <path d="M85.6700087,39.1620183 L85.0342522,39.1620183 L85.0342522,40.30425 L85.6700087,40.30425 C86.2380261,40.30425 86.3786261,40.0289817 86.3786261,39.7023476 C86.3786261,39.4051829 86.1456696,39.1620183 85.6700087,39.1620183 Z M86.5826696,42.540311 L85.7843391,41.3551098 C85.5798,41.0515244 85.403513,40.8426037 85.2176435,40.8426037 L85.0344174,40.8426037 L85.0344174,42.540311 L84.2987043,42.540311 L84.2987043,38.606378 L85.8120957,38.606378 C86.5091478,38.606378 87.1382957,38.9710427 87.1382957,39.7021829 C87.1382957,40.4436951 86.469,40.7202805 86.1289826,40.7588049 C86.2431478,40.8314085 86.3896957,41.0225488 86.4414087,41.0964695 L87.4624522,42.540311 L86.5826696,42.540311 Z" id="Shape" fill="#FFFFFF"></path>
                        <path d="M89.6611652,42.6206524 C88.8783652,42.6206524 88.4311217,42.2592805 88.2432696,42.0417988 L88.5550348,41.5465793 C88.8397043,41.8667927 89.1681565,42.0918476 89.6722348,42.0918476 C90.1711913,42.0918476 90.403487,41.8101585 90.403487,41.5581037 C90.403487,41.247439 90.1711913,41.1015732 89.8652087,40.9728293 L89.0830696,40.6409268 C88.6571391,40.4608171 88.328687,40.1412622 88.328687,39.6569085 C88.328687,38.8981098 89.0830696,38.5270244 89.7175043,38.5270244 C90.2453739,38.5270244 90.7430087,38.7231037 91.0276783,39.0607683 L90.715913,39.5495671 C90.4894,39.2749573 90.2118348,39.0563232 89.7175043,39.0563232 C89.2811652,39.0563232 89.0830696,39.308378 89.0830696,39.5334329 C89.0830696,39.815122 89.338,39.950122 89.5820261,40.0512073 L90.3630087,40.3824512 C90.810913,40.5740854 91.174887,40.8551159 91.174887,41.449939 C91.1745565,41.8552683 90.8512261,42.6206524 89.6611652,42.6206524 Z" id="Path" fill="#FFFFFF"></path>
                        <rect id="Rectangle" fill="#FFFFFF" x="92.5007565" y="38.606378" width="1" height="3.93393293"></rect>
                        <polygon id="Path" fill="#FFFFFF" points="96.406 39.1916524 96.406 42.540311 95.670287 42.540311 95.670287 39.1916524 94.3374783 39.1916524 94.3374783 38.606378 97.7379826 38.606378 97.7379826 39.1916524"></polygon>
                        <path d="M100.810696,38.2474756 C100.600374,38.2474756 100.42607,38.0673659 100.42607,37.869311 C100.42607,37.6737256 100.595748,37.4937805 100.810696,37.4937805 C101.025643,37.4937805 101.195983,37.6738902 101.195983,37.869311 C101.195983,38.0675305 101.021678,38.2474756 100.810696,38.2474756 Z M100.254409,39.3375183 L99.6368261,41.0564634 L100.883722,41.0564634 L100.254409,39.3375183 Z M99.7161304,38.2474756 C99.5069652,38.2474756 99.3315043,38.0673659 99.3315043,37.869311 C99.3315043,37.6737256 99.5005217,37.4937805 99.7161304,37.4937805 C99.9324,37.4937805 100.102739,37.6738902 100.102739,37.869311 C100.102739,38.0675305 99.9257913,38.2474756 99.7161304,38.2474756 Z M101.423817,42.540311 L101.077852,41.5852683 L99.4554174,41.5852683 L99.1049913,42.540311 L98.3286348,42.540311 L99.9033217,38.606378 L100.675217,38.606378 L102.239,42.540311 L101.423817,42.540311 Z" id="Shape" fill="#FFFFFF"></path>
                        <polygon id="Path" fill="#FFFFFF" points="104.896522 39.1916524 104.896522 42.540311 104.160809 42.540311 104.160809 39.1916524 102.829487 39.1916524 102.829487 38.606378 106.229991 38.606378 106.229991 39.1916524"></polygon>
                        <polygon id="Path" fill="#FFFFFF" points="67.481887 49.7667622 67.3464087 46.7783232 66.3415565 49.2285732 65.6722609 49.2285732 64.6467565 46.7783232 64.5274696 49.7667622 63.8077826 49.7667622 64.0400783 45.8329939 64.9591826 45.8329939 66.0408609 48.4406341 67.0681826 45.8329939 67.9859652 45.8329939 68.2176 49.7667622"></polygon>
                        <path d="M71.7672957,45.4727744 C71.556313,45.4727744 71.380687,45.2926646 71.380687,45.0965854 C71.380687,44.9005061 71.551687,44.7203963 71.7672957,44.7203963 C71.9815826,44.7203963 72.1583652,44.9005061 72.1583652,45.0965854 C72.1583652,45.2926646 71.9751391,45.4727744 71.7672957,45.4727744 Z M70.6720696,45.4727744 C70.4635652,45.4727744 70.2874435,45.2926646 70.2874435,45.0965854 C70.2874435,44.9005061 70.4571217,44.7203963 70.6720696,44.7203963 C70.8870174,44.7203963 71.0638,44.9005061 71.0638,45.0965854 C71.0638,45.2926646 70.8823913,45.4727744 70.6720696,45.4727744 Z M71.2741217,49.8459512 C70.4229217,49.8459512 69.6245913,49.5436829 69.6245913,48.193189 L69.6245913,45.8329939 L70.3603043,45.8329939 L70.3603043,48.2620061 C70.3603043,48.8858049 70.661,49.3077622 71.2741217,49.3077622 C71.8736957,49.3077622 72.1692696,48.9134634 72.1692696,48.2620061 L72.1692696,45.8329939 L72.9049826,45.8329939 L72.9049826,48.193189 C72.9051478,49.4472073 72.0906261,49.8459512 71.2741217,49.8459512 Z" id="Shape" fill="#FFFFFF"></path>
                        <polygon id="Path" fill="#FFFFFF" points="76.7895739 49.7667622 75.1336 46.8342988 75.1336 49.7667622 74.4074696 49.7667622 74.4074696 45.8329939 75.3716783 45.8329939 77.0271565 48.7674329 77.0271565 45.8329939 77.7513043 45.8329939 77.7513043 49.7667622"></polygon>
                        <path d="M80.9775043,49.8459512 C79.6970696,49.8459512 79.095513,48.8574878 79.095513,47.7718902 C79.095513,46.7095061 79.8261043,45.7538049 80.9775043,45.7538049 C81.5455217,45.7538049 81.9868174,45.9403354 82.2876783,46.254128 L81.997887,46.8007134 C81.7764957,46.5531037 81.557087,46.2939695 80.9892348,46.2939695 C80.3192783,46.2939695 79.866913,46.9409817 79.866913,47.7718902 C79.866913,48.5873232 80.3541391,49.3075976 80.9956783,49.3075976 C81.4668783,49.3075976 81.7766609,49.1493841 82.1108957,48.7944329 L82.3942435,49.3571524 C81.9352696,49.7063415 81.6021913,49.8459512 80.9775043,49.8459512 Z" id="Path" fill="#FFFFFF"></path>
                        <polygon id="Path" fill="#FFFFFF" points="86.0501739 49.7667622 86.0501739 47.9854207 84.282513 47.9854207 84.282513 49.7667622 83.5454783 49.7667622 83.5454783 45.8329939 84.282513 45.8329939 84.282513 47.4470671 86.0501739 47.4470671 86.0501739 45.8329939 86.7872087 45.8329939 86.7872087 49.7667622"></polygon>
                        <polygon id="Path" fill="#FFFFFF" points="88.3470261 49.7667622 88.3470261 45.8329939 91.0053739 45.8329939 91.0053739 46.4072378 89.0840609 46.4072378 89.0840609 47.4406463 90.8523826 47.4406463 90.8523826 48.0033659 89.0840609 48.0033659 89.0840609 49.1834634 91.0790609 49.1834634 91.0790609 49.7667622"></polygon>
                        <polygon id="Path" fill="#FFFFFF" points="94.724087 49.7667622 93.0687739 46.8342988 93.0687739 49.7667622 92.3426435 49.7667622 92.3426435 45.8329939 93.3055304 45.8329939 94.9621652 48.7674329 94.9621652 45.8329939 95.6882957 45.8329939 95.6882957 49.7667622"></polygon>
                    </g>
                </g>
            </g>
        </g>
    </g>
</svg>