<?xml version="1.0" encoding="UTF-8"?>
<svg width="221px" height="54px" viewBox="0 0 221 54" version="1.1" xmlns="http://www.w3.org/2000/svg" xmlns:xlink="http://www.w3.org/1999/xlink">
    <!-- Generator: sketchtool 54.1 (76490) - https://sketchapp.com -->
    <title>08ECED02-06F4-43BF-BD51-49F5239AA8F7</title>
    <desc>Created with sketchtool.</desc>
    <g id="Landing-Page" stroke="none" stroke-width="1" fill="none" fill-rule="evenodd">
        <g id="landing_page" transform="translate(-513.000000, -6259.000000)" fill-rule="nonzero">
            <g id="social" transform="translate(0.000000, 6110.000000)">
                <g id="logos" transform="translate(513.000000, 149.000000)">
                    <g id="bucerius_logo">
                        <path d="M22.484721,48.8586846 L22.484721,53.8926242 L21.7614017,53.8926242 L21.7614017,51.701507 L18.9432172,51.701507 L18.9432172,53.8926242 L18.2198979,53.8926242 L18.2198979,48.8586846 L18.9432172,48.8586846 L18.9432172,51.052099 L21.7614017,51.052099 L21.7614017,48.8586846 L22.484721,48.8586846 Z M25.3813375,51.3767986 C25.3813375,52.4745483 26.2161651,53.2951769 27.3370604,53.2951769 C28.4656593,53.2951769 29.2993737,52.4745483 29.2993737,51.3767986 C29.2993737,50.2701604 28.4656593,49.4584202 27.3370604,49.4584202 C26.2161651,49.4584202 25.3813375,50.2701604 25.3813375,51.3767986 Z M24.6370276,51.3767986 C24.6370276,49.9819155 25.7059677,48.7935679 27.3370604,48.7935679 C28.9967855,48.7935679 30.0458834,49.9752448 30.0458834,51.3767986 C30.0458834,52.7341402 29.0266371,53.9578027 27.3226956,53.9578027 C25.6772557,53.9578027 24.6370276,52.7408109 24.6370276,51.3767986 Z M36.4795865,49.2055079 L36.4795865,49.9819155 C35.8589498,49.6207435 35.3277972,49.4584202 34.7458111,49.4584202 C33.5940218,49.4584202 32.7382037,50.2767604 32.7382037,51.3833986 C32.7382037,52.5132384 33.5653099,53.2951769 34.7745231,53.2951769 C35.3432663,53.2951769 35.9627809,53.0942342 36.5303668,52.7274606 L36.5303668,53.5160698 C36.0367605,53.7755998 35.4978423,53.9578027 34.7082648,53.9578027 C32.8199222,53.9578027 31.9928071,52.5044119 31.9928071,51.4486654 C31.9928071,49.9156503 33.1511958,48.7935679 34.7524546,48.7935679 C35.2692249,48.7935679 35.7926916,48.9194984 36.4795865,49.2055079 Z M42.9397664,48.8586846 L42.9397664,53.8926242 L42.2164471,53.8926242 L42.2164471,51.701507 L39.3982627,51.701507 L39.3982627,53.8926242 L38.6749434,53.8926242 L38.6749434,48.8586846 L39.3982627,48.8586846 L39.3982627,51.052099 L42.2164471,51.052099 L42.2164471,48.8586846 L42.9397664,48.8586846 Z M47.703735,49.1469295 L47.703735,49.9653404 C47.2752649,49.5600711 46.8622551,49.442923 46.5232337,49.442923 C46.0582951,49.442923 45.7269862,49.6859308 45.7269862,50.0404233 C45.7269862,51.0068619 47.9024656,50.9913558 47.9024656,52.5938611 C47.9024656,53.3834864 47.3061589,53.9578027 46.4933998,53.9578027 C45.9478559,53.9578027 45.5050652,53.8109148 45.0843076,53.4939726 L45.0843076,52.5784257 C45.4531629,53.0521691 45.9180573,53.3083946 46.4127856,53.3083946 C46.9726944,53.3083946 47.2321971,52.9549712 47.2321971,52.6755617 C47.2321971,51.6340932 45.0555957,51.5170158 45.0555957,50.1364902 C45.0555957,49.3159235 45.6607279,48.7935679 46.5817707,48.7935679 C46.9660597,48.7935679 47.3492268,48.9105923 47.703735,49.1469295 Z M54.2367725,49.2055079 L54.2367725,49.9819155 C53.6172931,49.6207435 53.0849831,49.4584202 52.501937,49.4584202 C51.3512608,49.4584202 50.4953896,50.2767604 50.4953896,51.3833986 C50.4953896,52.5132384 51.3214357,53.2951769 52.531762,53.2951769 C53.1004522,53.2951769 53.7199846,53.0942342 54.287597,52.7274606 L54.287597,53.5160698 C53.7939465,53.7755998 53.2550813,53.9578027 52.4655038,53.9578027 C50.577117,53.9578027 49.7511151,52.5044119 49.7511151,51.4486654 C49.7511151,49.9156503 50.9084348,48.7935679 52.5096494,48.7935679 C53.026455,48.7935679 53.5499217,48.9194984 54.2367725,49.2055079 Z M60.6969612,48.8586846 L60.6969612,53.8926242 L59.9736419,53.8926242 L59.9736419,51.701507 L57.1554575,51.701507 L57.1554575,53.8926242 L56.4321382,53.8926242 L56.4321382,48.8586846 L57.1554575,48.8586846 L57.1554575,51.052099 L59.9736419,51.052099 L59.9736419,48.8586846 L60.6969612,48.8586846 Z M67.2984921,48.8586846 L67.2984921,51.9157292 C67.2984921,53.1460713 66.5608168,53.9578027 65.0622759,53.9578027 C63.9999352,53.9578027 62.9674108,53.3602935 62.9674108,51.9875166 L62.9674108,48.8586846 L63.6907301,48.8586846 L63.6907301,51.8340286 C63.6907301,52.402761 63.7636318,52.6369335 63.9933359,52.8666618 C64.2804197,53.1549067 64.6426403,53.2951769 65.0777539,53.2951769 C65.6310191,53.2951769 66.0296641,53.1173564 66.2582551,52.8898546 C66.5166712,52.6303246 66.5751728,52.2625438 66.5751728,51.7898165 L66.5751728,48.8586846 L67.2984921,48.8586846 Z M70.2690705,48.8586846 L70.2690705,53.243278 L72.5417464,53.243278 L72.5417464,53.8926242 L69.5457512,53.8926242 L69.5457512,48.8586846 L70.2690705,48.8586846 Z M77.2825245,48.8586846 L77.2825245,49.5081103 L75.150113,49.5081103 L75.150113,51.029984 L77.2096228,51.029984 L77.2096228,51.6794009 L75.150113,51.6794009 L75.150113,53.243278 L77.3498959,53.243278 L77.3498959,53.8926242 L74.4278715,53.8926242 L74.4278715,48.8586846 L77.2825245,48.8586846 Z M85.3770571,48.8586846 L85.3770571,49.5081103 L83.4147349,49.5081103 L83.4147349,50.9029934 L85.3770571,50.9029934 L85.3770571,51.5524014 L83.4147349,51.5524014 L83.4147349,53.8926242 L82.6914156,53.8926242 L82.6914156,48.8586846 L85.3770571,48.8586846 Z M91.6318364,48.8586846 L91.6318364,51.9157292 C91.6318364,53.1460713 90.893048,53.9578027 89.3956379,53.9578027 C88.3332796,53.9578027 87.3007551,53.3602935 87.3007551,51.9875166 L87.3007551,48.8586846 L88.0240744,48.8586846 L88.0240744,51.8340286 C88.0240744,52.402761 88.0969761,52.6369335 88.3266803,52.8666618 C88.6137729,53.1549067 88.9748715,53.2951769 89.4099939,53.2951769 C89.9643635,53.2951769 90.3629731,53.1173564 90.5915994,52.8898546 C90.8500155,52.6303246 90.9085171,52.2625438 90.9085171,51.7898165 L90.9085171,48.8586846 L91.6318364,48.8586846 Z M90.1553728,47.635022 C90.3475482,47.635022 90.4954896,47.7807614 90.4954896,47.9751747 C90.4954896,48.1673527 90.3475482,48.3197627 90.1553728,48.3197627 C89.9643635,48.3197627 89.809752,48.1673527 89.809752,47.9751747 C89.809752,47.7807614 89.9643635,47.635022 90.1553728,47.635022 Z M88.7827491,47.635022 C88.9748715,47.635022 89.1228571,47.7807614 89.1228571,47.9751747 C89.1228571,48.1673527 88.9748715,48.3197627 88.7827491,48.3197627 C88.5917044,48.3197627 88.4370753,48.1673527 88.4370753,47.9751747 C88.4370753,47.7807614 88.5917044,47.635022 88.7827491,47.635022 Z M94.6245274,49.4783086 L94.6245274,51.058699 L95.0893954,51.058699 C95.8635303,51.058699 96.085522,50.6600474 96.0777653,50.2403587 C96.071166,49.7676226 95.7906727,49.4783086 95.0893954,49.4783086 L94.6245274,49.4783086 Z M93.9012081,48.8586846 L95.1700449,48.8586846 C96.1882134,48.8586846 96.8231619,49.3976859 96.8231619,50.2701604 C96.8231619,50.8510856 96.5205913,51.2862007 95.9816909,51.5004937 C96.4388728,51.8053137 96.7193573,52.2691615 97.1036905,52.8964546 C97.3179255,53.243278 97.4426766,53.4122013 97.7894634,53.8926242 L96.9258887,53.8926242 L96.2621753,52.8599911 C95.598515,51.8252021 95.2959091,51.7081159 94.927098,51.7081159 L94.6245274,51.7081159 L94.6245274,53.8926242 L93.9012081,53.8926242 L93.9012081,48.8586846 Z M103.646667,49.4783086 L103.646667,51.058699 L104.11157,51.058699 C104.886827,51.058699 105.107661,50.6600474 105.101062,50.2403587 C105.093305,49.7676226 104.812812,49.4783086 104.11157,49.4783086 L103.646667,49.4783086 Z M102.924469,48.8586846 L104.193297,48.8586846 C105.211466,48.8586846 105.84531,49.3976859 105.84531,50.2701604 C105.84531,50.8510856 105.542784,51.2862007 105.004987,51.5004937 C105.462169,51.8053137 105.742663,52.2691615 106.12583,52.8964546 C106.340065,53.243278 106.465973,53.4122013 106.811603,53.8926242 L105.949141,53.8926242 L105.285472,52.8599911 C104.620654,51.8252021 104.318101,51.7081159 103.949273,51.7081159 L103.646667,51.7081159 L103.646667,53.8926242 L102.924469,53.8926242 L102.924469,48.8586846 Z M111.478419,48.8586846 L111.478419,49.5081103 L109.347112,49.5081103 L109.347112,51.029984 L111.405526,51.029984 L111.405526,51.6794009 L109.347112,51.6794009 L109.347112,53.243278 L111.545782,53.243278 L111.545782,53.8926242 L108.623757,53.8926242 L108.623757,48.8586846 L111.478419,48.8586846 Z M117.860149,49.2055079 L117.860149,49.9819155 C117.240652,49.6207435 116.708395,49.4584202 116.125331,49.4584202 C114.97462,49.4584202 114.118802,50.2767604 114.118802,51.3833986 C114.118802,52.5132384 114.945908,53.2951769 116.154008,53.2951769 C116.722751,53.2951769 117.343379,53.0942342 117.910965,52.7274606 L117.910965,53.5160698 C117.417358,53.7755998 116.87844,53.9578027 116.088863,53.9578027 C114.199398,53.9578027 113.373405,52.5044119 113.373405,51.4486654 C113.373405,49.9156503 114.531794,48.7935679 116.133053,48.7935679 C116.649849,48.7935679 117.17329,48.9194984 117.860149,49.2055079 Z M124.320329,48.8586846 L124.320329,53.8926242 L123.598158,53.8926242 L123.598158,51.701507 L120.778861,51.701507 L120.778861,53.8926242 L120.055541,53.8926242 L120.055541,48.8586846 L120.778861,48.8586846 L120.778861,51.052099 L123.598158,51.052099 L123.598158,48.8586846 L124.320329,48.8586846 Z M130.472426,48.8586846 L130.472426,49.5081103 L128.72986,49.5081103 L128.72986,53.8926242 L128.007619,53.8926242 L128.007619,49.5081103 L126.266149,49.5081103 L126.266149,48.8586846 L130.472426,48.8586846 Z M134.79909,49.1469295 L134.79909,49.9653404 C134.371724,49.5600711 133.95761,49.442923 133.618589,49.442923 C133.154763,49.442923 132.822412,49.6859308 132.822412,50.0404233 C132.822412,51.0068619 134.997891,50.9913558 134.997891,52.5938611 C134.997891,53.3834864 134.400436,53.9578027 133.589877,53.9578027 C133.042168,53.9578027 132.599342,53.8109148 132.179707,53.4939726 L132.179707,52.5784257 C132.548518,53.0521691 133.013456,53.3083946 133.507072,53.3083946 C134.068058,53.3083946 134.325326,52.9549712 134.325326,52.6755617 C134.325326,51.6340932 132.149846,51.5170158 132.149846,50.1364902 C132.149846,49.3159235 132.75504,48.7935679 133.677134,48.7935679 C134.061415,48.7935679 134.444626,48.9105923 134.79909,49.1469295 Z M144.172424,48.8586846 L142.128384,53.9379143 L141.988128,53.9379143 L140.334967,49.8195304 L138.667494,53.9379143 L138.527221,53.9379143 L136.490902,48.8586846 L137.214221,48.8586846 L138.601236,52.3276604 L139.99705,48.8586846 L140.681745,48.8586846 L142.084203,52.3276604 L143.456862,48.8586846 L144.172424,48.8586846 Z M146.004465,53.8926242 L146.004465,48.8590203 L146.728049,48.8590203 L146.728049,53.8926242 L146.004465,53.8926242 Z M151.490675,49.1469295 L151.490675,49.9653404 C151.061092,49.5600711 150.648091,49.442923 150.309061,49.442923 C149.845235,49.442923 149.51284,49.6859308 149.51284,50.0404233 C149.51284,51.0068619 151.688319,50.9913558 151.688319,52.5938611 C151.688319,53.3834864 151.092021,53.9578027 150.280349,53.9578027 C149.734831,53.9578027 149.290892,53.8109148 148.871257,53.4939726 L148.871257,52.5784257 C149.238999,53.0521691 149.703902,53.3083946 150.198613,53.3083946 C150.760721,53.3083946 151.018024,52.9549712 151.018024,52.6755617 C151.018024,51.6340932 148.841423,51.5170158 148.841423,50.1364902 C148.841423,49.3159235 149.445477,48.7935679 150.368676,48.7935679 C150.751887,48.7935679 151.136167,48.9105923 151.490675,49.1469295 Z M156.126544,49.1469295 L156.126544,49.9653404 C155.698066,49.5600711 155.285029,49.442923 154.946034,49.442923 C154.481131,49.442923 154.148709,49.6859308 154.148709,50.0404233 C154.148709,51.0068619 156.32531,50.9913558 156.32531,52.5938611 C156.32531,53.3834864 155.726751,53.9578027 154.916218,53.9578027 C154.369588,53.9578027 153.927875,53.8109148 153.50823,53.4939726 L153.50823,52.5784257 C153.875972,53.0521691 154.339754,53.3083946 154.835604,53.3083946 C155.395442,53.3083946 155.654998,52.9549712 155.654998,52.6755617 C155.654998,51.6340932 153.477292,51.5170158 153.477292,50.1364902 C153.477292,49.3159235 154.082451,48.7935679 155.003467,48.7935679 C155.387756,48.7935679 155.770923,48.9105923 156.126544,49.1469295 Z M161.227299,48.8586846 L161.227299,49.5081103 L159.094861,49.5081103 L159.094861,51.029984 L161.153337,51.029984 L161.153337,51.6794009 L159.094861,51.6794009 L159.094861,53.243278 L161.29468,53.243278 L161.29468,53.8926242 L158.371569,53.8926242 L158.371569,48.8586846 L161.227299,48.8586846 Z M167.976807,48.8586846 L167.976807,53.8926242 L167.357292,53.8926242 L163.992477,50.0172305 L163.992477,53.8926242 L163.313312,53.8926242 L163.313312,48.8586846 L163.889795,48.8586846 L167.297678,52.7561844 L167.297678,48.8586846 L167.976807,48.8586846 Z M172.734176,49.1469295 L172.734176,49.9653404 C172.305706,49.5600711 171.892696,49.442923 171.553675,49.442923 C171.088772,49.442923 170.757463,49.6859308 170.757463,50.0404233 C170.757463,51.0068619 172.934055,50.9913558 172.934055,52.5938611 C172.934055,53.3834864 172.3366,53.9578027 171.524963,53.9578027 C170.978332,53.9578027 170.534393,53.8109148 170.114758,53.4939726 L170.114758,52.5784257 C170.483604,53.0521691 170.948507,53.3083946 171.443236,53.3083946 C172.004187,53.3083946 172.262629,52.9549712 172.262629,52.6755617 C172.262629,51.6340932 170.086046,51.5170158 170.086046,50.1364902 C170.086046,49.3159235 170.690056,48.7935679 171.612212,48.7935679 C171.996501,48.7935679 172.379668,48.9105923 172.734176,49.1469295 Z M179.267214,49.2055079 L179.267214,49.9819155 C178.647699,49.6207435 178.115424,49.4584202 177.532378,49.4584202 C176.381702,49.4584202 175.525831,50.2767604 175.525831,51.3833986 C175.525831,52.5132384 176.351877,53.2951769 177.56109,53.2951769 C178.12978,53.2951769 178.750417,53.0942342 179.318038,52.7274606 L179.318038,53.5160698 C178.824388,53.7755998 178.285514,53.9578027 177.49591,53.9578027 C175.606445,53.9578027 174.780443,52.5044119 174.780443,51.4486654 C174.780443,49.9156503 175.938867,48.7935679 177.541204,48.7935679 C178.056923,48.7935679 178.580363,48.9194984 179.267214,49.2055079 Z M185.727411,48.8586846 L185.727411,53.8926242 L185.005205,53.8926242 L185.005205,51.701507 L182.185872,51.701507 L182.185872,53.8926242 L181.463701,53.8926242 L181.463701,48.8586846 L182.185872,48.8586846 L182.185872,51.052099 L185.005205,51.052099 L185.005205,48.8586846 L185.727411,48.8586846 Z M189.953566,49.9366254 L189.200431,51.7600236 L190.765256,51.7600236 L189.953566,49.9366254 Z M190.217521,48.8299696 L192.468084,53.8926242 L191.731522,53.8926242 L191.060105,52.4094935 L188.919937,52.4094935 L188.284989,53.8926242 L187.547314,53.8926242 L189.70955,48.8299696 L190.217521,48.8299696 Z M196.976968,48.8586846 L196.976968,49.5081103 L195.012384,49.5081103 L195.012384,50.9029934 L196.976968,50.9029934 L196.976968,51.5524014 L195.012384,51.5524014 L195.012384,53.8926242 L194.290187,53.8926242 L194.290187,48.8586846 L196.976968,48.8586846 Z M202.780086,48.8586846 L202.780086,49.5081103 L201.038572,49.5081103 L201.038572,53.8926242 L200.315253,53.8926242 L200.315253,49.5081103 L198.573739,49.5081103 L198.573739,48.8586846 L202.780086,48.8586846 Z" id="Combined-Shape" fill="#A4202E"></path>
                        <path d="M78.2156263,34.3753058 L78.2156263,39.1519331 C78.2156263,41.0769822 77.062768,42.3459524 74.720521,42.3459524 C73.059665,42.3459524 71.4451546,41.410526 71.4451546,39.2668724 L71.4451546,34.3753058 L72.5759886,34.3753058 L72.5759886,39.0239352 C72.5759886,39.9117656 72.6908009,40.2817641 73.0486043,40.6395786 C73.4980738,41.0891838 74.0634334,41.3066486 74.7437114,41.3066486 C75.6094594,41.3066486 76.2323047,41.0316921 76.5890303,40.6738157 C76.9932057,40.270711 77.0859407,39.6930903 77.0859407,38.9564507 L77.0859407,34.3753058 L78.2156263,34.3753058 Z M88.4735439,34.825927 L88.4735439,36.1070901 C87.8054221,35.4708909 87.1583175,35.2864615 86.628225,35.2864615 C85.9015751,35.2864615 85.3825521,35.6675219 85.3825521,36.2218968 C85.3825521,37.7317014 88.78494,37.7096572 88.78494,40.2122033 C88.78494,41.4469277 87.8507251,42.3459524 86.581853,42.3459524 C85.7282523,42.3459524 85.0369579,42.116286 84.3787837,41.620304 L84.3787837,40.1890193 C84.9563437,40.9289545 85.681845,41.3321298 86.4548757,41.3321298 C87.3317021,41.3321298 87.7358775,40.7776312 87.7358775,40.3402807 C87.7358775,38.7123649 84.3334807,38.5279355 84.3334807,36.3710024 C84.3334807,35.0899012 85.2787917,34.2714991 86.721013,34.2714991 C87.3206502,34.2714991 87.9202874,34.4570771 88.4735439,34.825927 Z M154.399413,34.825927 L154.399413,36.1070901 C153.729109,35.4708909 153.083055,35.2864615 152.553016,35.2864615 C151.826357,35.2864615 151.307334,35.6675219 151.307334,36.2218968 C151.307334,37.7317014 154.7108,37.7096572 154.7108,40.2122033 C154.7108,41.4469277 153.775481,42.3459524 152.506609,42.3459524 C151.653008,42.3459524 150.962818,42.116286 150.304608,41.620304 L150.304608,40.1890193 C150.879986,40.9289545 151.607678,41.3321298 152.380709,41.3321298 C153.257562,41.3321298 153.660624,40.7776312 153.660624,40.3402807 C153.660624,38.7123649 150.258272,38.5279355 150.258272,36.3710024 C150.258272,35.0899012 151.203547,34.2714991 152.644647,34.2714991 C153.245406,34.2714991 153.845043,34.4570771 154.399413,34.825927 Z M167.606883,34.9165248 L167.606883,36.1291343 C166.63839,35.5637152 165.809049,35.3085764 164.896902,35.3085764 C163.097991,35.3085764 161.759574,36.5896688 161.759574,38.3203133 C161.759574,40.0852037 163.051628,41.3066486 164.94331,41.3066486 C165.831126,41.3066486 166.800723,40.9963683 167.68861,40.4187476 L167.68861,41.654541 C166.915571,42.0577075 166.072986,42.3459524 164.839479,42.3459524 C161.886595,42.3459524 160.594551,40.0741507 160.594551,38.4241289 C160.594551,36.0253276 162.405618,34.2714991 164.907963,34.2714991 C165.716314,34.2714991 166.534586,34.4681301 167.606883,34.9165248 Z M180.702836,34.3753058 L180.702836,42.2432148 L179.572002,42.2432148 L179.572002,38.8161805 L175.166958,38.8161805 L175.166958,42.2432148 L174.037246,42.2432148 L174.037246,34.3753058 L175.166958,34.3753058 L175.166958,37.8023578 L179.572002,37.8023578 L179.572002,34.3753058 L180.702836,34.3753058 Z M188.227565,38.3092603 C188.227565,40.0266253 189.529487,41.3066486 191.284279,41.3066486 C193.048949,41.3066486 194.352028,40.0266253 194.352028,38.3092603 C194.352028,36.5775378 193.048949,35.3085764 191.284279,35.3085764 C189.529487,35.3085764 188.227565,36.5775378 188.227565,38.3092603 Z M187.062524,38.3092603 C187.062524,36.1291343 188.734388,34.2714991 191.284279,34.2714991 C193.879403,34.2714991 195.517051,36.1180813 195.517051,38.3092603 C195.517051,40.433105 193.925775,42.3459524 191.261089,42.3459524 C188.689155,42.3459524 187.062524,40.4441581 187.062524,38.3092603 Z M202.688429,38.3092603 C202.688429,40.0266253 203.991499,41.3066486 205.74403,41.3066486 C207.509813,41.3066486 208.81177,40.0266253 208.81177,38.3092603 C208.81177,36.5775378 207.509813,35.3085764 205.74403,35.3085764 C203.991499,35.3085764 202.688429,36.5775378 202.688429,38.3092603 Z M201.522249,38.3092603 C201.522249,36.1291343 203.195278,34.2714991 205.74403,34.2714991 C208.339154,34.2714991 209.976837,36.1180813 209.976837,38.3092603 C209.976837,40.433105 208.385526,42.3459524 205.720849,42.3459524 C203.148915,42.3459524 201.522249,40.4441581 201.522249,38.3092603 Z M217.448551,34.3753058 L217.448551,41.2282524 L221.000002,41.2282524 L221.000002,42.2432148 L216.317761,42.2432148 L216.317761,34.3753058 L217.448551,34.3753058 Z M104.502503,34.3753058 L104.502503,41.2282524 L108.055067,41.2282524 L108.055067,42.2432148 L103.371677,42.2432148 L103.371677,34.3753058 L104.502503,34.3753058 Z M116.895023,36.0595646 L115.71779,38.908996 L118.164972,38.908996 L116.895023,36.0595646 Z M117.31025,34.3301482 L120.828537,42.2432148 L119.67567,42.2432148 L118.62545,39.9250363 L115.28053,39.9250363 L114.288847,42.2432148 L113.13598,42.2432148 L116.515151,34.3301482 L117.31025,34.3301482 Z M136.879599,34.3753058 L133.684838,42.3127845 L133.465117,42.3127845 L130.882123,35.8751441 L128.274878,42.3127845 L128.056226,42.3127845 L124.87363,34.3753058 L126.004428,34.3753058 L128.171073,39.7969677 L130.35097,34.3753058 L131.424336,34.3753058 L133.616398,39.7969677 L135.760912,34.3753058 L136.879599,34.3753058 Z M51.8349372,35.3450399 L51.8349372,37.8134109 L52.5615517,37.8134109 C53.7718692,37.8134109 54.1186207,37.1882647 54.1076042,36.5322389 C54.0954304,35.7933816 53.6570216,35.3450399 52.5615517,35.3450399 L51.8349372,35.3450399 Z M50.7041385,34.3753058 L52.6885732,34.3753058 C54.2798403,34.3753058 55.2715321,35.2168918 55.2715321,36.5775378 C55.2715321,37.4887642 54.7988722,38.1689901 53.9573923,38.5058913 C54.6718595,38.9763391 55.1103036,39.7041433 55.7099055,40.6848687 C56.0445539,41.2260259 56.2410935,41.4922266 56.7822291,42.2432148 L55.4338648,42.2432148 L54.3957834,40.6263609 C53.3566508,39.0128115 52.8840351,38.8272335 52.3075794,38.8272335 L51.8349372,38.8272335 L51.8349372,42.2432148 L50.7041385,42.2432148 L50.7041385,34.3753058 Z M63.1165095,42.2432148 L63.1165095,34.3759861 L64.2463188,34.3759861 L64.2463188,42.2432148 L63.1165095,42.2432148 Z M1.13078953,38.7576638 L1.13078953,41.2260259 L2.54870736,41.2260259 C3.87608108,41.2260259 4.23280669,40.5700797 4.23280669,39.9813971 C4.23280669,39.2645752 3.67954142,38.7576638 2.49128354,38.7576638 L1.13078953,38.7576638 Z M1.13078953,35.3903477 L1.13078953,37.7438412 L1.87952548,37.7438412 C2.99929,37.7438412 3.54150339,37.3285349 3.54150339,36.4858621 C3.54150339,35.8972502 3.20576839,35.3903477 2.16883553,35.3903477 L1.13078953,35.3903477 Z M-3.63120516e-07,42.2432148 L-3.63120516e-07,34.3753058 L2.28365667,34.3753058 C3.97991218,34.3753058 4.70542241,35.3903477 4.70542241,36.3820554 C4.70542241,37.2004575 4.32554175,37.7317014 3.50614799,38.0651745 L3.50614799,38.0883674 C4.68223202,38.3092603 5.39780351,39.0823635 5.39780351,40.1414938 C5.39780351,41.111228 4.67118015,42.2432148 2.69891924,42.2432148 L-3.63120516e-07,42.2432148 Z M31.2186633,34.9186806 L31.2186633,36.1291343 C30.250215,35.5637152 29.4197517,35.3108029 28.5087272,35.3108029 C26.7097802,35.3108029 25.3713988,36.5918953 25.3713988,38.3203133 C25.3713988,40.0852037 26.6634083,41.3100149 28.5550638,41.3100149 C29.4429421,41.3100149 30.4125477,40.9963683 31.3003819,40.4187476 L31.3003819,41.654541 C30.52736,42.0577075 29.6847759,42.3459524 28.4513034,42.3459524 C25.498385,42.3459524 24.2074356,40.0741507 24.2074356,38.4241289 C24.2074356,36.0253276 26.017408,34.2714991 28.5208657,34.2714991 C29.3270167,34.2714991 30.1463751,34.4681301 31.2186633,34.9186806 Z M18.5467631,34.3753058 L18.5467631,39.1519331 C18.5467631,41.0769822 17.3927917,42.3459524 15.0516755,42.3459524 C13.3908019,42.3459524 11.7763002,41.4126818 11.7763002,39.2668724 L11.7763002,34.3753058 L12.9070636,34.3753058 L12.9070636,39.0239352 C12.9070636,39.9117656 13.0219378,40.2817641 13.37975,40.6395786 C13.8291754,41.0891838 14.3946056,41.3100149 15.0748571,41.3100149 C15.9395096,41.3100149 16.5623372,41.0316921 16.9201318,40.6738157 C17.3242807,40.270711 17.4159821,39.6930903 17.4159821,38.9564507 L17.4159821,34.3753058 L18.5467631,34.3753058 Z M43.0634485,34.3753058 L43.0634485,35.3903477 L39.7306229,35.3903477 L39.7306229,37.7658854 L42.9486008,37.7658854 L42.9486008,38.7819964 L39.7306229,38.7819964 L39.7306229,41.2260259 L43.1672531,41.2260259 L43.1672531,42.2432148 L38.5998595,42.2432148 L38.5998595,34.3753058 L43.0634485,34.3753058 Z" id="Combined-Shape" fill="#2B261E"></path>
                        <polygon id="path117" fill="#A4202E" points="64.3102447 16.9299243 102.584326 16.9299243 102.584326 5.80619255 64.3102447 5.80619255"></polygon>
                        <polygon id="path119" fill="#A4202E" points="118.416736 16.9199492 156.689713 16.9199492 156.689713 5.79621742 118.416736 5.79621742"></polygon>
                        <polygon id="path121" fill="#A4202E" points="104.938729 18.8493806 116.061291 18.8493806 116.061291 0.0421956414 104.938729 0.0421956414"></polygon>
                    </g>
                </g>
            </g>
        </g>
    </g>
</svg>