<?xml version="1.0" encoding="UTF-8"?>
<svg width="94px" height="46px" viewBox="0 0 94 46" version="1.1" xmlns="http://www.w3.org/2000/svg" xmlns:xlink="http://www.w3.org/1999/xlink">
    <!-- Generator: sketchtool 54.1 (76490) - https://sketchapp.com -->
    <title>F0FB920C-EE8A-40C4-A11C-66588E0584AB</title>
    <desc>Created with sketchtool.</desc>
    <g id="Landing-Page" stroke="none" stroke-width="1" fill="none" fill-rule="evenodd">
        <g id="landing_page" transform="translate(-250.000000, -6515.000000)" fill="#FFFFFF" fill-rule="nonzero">
            <g id="footer" transform="translate(0.000000, 6322.000000)">
                <g id="logo" transform="translate(250.000000, 192.950501)">
                    <path d="M87.3132658,13.1481481 L85.6944797,13.1481481 L85.6944797,2.68055556 L44.6852322,2.68055556 L44.6852322,13.1481481 L43.0664461,13.1481481 L43.0664461,0.833333333 L87.3132658,0.833333333 L87.3132658,13.1481481 Z M87.3132658,30.3888889 L87.3132658,45.1666667 L43.0664461,45.1666667 L43.0664461,30.3888889 L44.6852322,30.3888889 L44.6852322,43.3194444 L85.6944797,43.3194444 L85.6944797,30.3888889 L87.3132658,30.3888889 Z M2.07144869,25.1723333 L6.00430294,25.1723333 L6.00430294,26.6944444 L0.333333333,26.6944444 L0.333333333,17.1036667 L2.07144869,17.1036667 L2.07144869,25.1723333 Z M14.7292493,17.1036667 L16.9092583,17.1036667 L20.0467039,26.6944444 L18.20548,26.6944444 L17.5426394,24.6255556 L13.9927597,24.6255556 L13.3151893,26.6944444 L11.4739654,26.6944444 L14.7292493,17.1036667 Z M14.4346534,23.3103333 L17.1154754,23.3103333 L15.7897942,19.1873333 L14.4346534,23.3103333 Z M25.820782,17.1036667 L27.9271422,24.3891111 L29.9745831,17.7391111 L31.1529664,17.7391111 L33.3182457,24.4186667 L35.557174,17.1036667 L37.5162362,17.1036667 L34.2314928,26.6944444 L32.4049987,26.6944444 L30.6079642,21.2857778 L28.8256594,26.6944444 L26.9991653,26.6944444 L23.8764496,17.1036667 L25.820782,17.1036667 Z M60.9857035,16.9115556 C61.6239977,16.9115556 62.2082735,17.0174619 62.7385487,17.2292778 C63.2688238,17.4410937 63.7254428,17.7538868 64.1084192,18.1676667 C64.9136519,19.034634 65.3162621,20.2759549 65.3162621,21.8916667 C65.3162621,23.5172303 64.9136519,24.7733289 64.1084192,25.66 C63.3424663,26.4875597 62.2966616,26.9013333 60.9709737,26.9013333 C59.6551058,26.9013333 58.614211,26.4777079 57.848258,25.6304444 C57.0430254,24.7536252 56.6404151,23.5073784 56.6404151,21.8916667 C56.6404151,20.2562511 57.0430254,19.0050784 57.848258,18.1381111 C58.604391,17.3204033 59.6501958,16.9115556 60.9857035,16.9115556 Z M63.5192276,21.9212222 C63.5192276,20.8178093 63.2909181,19.9680956 62.8342923,19.3720556 C62.3776665,18.7760155 61.7614764,18.478 60.9857035,18.478 C60.2099306,18.478 59.5912856,18.7760155 59.1297498,19.3720556 C58.6682141,19.9680956 58.4374496,20.8153464 58.4374496,21.9138333 C58.4374496,23.0123203 58.6682141,23.8546452 59.1297498,24.4408333 C59.5912856,25.0270214 60.2099306,25.3201111 60.9857035,25.3201111 C61.7614764,25.3201111 62.3776665,25.0270214 62.8342923,24.4408333 C63.2909181,23.8546452 63.5192276,23.0147832 63.5192276,21.9212222 Z M80.1246122,26.6944444 L77.9446031,26.6944444 L75.4258088,23.2955556 L73.1868805,26.6944444 L71.0657906,26.6944444 L74.4389128,21.9212222 L71.0510608,17.1036667 L73.1868805,17.1036667 L75.6025663,20.5616667 L77.6941966,17.1036667 L79.8005568,17.1036667 L76.5747325,21.8916667 L80.1246122,26.6944444 Z M43.1528363,17.1036667 L47.0120416,17.1036667 C48.0725919,17.1036667 48.892542,17.3548864 49.4719167,17.8573333 C50.0218317,18.3203727 50.296785,18.9164038 50.296785,19.6454444 C50.296785,20.187299 50.1470337,20.6503314 49.8475264,21.0345556 C49.5480192,21.4187797 49.1282243,21.6897029 48.5881293,21.8473333 C49.1282243,21.9557042 49.5750235,22.1995351 49.9285403,22.5788333 C50.282057,22.9581315 50.4588127,23.4433304 50.4588127,24.0344444 C50.4588127,25.2166726 49.8745369,26.0245164 48.7059676,26.458 C48.2640716,26.6156304 47.7043452,26.6944444 47.0267714,26.6944444 L43.1528363,26.6944444 L43.1528363,17.1036667 Z M46.982582,25.1723333 C47.5423169,25.1723333 47.9473821,25.0590382 48.1977898,24.8324444 C48.4481975,24.6058507 48.5733995,24.3053722 48.5733995,23.931 C48.5733995,23.5566278 48.4432876,23.2536863 48.18306,23.0221667 C47.9228324,22.790647 47.5226771,22.6748889 46.982582,22.6748889 L44.8909517,22.6748889 L44.8909517,25.1723333 L46.982582,25.1723333 Z M44.8909517,21.1527778 L46.9383926,21.1527778 C47.4588479,21.1527778 47.8516384,21.0394826 48.1167759,20.8128889 C48.3819135,20.5862952 48.5144803,20.2784279 48.5144803,19.8892778 C48.5144803,19.5001277 48.3843685,19.1897975 48.1241408,18.9582778 C47.8639132,18.7267581 47.4735777,18.611 46.9531224,18.611 L44.8909517,18.611 L44.8909517,21.1527778 Z M88.7911058,17.1036667 C90.2444524,17.1036667 91.4179141,17.5371438 92.3115259,18.4041111 C93.2149576,19.2710784 93.6666667,20.4385112 93.6666667,21.9064444 C93.6666667,23.3645258 93.2149576,24.5270327 92.3115259,25.394 C91.4179141,26.2609673 90.2444524,26.6944444 88.7911058,26.6944444 L85.6831198,26.6944444 L85.6831198,17.1036667 L88.7911058,17.1036667 Z M87.435965,25.1132222 L88.7911058,25.1132222 C89.6945375,25.1132222 90.4261098,24.8078179 90.9858447,24.197 C91.5161198,23.6058859 91.7812534,22.842375 91.7812534,21.9064444 C91.7812534,20.95081 91.5161198,20.1774474 90.9858447,19.5863333 C90.4359297,18.9853674 89.7043574,18.6848889 88.7911058,18.6848889 L87.435965,18.6848889 L87.435965,25.1132222 Z" id="logo_lawboxd"></path>
                </g>
            </g>
        </g>
    </g>
</svg>