<?xml version="1.0" encoding="UTF-8"?>
<svg width="140px" height="120px" viewBox="0 0 140 120" version="1.1" xmlns="http://www.w3.org/2000/svg" xmlns:xlink="http://www.w3.org/1999/xlink">
    <!-- Generator: sketchtool 54.1 (76490) - https://sketchapp.com -->
    <title>B6F727B8-FECD-40A2-A378-936BB2C221F2</title>
    <desc>Created with sketchtool.</desc>
    <defs>
        <linearGradient x1="50%" y1="100%" x2="50%" y2="0%" id="linearGradient-1">
            <stop stop-color="#6FB9A6" offset="0%"></stop>
            <stop stop-color="#92DFCC" offset="100%"></stop>
        </linearGradient>
        <linearGradient x1="49.9985045%" y1="100%" x2="49.9985045%" y2="0%" id="linearGradient-2">
            <stop stop-color="#808080" stop-opacity="0.25" offset="0%"></stop>
            <stop stop-color="#808080" stop-opacity="0.12" offset="54%"></stop>
            <stop stop-color="#808080" stop-opacity="0.1" offset="100%"></stop>
        </linearGradient>
        <linearGradient x1="50%" y1="100%" x2="50%" y2="0%" id="linearGradient-3">
            <stop stop-color="#808080" stop-opacity="0.25" offset="0%"></stop>
            <stop stop-color="#808080" stop-opacity="0.12" offset="54%"></stop>
            <stop stop-color="#808080" stop-opacity="0.1" offset="100%"></stop>
        </linearGradient>
        <linearGradient x1="50%" y1="100.003519%" x2="50%" y2="-0.000126547723%" id="linearGradient-4">
            <stop stop-color="#808080" stop-opacity="0.25" offset="0%"></stop>
            <stop stop-color="#808080" stop-opacity="0.12" offset="54%"></stop>
            <stop stop-color="#808080" stop-opacity="0.1" offset="100%"></stop>
        </linearGradient>
        <linearGradient x1="50%" y1="0%" x2="50%" y2="98.1641599%" id="linearGradient-5">
            <stop stop-color="#4A00D2" offset="0%"></stop>
            <stop stop-color="#700CFF" offset="100%"></stop>
        </linearGradient>
        <linearGradient x1="50.0195694%" y1="100%" x2="50.0195694%" y2="1.65835455e-14%" id="linearGradient-6">
            <stop stop-color="#808080" stop-opacity="0.25" offset="0%"></stop>
            <stop stop-color="#808080" stop-opacity="0.12" offset="54%"></stop>
            <stop stop-color="#808080" stop-opacity="0.1" offset="100%"></stop>
        </linearGradient>
    </defs>
    <g id="Landing-Page" stroke="none" stroke-width="1" fill="none" fill-rule="evenodd">
        <g id="landing_page" transform="translate(-890.000000, -4362.000000)" fill-rule="nonzero">
            <g id="benefit_grp" transform="translate(0.000000, 3894.000000)">
                <g id="benefit_2" transform="translate(0.000000, 364.000000)">
                    <g id="illu_speed" transform="translate(890.000000, 104.000000)">
                        <circle id="Oval" fill="url(#linearGradient-1)" cx="70" cy="60" r="60"></circle>
                        <g id="undraw_fast_loading_0lbh">
                            <g id="Group" opacity="0.5" transform="translate(7.728238, 0.000000)" fill="url(#linearGradient-2)">
                                <rect id="Rectangle" x="0.0475583864" y="0" width="49.6881104" height="75.1972922" rx="0.668789809"></rect>
                            </g>
                            <rect id="Rectangle" fill="#F2F2F2" x="8.4118896" y="0.552024129" width="48.4144374" height="73.676622" rx="0.668789809"></rect>
                            <g id="Group" opacity="0.5" transform="translate(13.227176, 13.986595)" fill="#214694">
                                <rect id="Rectangle" x="0.0267515924" y="0.138378016" width="9.68259023" height="8.72525469" rx="0.668789809"></rect>
                            </g>
                            <rect id="Rectangle" fill="#E0E0E0" x="25.8420382" y="14.1249732" width="26.1437367" height="1" rx="0.41910828"></rect>
                            <rect id="Rectangle" fill="#E0E0E0" x="25.8420382" y="17.0323995" width="21.7326964" height="1" rx="0.41910828"></rect>
                            <g id="Group" opacity="0.5" transform="translate(13.227176, 27.675603)" fill="#214694">
                                <rect id="Rectangle" x="0.0267515924" y="0.0208310992" width="9.68259023" height="8.72525469" rx="0.668789809"></rect>
                            </g>
                            <rect id="Rectangle" fill="#E0E0E0" x="25.8420382" y="27.6964343" width="26.1437367" height="1" rx="0.41910828"></rect>
                            <rect id="Rectangle" fill="#E0E0E0" x="25.8420382" y="30.6038606" width="26.1437367" height="1" rx="0.41910828"></rect>
                            <g id="Group" opacity="0.5" transform="translate(13.227176, 41.215818)" fill="#214694">
                                <rect id="Rectangle" x="0.0267515924" y="0.052077748" width="9.68259023" height="8.72525469" rx="0.668789809"></rect>
                            </g>
                            <rect id="Rectangle" fill="#E0E0E0" x="25.8420382" y="41.2678954" width="26.1437367" height="1" rx="0.41910828"></rect>
                            <rect id="Rectangle" fill="#E0E0E0" x="25.8420382" y="44.1768097" width="2.90552017" height="1" rx="0.41910828"></rect>
                            <g id="Group" opacity="0.5" transform="translate(38.641189, 24.104558)" fill="url(#linearGradient-3)">
                                <rect id="Rectangle" x="0.0535031847" y="0.107131367" width="48.9435244" height="44.2006166" rx="0.668789809"></rect>
                            </g>
                            <rect id="Rectangle" fill="#FFFFFF" x="39.4511677" y="24.6550938" width="47.5138004" height="42.8123727" rx="0.668789809"></rect>
                            <g id="Group" opacity="0.5" transform="translate(43.991507, 33.776139)" fill="#214694">
                                <rect id="Rectangle" x="0.124840764" y="0.0773726542" width="10.2087049" height="9.19841823" rx="0.668789809"></rect>
                            </g>
                            <rect id="Rectangle" fill="#E0E0E0" x="57.3881104" y="33.8535121" width="27.5630573" height="1.0222118" rx="0.442887473"></rect>
                            <rect id="Rectangle" fill="#E0E0E0" x="57.3881104" y="36.9201475" width="27.5630573" height="1.0222118" rx="0.442887473"></rect>
                            <rect id="Rectangle" fill="#E0E0E0" x="43.0953291" y="48.0484182" width="41.8558386" height="1.0222118" rx="0.442887473"></rect>
                            <rect id="Rectangle" fill="#E0E0E0" x="43.0953291" y="51.1150536" width="41.8558386" height="1.0222118" rx="0.442887473"></rect>
                            <rect id="Rectangle" fill="#E0E0E0" x="43.0953291" y="55.2024129" width="41.8558386" height="1.0222118" rx="0.442887473"></rect>
                            <rect id="Rectangle" fill="#E0E0E0" x="43.0953291" y="58.2690483" width="31.6471338" height="1.0222118" rx="0.442887473"></rect>
                            <g id="Group" opacity="0.5" transform="translate(0.000000, 38.091153)" fill="url(#linearGradient-4)">
                                <path d="M88.8212314,2.66042895 L88.8212314,2.66042895 L88.9951168,1.88372654 L88.75138,2.64257373 C82.4124377,0.928471526 75.8779145,0.0461807032 69.3118896,0.0178552279 C22.0031847,-0.261876676 0,41.5982172 0,41.5982172 L44.8326964,65.2802011 C44.8326964,65.2802011 50.3316348,48.2076273 69.8617834,48.7641153 C71.2051717,48.8007548 72.5451564,48.9180162 73.8745223,49.1152681 L67.9326964,67.6445308 C67.2413099,68.6297046 67.1401069,69.9134741 67.6685672,70.9950364 C68.1970275,72.0765988 69.2714328,72.7846136 70.4726538,72.842882 C71.6738748,72.9011504 72.8116151,72.3004415 73.4420382,71.2750938 L73.4420382,71.2750938 L73.4420382,71.2661662 C73.7504202,70.7643749 73.9182822,70.1887633 73.9280255,69.5996783 C73.9280255,69.4999866 73.9280255,69.4002949 73.9176221,69.3020912 L78.2127389,50.0868901 C91.0089172,54.0269437 94.8864119,65.2787131 94.8864119,65.2787131 L140,42.6992895 C140,42.6992895 123.057325,11.9689544 88.8212314,2.66042895 Z" id="Path"></path>
                            </g>
                            <path d="M69.3208068,38.573244 C22.6154989,38.3009517 0.891719745,79.6239008 0.891719745,79.6239008 L45.1537155,103.000858 C45.1537155,103.000858 50.5842887,86.1455228 69.8647558,86.6886193 C71.2227909,86.7253915 72.5772877,86.8456448 73.9205945,87.0486997 L88.5774947,41.1830831 C82.2991709,39.4789492 75.8257162,38.6016085 69.3208068,38.573244 L69.3208068,38.573244 Z" id="Path" fill="url(#linearGradient-5)"></path>
                            <path d="M88.5774947,41.1830831 L73.9205945,87.0531635 C89.9150743,89.4859383 94.57431,103.000858 94.57431,103.000858 L139.10828,80.7115818 C139.10828,80.7115818 122.375159,50.3725737 88.5774947,41.1830831 Z" id="Path" fill="#E0E0E0"></path>
                            <path d="M73.8730361,106.975134 L88.7528662,40.4153083 L67.9579618,105.338405 C67.2641595,106.310662 67.156935,107.584921 67.6784876,108.659685 C68.2000401,109.734449 69.2668659,110.437643 70.4591062,110.492518 C71.6513466,110.547393 72.7781166,109.945163 73.395966,108.922842 L73.395966,108.922842 L73.395966,108.913914 C73.7003111,108.418853 73.8661123,107.850976 73.8760085,107.269745 C73.8849257,107.167078 73.8804671,107.07185 73.8730361,106.975134 Z" id="Path" fill="#535461"></path>
                            <g id="Group" opacity="0.7" transform="translate(64.352442, 8.630027)" fill="url(#linearGradient-6)">
                                <path d="M14.8991507,29.8643566 L14.5097665,29.7914477 L15.2781316,26.96437 C16.4878981,17.8879625 11.9178344,16.9669303 10.2042463,16.9356836 C10.0071702,16.8635035 9.80622015,16.8024029 9.60233546,16.7526676 L9.60233546,15.6813539 C11.8060103,15.1369724 13.47444,13.3314424 13.8454352,11.0895845 L13.8602972,11.0895845 C14.1322718,11.0895845 14.3537155,10.6744504 14.3537155,10.1626005 C14.3643583,9.89128012 14.2889202,9.62355283 14.1382166,9.39780161 C14.1580326,9.19941019 14.1679406,9.00101877 14.1679406,8.80262735 C14.168929,7.18369794 13.5065377,5.63523704 12.3354565,4.51886059 C12.2563271,4.12305087 12.1148593,3.74234941 11.9163482,3.39100536 C11.4957537,2.64703753 10.7957537,1.87628686 11.081104,1.07131367 L9.23375796,1.26176944 L9.21592357,0.043150134 C8.63927813,0.14730563 8.3970276,0.81538874 8.0552017,1.29152815 C7.23184713,2.43723861 5.58067941,2.59644772 4.48832272,3.48920912 C4.11677282,3.78679625 3.28152866,4.7152681 3.44055202,5.32085791 C2.70686444,6.33135714 2.31241861,7.54889898 2.31401274,8.79816354 C2.31401274,8.99655496 2.32392074,9.19494638 2.34373673,9.3933378 C2.19303305,9.61908902 2.11759499,9.88681631 2.12823779,10.1581367 C2.12823779,10.6699866 2.34968153,11.0851206 2.62165605,11.0851206 L2.63651805,11.0851206 C3.00751331,13.3269786 4.67594295,15.1325086 6.87961783,15.6768901 L6.87961783,16.7482038 C6.67573314,16.7979391 6.47478308,16.8590397 6.27770701,16.9312198 C4.5641189,16.9624665 -0.0059447983,17.8775469 1.20382166,26.9599062 L1.97218684,29.7869839 L1.78938429,29.8212064 C1.24030216,29.9237883 0.754416473,30.2405564 0.438626837,30.7018185 C0.122837201,31.1630807 0.00301423631,31.7310487 0.10552017,32.2807641 L3.1418259,48.5275335 C3.20644687,48.8737848 3.53900265,49.1021845 3.88492569,49.0378954 L4.41847134,48.9382038 L4.41847134,49.2536461 C3.81448163,49.5524058 3.43202,50.1682886 3.43163482,50.8427614 L3.43163482,51.0436327 L7.0104034,51.0436327 L7.0104034,50.8427614 C7.01014422,50.2186088 6.68221682,49.6405338 6.14692144,49.3206032 L6.14692144,48.6138338 L6.6343949,48.5230697 C6.98024217,48.4583733 7.20837543,48.125429 7.14416136,47.7791019 L4.29957537,32.5158579 L12.1868365,32.5158579 L9.34522293,47.7805898 C9.28100885,48.1269169 9.50914212,48.4598612 9.85498938,48.5245576 L10.3424628,48.6153217 L10.3424628,49.3220912 C9.80716747,49.6420217 9.47924006,50.2200967 9.47898089,50.8442493 L9.47898089,51.0451206 L13.0577495,51.0451206 L13.0577495,50.8442493 C13.0573643,50.1697765 12.6749027,49.5538937 12.070913,49.255134 L12.070913,48.9396917 L12.6044586,49.0393834 C12.9503816,49.1036725 13.2829374,48.8752727 13.3475584,48.5290214 L16.4150743,32.0784048 C16.5075736,31.583515 16.3997851,31.0721098 16.1154501,30.6568307 C15.8311151,30.2415516 15.3935567,29.9564624 14.8991507,29.8643566 Z" id="Path"></path>
                            </g>
                            <rect id="Rectangle" fill="#FDB797" x="68.9180467" y="55.5" width="1.66157113" height="2.25868633"></rect>
                            <rect id="Rectangle" fill="#FDB797" x="74.6161359" y="55.5" width="1.66157113" height="2.25868633"></rect>
                            <rect id="Rectangle" fill="#4D8AF0" x="67.1375796" y="36.9603217" width="10.9220807" height="3.92219839"></rect>
                            <g id="Group" opacity="0.05" transform="translate(67.027601, 36.900804)" fill="#000000">
                                <rect id="Rectangle" x="0.109978769" y="0.0595174263" width="10.9220807" height="3.92219839"></rect>
                            </g>
                            <path d="M67.1375796,37.6730429 C67.1375796,37.6730429 71.2127389,38.6238338 72.5978769,38.6238338 C73.9830149,38.6238338 78.0581741,37.6730429 78.0581741,37.6730429 L78.0581741,37.0778686 L67.1375796,37.0778686 L67.1375796,37.6730429 Z" id="Path" fill="#000000" opacity="0.1"></path>
                            <path d="M78.0581741,37.554008 C78.0581741,37.554008 73.9830149,38.5047989 72.5978769,38.5047989 C71.2127389,38.5047989 67.1375796,37.554008 67.1375796,37.554008 L67.1375796,31.0175067 C67.1375796,27.9983451 69.582238,25.5508311 72.5978769,25.5508311 L72.5978769,25.5508311 C75.6135158,25.5508311 78.0581741,27.9983451 78.0581741,31.0175067 L78.0581741,37.554008 Z" id="Path" fill="#F55F44"></path>
                            <path d="M71.2929936,22.8160054 L73.9042463,22.8160054 L73.9042463,25.9615013 C73.9042463,26.5868639 73.3978813,27.0938204 72.7732484,27.0938204 L72.4254777,27.0938204 C71.8008448,27.0938204 71.2944798,26.5868639 71.2944798,25.9615013 L71.2944798,22.8160054 L71.2929936,22.8160054 Z" id="Path" fill="#FDB797"></path>
                            <path d="M70.8917197,56.3124129 L68.5509554,56.749866 C68.1355766,56.8250231 67.7374181,56.5506372 67.6592357,56.1353485 L64.8681529,41.1607641 C64.7443597,40.4987553 64.8884249,39.8146295 65.2686313,39.2590026 C65.6488377,38.7033756 66.2340141,38.3218005 66.8953291,38.1982842 L67.4987261,38.0852011 C67.9141049,38.0100439 68.3122634,38.2844298 68.3904459,38.6997185 L71.511465,55.4136997 C71.5491405,55.6152509 71.5048832,55.8235202 71.3885205,55.9922617 C71.2721577,56.1610032 71.0933206,56.2762505 70.8917197,56.3124129 L70.8917197,56.3124129 Z" id="Path" fill="#4D8AF0"></path>
                            <path d="M74.2980892,56.3124129 L76.6388535,56.749866 C77.0542323,56.8250231 77.4523908,56.5506372 77.5305732,56.1353485 L80.3692144,40.9107909 C80.5998572,39.6704255 79.7829362,38.4775797 78.5441614,38.2458981 L77.6910828,38.086689 C77.275704,38.0115318 76.8775455,38.2859177 76.7993631,38.7012064 L73.6783439,55.4151877 C73.6411065,55.6165143 73.6855724,55.8243967 73.8018947,55.9928003 C73.918217,56.1612038 74.0967971,56.2762322 74.2980892,56.3124129 L74.2980892,56.3124129 Z" id="Path" fill="#4D8AF0"></path>
                            <path d="M71.2929936,24.7979357 C72.1506223,25.0091957 73.0466176,25.0091957 73.9042463,24.7979357 L73.9042463,22.9350402 L71.2929936,22.9350402 L71.2929936,24.7979357 Z" id="Path" fill="#000000" opacity="0.1"></path>
                            <ellipse id="Oval" fill="#333333" cx="72.5978769" cy="18.0620509" rx="5.69808917" ry="5.70474531"></ellipse>
                            <ellipse id="Oval" fill="#FDB797" cx="72.5978769" cy="19.3699464" rx="5.46029724" ry="5.4666756"></ellipse>
                            <path d="M68.9923567,12.9539678 C70.0430998,12.095429 71.6318471,11.9421716 72.4225053,10.8396113 C72.7509554,10.3813271 72.9842887,9.73705094 73.5386412,9.63735925 L73.5549894,10.8098525 L75.3384289,10.6268365 C75.063482,11.400563 75.7367304,12.1445308 76.1424628,12.8587399 C76.4406358,13.3865078 76.6035233,13.9800291 76.6165605,14.5862332 C75.9997877,14.9567292 75.2343949,14.5520107 74.5477707,14.3362601 C73.8611465,14.1205094 73.1700637,14.1041421 72.4670913,14.0847989 C72.1083326,14.0598183 71.747862,14.0798123 71.3940552,14.1443164 C71.0878547,14.2265736 70.789467,14.3356123 70.5023355,14.4701743 C70.029724,14.6680697 68.5360934,15.4165013 68.0976645,14.9344102 C67.6042463,14.3883378 68.5866242,13.2857775 68.9923567,12.9539678 Z" id="Path" fill="#333333"></path>
                            <path d="M69.2895966,16.627681 C69.5880572,16.7915801 69.9167609,16.8928378 70.2556263,16.9252681 C71.6544911,17.1168024 73.078977,16.9567504 74.4006369,16.4595442 C74.6176221,17.0085925 75.1437367,17.3865282 75.7070064,17.5650804 C76.270276,17.7436327 76.8677282,17.7525603 77.4577495,17.7614879 C77.5874094,17.7761258 77.718463,17.7512329 77.833758,17.690067 C78.0968153,17.5130027 77.9690021,17.1053083 77.8159236,16.8285523 L77.0549894,15.447748 C76.8305732,15.0400536 76.5987261,14.6234316 76.2509554,14.315429 C75.8140127,13.9285657 75.2343949,13.7470375 74.6636943,13.6324665 C73.3129869,13.3631913 71.9184377,13.4095269 70.588535,13.7678686 C69.166242,14.1443164 67.3397028,15.4462601 69.2895966,16.627681 Z" id="Path" fill="#000000" opacity="0.1"></path>
                            <path d="M69.2895966,16.5086461 C69.5880572,16.6725452 69.9167609,16.773803 70.2556263,16.8062332 C71.6544911,16.9977675 73.078977,16.8377156 74.4006369,16.3405094 C74.6176221,16.8895576 75.1437367,17.2674933 75.7070064,17.4460456 C76.270276,17.6245979 76.8677282,17.6335255 77.4577495,17.6424531 C77.5874094,17.657091 77.718463,17.632198 77.833758,17.5710322 C78.0968153,17.3939678 77.9690021,16.9862735 77.8159236,16.7095174 L77.0549894,15.3287131 C76.8305732,14.9210188 76.5987261,14.5043968 76.2509554,14.1963941 C75.8140127,13.8095308 75.2343949,13.6280027 74.6636943,13.5134316 C73.3129869,13.2441565 71.9184377,13.2904921 70.588535,13.6488338 C69.166242,14.0223056 67.3397028,15.3287131 69.2895966,16.5086461 Z" id="Path" fill="#333333"></path>
                            <ellipse id="Oval" fill="#FDB797" cx="78.0002123" cy="19.3699464" rx="1" ry="1"></ellipse>
                            <ellipse id="Oval" fill="#FDB797" cx="67.1970276" cy="19.3699464" rx="1" ry="1"></ellipse>
                            <path d="M71.3138004,25.9138874 C71.3138004,25.9138874 64.4059448,24.836622 65.8312102,35.5333914 L66.6619958,38.6000268 L69.0399151,38.5047989 C69.0399151,38.5047989 67.4972399,34.9337534 68.4454352,32.5619839 C69.3936306,30.1902145 71.3138004,25.9138874 71.3138004,25.9138874 Z" id="Path" fill="#F55F44"></path>
                            <path d="M73.8819533,25.9138874 C73.8819533,25.9138874 80.7898089,24.836622 79.3645435,35.5333914 L78.533758,38.6000268 L76.1558386,38.5047989 C76.1558386,38.5047989 77.6985138,34.9337534 76.7503185,32.5619839 C75.8021231,30.1902145 73.8819533,25.9138874 73.8819533,25.9138874 Z" id="Path" fill="#F55F44"></path>
                            <ellipse id="Oval" fill="#FDB797" cx="67.9683652" cy="38.9794504" rx="1.30636943" ry="1.30789544"></ellipse>
                            <ellipse id="Oval" fill="#FDB797" cx="77.4651805" cy="38.9794504" rx="1.30636943" ry="1.30789544"></ellipse>
                            <path d="M69.4605096,56.8078954 L69.9197452,56.8078954 C70.7405506,56.8078954 71.4059448,57.4740669 71.4059448,58.2958311 L71.4059448,58.7035255 L67.9683652,58.7035255 L67.9683652,58.2958311 C67.968362,57.9001727 68.1257591,57.5208056 68.4057627,57.2415918 C68.6857662,56.9623781 69.0653159,56.8063128 69.4605096,56.8078954 Z" id="Path" fill="#333333"></path>
                            <path d="M75.2774947,56.8078954 L75.7367304,56.8078954 C76.5575357,56.8078954 77.2229299,57.4740669 77.2229299,58.2958311 L77.2229299,58.7035255 L73.7853503,58.7035255 L73.7853503,58.2958311 C73.7853472,57.9001727 73.9427442,57.5208056 74.2227478,57.2415918 C74.5027514,56.9623781 74.8823011,56.8063128 75.2774947,56.8078954 L75.2774947,56.8078954 Z" id="Path" fill="#333333"></path>
                            <path d="M68.3250531,31.611193 C68.3250531,31.611193 67.8494692,34.1064611 68.681741,35.1822386" id="Path" fill="#000000" opacity="0.1"></path>
                            <path d="M76.8721868,31.611193 C76.8721868,31.611193 77.3477707,34.1064611 76.5154989,35.1822386" id="Path" fill="#000000" opacity="0.1"></path>
                        </g>
                    </g>
                </g>
            </g>
        </g>
    </g>
</svg>