<?xml version="1.0" encoding="UTF-8"?>
<svg width="140px" height="120px" viewBox="0 0 140 120" version="1.1" xmlns="http://www.w3.org/2000/svg" xmlns:xlink="http://www.w3.org/1999/xlink">
    <!-- Generator: sketchtool 54.1 (76490) - https://sketchapp.com -->
    <title>2F62F99C-B44F-468E-AB89-D428C65B8769</title>
    <desc>Created with sketchtool.</desc>
    <defs>
        <linearGradient x1="50%" y1="100%" x2="50%" y2="0%" id="linearGradient-1">
            <stop stop-color="#6FB9A6" offset="0%"></stop>
            <stop stop-color="#92DFCC" offset="100%"></stop>
        </linearGradient>
        <linearGradient x1="50%" y1="0%" x2="50%" y2="98.1641599%" id="linearGradient-2">
            <stop stop-color="#4A00D2" offset="0%"></stop>
            <stop stop-color="#700CFF" offset="100%"></stop>
        </linearGradient>
        <linearGradient x1="50%" y1="0%" x2="50%" y2="98.1641599%" id="linearGradient-3">
            <stop stop-color="#4A00D2" offset="0%"></stop>
            <stop stop-color="#700CFF" offset="100%"></stop>
        </linearGradient>
        <linearGradient x1="50%" y1="0%" x2="50%" y2="98.1641599%" id="linearGradient-4">
            <stop stop-color="#4A00D2" offset="0%"></stop>
            <stop stop-color="#700CFF" offset="100%"></stop>
        </linearGradient>
        <linearGradient x1="50%" y1="0%" x2="50%" y2="98.1641599%" id="linearGradient-5">
            <stop stop-color="#4A00D2" offset="0%"></stop>
            <stop stop-color="#700CFF" offset="100%"></stop>
        </linearGradient>
        <linearGradient x1="50%" y1="0%" x2="50%" y2="98.1641599%" id="linearGradient-6">
            <stop stop-color="#4A00D2" offset="0%"></stop>
            <stop stop-color="#700CFF" offset="100%"></stop>
        </linearGradient>
    </defs>
    <g id="Landing-Page" stroke="none" stroke-width="1" fill="none" fill-rule="evenodd">
        <g id="landing_page" transform="translate(-410.000000, -4759.000000)" fill-rule="nonzero">
            <g id="benefit_grp" transform="translate(0.000000, 3894.000000)">
                <g id="benefit_3" transform="translate(0.000000, 761.000000)">
                    <g id="illu_goal" transform="translate(410.000000, 104.000000)">
                        <circle id="Oval" fill="url(#linearGradient-1)" cx="70" cy="60" r="60"></circle>
                        <g id="undraw_finish_line_katerina_limpitsouni_xy20" transform="translate(0.000000, 10.000000)">
                            <ellipse id="Oval" fill="url(#linearGradient-2)" cx="21.7769301" cy="91.2110505" rx="9.30917348" ry="1.78641201"></ellipse>
                            <ellipse id="Oval" fill="#3F3D56" cx="21.6205268" cy="90.4523329" rx="1.08337875" ry="1.41593452"></ellipse>
                            <ellipse id="Oval" fill="#3F3D56" cx="21.6205268" cy="88.7217462" rx="1.08337875" ry="1.41593452"></ellipse>
                            <ellipse id="Oval" fill="#3F3D56" cx="21.6205268" cy="86.9911596" rx="1.08337875" ry="1.41593452"></ellipse>
                            <ellipse id="Oval" fill="#3F3D56" cx="21.6205268" cy="85.2618417" rx="1.08337875" ry="1.41593452"></ellipse>
                            <ellipse id="Oval" fill="#3F3D56" cx="21.6205268" cy="83.5312551" rx="1.08337875" ry="1.41593452"></ellipse>
                            <ellipse id="Oval" fill="#3F3D56" cx="21.6205268" cy="81.8006685" rx="1.08337875" ry="1.41593452"></ellipse>
                            <ellipse id="Oval" fill="#3F3D56" cx="21.6205268" cy="80.0700819" rx="1.08337875" ry="1.41593452"></ellipse>
                            <path d="M25.6781108,68.2287585 C25.8265867,68.0409102 25.9617035,67.842923 26.0824705,67.6362483 L23.2341508,67.1693452 L26.3138965,67.1921828 C26.9114924,65.8959216 26.9473693,64.411241 26.413079,63.087749 L22.2817439,65.2268759 L26.0964578,62.4356071 C25.1224881,60.7595641 23.2926095,59.7658785 21.3531932,59.8598551 C19.4137769,59.9538317 17.6890094,61.1197615 16.8823891,62.882085 C16.0757688,64.6444085 16.3221277,66.7085413 17.5209809,68.2325648 C17.290257,68.5256615 17.09161,68.8425385 16.9284287,69.1777899 L20.626158,71.0936153 L16.684287,69.7741064 C16.120903,71.4324335 16.4356837,73.2625241 17.5209809,74.6385266 C15.8465951,76.7621841 16.0893246,79.8132703 18.0785216,81.6467591 C20.0677187,83.4802478 23.1351877,83.4802478 25.1243848,81.6467591 C27.1135819,79.8132703 27.3563114,76.7621841 25.6819255,74.6385266 C27.1637015,72.7591344 27.1637015,70.111957 25.6819255,68.2325648 L25.6781108,68.2287585 Z" id="Path" fill="url(#linearGradient-3)"></path>
                            <path d="M16.4108992,71.4298363 C16.4093623,72.5917015 16.8009533,73.7200646 17.5222525,74.6321828 C15.8478666,76.7558403 16.0905961,79.8069265 18.0797932,81.6404153 C20.0689903,83.473904 23.1364593,83.473904 25.1256564,81.6404153 C27.1148535,79.8069265 27.357583,76.7558403 25.6831971,74.6321828 C26.3749319,73.7529332 16.4108992,70.8500136 16.4108992,71.4298363 Z" id="Path" fill="url(#linearGradient-4)" opacity="0.1"></path>
                            <path d="M66.8782925,69.6535744 C66.9571299,70.6685812 67.3487738,71.7191132 68.172752,72.3179673 C68.9967302,72.9168213 70.3077203,72.9054025 70.937148,72.1010095 C71.1485127,71.7990169 71.3039781,71.4617028 71.3961853,71.1050341 C71.9264305,69.4328104 72.3028156,67.6032606 71.7217075,65.9475307 C70.4107175,65.8625239 68.8911898,65.247176 67.9069936,66.3281583 C67.1122616,67.2086767 66.7867393,68.4799727 66.8782925,69.6535744 Z" id="Path" fill="#3F3D56"></path>
                            <path d="M72.9640327,59.4235744 C72.7898274,60.8991405 72.4935513,62.3683629 72.524069,63.8540791 C72.5355132,64.427558 72.5965486,64.9959618 72.5978202,65.5719782 C72.6000368,67.0676502 72.2051761,68.5372226 71.453406,69.8312005 C71.3742395,69.983324 71.268282,70.1199905 71.1405995,70.2346658 C70.8392371,70.4782674 70.3852861,70.4579673 70.0470481,70.2714598 C69.7165882,70.0663391 69.4480782,69.7756217 69.2701181,69.4302729 C68.3227975,67.811337 68.2960945,65.8434925 67.9209809,64.0075989 C67.6336058,62.6030832 67.1300636,61.2417053 66.9482289,59.8206958 C66.8299728,58.9059209 66.8477748,57.9733834 66.6595822,57.0700273 C66.6023615,56.7972442 66.4421435,56.3874352 66.3366031,55.9852387 C66.2399637,55.6261801 66.1865577,55.2734652 66.2857402,55.0311323 C66.4879201,54.5350477 67.1504087,54.727899 67.5814714,54.7583492 C69.0994885,54.8706384 70.623893,54.866821 72.1413261,54.7469304 C72.2913715,54.7355116 72.461762,54.7291678 72.5673025,54.8357435 C72.6133407,54.8895649 72.6479483,54.9521524 72.6690282,55.0197135 C72.7898483,55.349578 72.8821619,55.6891519 72.9449591,56.0347203 C73.1547684,57.139809 73.0962761,58.2981855 72.9640327,59.4235744 Z" id="Path" fill="#FABDBD"></path>
                            <g id="Group" opacity="0.1" transform="translate(66.121708, 54.683492)" fill="#000000">
                                <path d="M6.25740236,0.0634379263 C6.1792066,0.0551909808 6.10035743,0.0551909808 6.02216167,0.0634379263 C5.29482289,0.121800819 4.56621253,0.150982265 3.83887375,0.15478854 C4.64504995,0.156480218 5.45122616,0.126030014 6.25740236,0.0634379263 Z" id="Path"></path>
                                <path d="M4.182198,15.5879673 C3.85173805,15.3828466 3.58322806,15.0921292 3.40526794,14.7467804 C2.45794732,13.1278445 2.43124432,11.16 2.05613079,9.32410641 C1.76875568,7.91959072 1.26521344,6.55821282 1.08337875,5.13720327 C0.965122616,4.22242838 0.982924614,3.28989086 0.794732062,2.38653479 C0.737511353,2.11375171 0.57729337,1.7039427 0.471752952,1.30174625 C0.375113533,0.942687585 0.321707539,0.589972715 0.4208901,0.347639836 C0.507039603,0.144384435 0.708380378,0.0138024248 0.929518619,0.0177626194 C0.607811081,-0.00380627558 0.29373297,0.0342564802 0.16657584,0.347639836 C0.0673932788,0.589972715 0.120799273,0.942687585 0.217438692,1.30174625 C0.32297911,1.7039427 0.483197094,2.11375171 0.540417802,2.38653479 C0.728610354,3.28989086 0.710808356,4.22242838 0.829064487,5.13720327 C1.01089918,6.55948158 1.51444142,7.92085948 1.80181653,9.32410641 C2.17693006,11.16 2.20363306,13.130382 3.15095368,14.7467804 C3.3289138,15.0921292 3.59742379,15.3828466 3.92788374,15.5879673 C4.13086612,15.7000255 4.36351344,15.7469836 4.5941871,15.7224557 C4.44967309,15.703568 4.30995568,15.6579591 4.182198,15.5879673 Z" id="Path"></path>
                            </g>
                            <path d="M77.7718438,67.2048704 C77.008901,68.7273806 77.1360581,70.8842701 77.1360581,70.8842701 C77.2632153,75.9593042 75.2287012,86.6168759 75.2287012,86.6168759 L73.4485014,86.6168759 C73.4485014,86.6168759 73.1941871,74.8174216 73.4485014,73.8024147 C73.7028156,72.7874079 73.3213442,69.234884 72.9398728,64.2867258 C72.6563124,60.6073261 73.4281562,57.2730286 73.8426885,55.8101501 C73.9851045,55.3026467 74.084287,55.0247885 74.084287,55.0247885 C74.084287,55.0247885 77.008901,50.7110095 78.6619437,52.7410232 C79.0434151,53.2130014 79.2455949,54.165839 79.3155313,55.3686221 C79.541871,59.3372988 78.3567666,66.0363438 77.7718438,67.2048704 Z" id="Path" fill="#FABDBD"></path>
                            <path d="M79.3155313,55.3686221 C79.2455949,54.165839 79.0459582,53.2117326 78.6619437,52.7410232 C78.293188,52.2893452 77.8608538,52.1523192 77.4132607,52.2119509 C77.7601675,52.269392 78.071125,52.4591023 78.2804723,52.7410232 C78.6619437,53.2130014 78.8641235,54.165839 78.9340599,55.3686221 C79.1603996,59.3372988 77.9752952,66.0363438 77.3903724,67.2048704 C76.6274296,68.7273806 76.7545867,70.8842701 76.7545867,70.8842701 C76.8817439,75.9593042 74.8472298,86.6168759 74.8472298,86.6168759 L75.2287012,86.6168759 C75.2287012,86.6168759 77.2632153,75.9593042 77.1360581,70.8842701 C77.1360581,70.8842701 77.008901,68.7273806 77.7718438,67.2048704 C78.3567666,66.0363438 79.541871,59.3372988 79.3155313,55.3686221 Z" id="Path" fill="#000000" opacity="0.1"></path>
                            <path d="M72.5227975,86.153779 C72.380716,86.2650217 72.2578651,86.3987445 72.1591281,86.5496317 C71.9315168,86.978472 72.2544959,87.4910505 72.6003633,87.8323465 C72.9462307,88.1736426 73.3633061,88.539045 73.3633061,89.0249795 C73.3633061,89.4157572 73.06703,89.7507094 72.7351499,89.9587858 C72.5571299,90.0704366 72.3333333,90.2125375 72.3702089,90.4231514 C72.3831337,90.476416 72.4059965,90.5267752 72.4376022,90.5715962 C72.7224342,91.0067804 73.227248,91.2618008 73.7384196,91.3582265 C74.2495913,91.4546521 74.7772934,91.4127831 75.297366,91.3709141 C75.3752584,91.3736823 75.4513998,91.3474535 75.51099,91.2973261 C75.5486704,91.2467413 75.5687626,91.1852616 75.5682107,91.1222374 C75.5936421,90.8532606 75.5771117,90.5690587 75.6953678,90.3267258 C75.8606721,89.9955798 76.2408719,89.8268349 76.4583106,89.5299454 C76.7634877,89.1239427 76.7215259,88.5593452 76.6058129,88.0657981 C76.3514986,86.9911596 75.7856494,85.7655389 74.9362398,85.0207776 C73.9520436,84.1656344 73.1801998,85.5358936 72.5227975,86.153779 Z" id="Path" fill="#3F3D56"></path>
                            <path d="M76.3756585,22.2020055 C77.0851953,21.1438608 76.9008174,19.6644884 76.1760218,18.6114188 C75.4512262,17.5583492 74.2864668,16.8960573 73.084832,16.4684857 C71.4648501,15.8924693 69.6782925,15.6958117 68.0138056,16.1284584 C66.6888283,16.472292 65.4986376,17.191678 64.2499546,17.7473943 C62.0408344,18.730873 59.6388741,19.2077745 57.2207084,19.1430286 C54.5364214,19.0681719 51.595277,18.3817735 49.3433243,19.8459209 C45.2208901,22.5217326 47.0544959,29.8044065 43.1545867,32.7872578 C42.1029973,33.5916508 40.7792916,33.9430969 39.609446,34.5635198 C38.4396004,35.1839427 37.3307902,36.2636562 37.3587648,37.5857026 C37.3714805,38.2200819 37.6512262,38.8252797 37.9945504,39.3619645 C39.4568574,41.6749113 42.1907357,43.1060709 44.9284287,43.079427 C47.6661217,43.0527831 50.337693,41.6000546 51.915713,39.364502 C52.3111717,38.8049795 52.6595822,38.1820191 53.2330609,37.8090041 C54.377475,37.0604366 55.8855586,37.5844338 57.2512262,37.6960846 C60.2915531,37.9434925 63.3331517,35.6660709 63.9384196,32.6781446 C64.1927339,31.4030423 64.1482289,29.8792633 65.1769301,29.0786767 C66.0072661,28.4328786 67.1758401,28.5711733 68.2287012,28.4607913 C70.1538601,28.2615962 71.6733878,27.0651569 72.7186194,25.5020464 C73.1980018,24.7851978 73.253951,23.9287858 73.9075386,23.3641883 C74.6119891,22.7437653 75.7017257,23.2017872 76.3756585,22.2020055 Z" id="Path" fill="#3F3D56"></path>
                            <g id="Group" opacity="0.1" transform="translate(44.250681, 15.859482)" fill="#000000">
                                <path d="M10.4268847,3.52841746 C11.5419301,3.55894325 12.6571396,3.47390369 13.7545867,3.27466576 C13.4519528,3.28354707 13.1467757,3.28354707 12.8428701,3.27466576 C10.7358765,3.21630286 8.47120799,2.78238745 6.50535876,3.30511596 C7.80236149,3.31780355 9.14386921,3.49289222 10.4268847,3.52841746 Z" id="Path"></path>
                                <path d="M6.43669391,22.2020055 C5.86321526,22.5750205 5.51480472,23.1979809 5.11934605,23.7575034 C3.90383334,25.4598601 2.12736311,26.6818219 0.100454133,27.2097954 C0.249227975,27.2161392 0.398001817,27.2199454 0.54804723,27.2186767 C3.28828338,27.1920327 5.95731153,25.7393042 7.53533152,23.5037517 C7.93079019,22.9442292 8.27920073,22.3212688 8.85267938,21.9482538 L8.95186194,21.8873533 C8.05413261,21.7642838 7.1729337,21.721146 6.43669391,22.2020055 Z" id="Path"></path>
                                <path d="M31.7969119,2.74813097 C31.0733878,1.70013643 29.9073569,1.03276944 28.7057221,0.605197817 C27.0857402,0.0291814461 25.2991826,-0.167476126 23.6346957,0.265170532 C23.5965486,0.274051842 23.559673,0.285470668 23.5227975,0.295620737 C24.4676509,0.348196149 25.399771,0.537969047 26.2897366,0.858949523 C27.4913715,1.28652115 28.6574024,1.95388813 29.3809264,3.00188267 C30.1044505,4.04987722 30.2900999,5.53939973 29.5805631,6.5924693 C28.9066303,7.5960573 27.8168937,7.13803547 27.1035422,7.75592087 C26.4499546,8.32051842 26.3940054,9.17693042 25.9146231,9.89377899 C25.0156222,11.2348568 23.764396,12.3044202 22.2067212,12.7104229 C22.7420527,12.646985 23.3066303,12.6545975 23.8406903,12.5987722 C25.7658492,12.3995771 27.2853769,11.2031378 28.3306085,9.64002729 C28.8099909,8.92317872 28.8659401,8.06676671 29.5195277,7.50216917 C30.2328792,6.88428377 31.3226158,7.34230559 31.9965486,6.3387176 C32.7073569,5.28057299 32.5229791,3.79612551 31.7969119,2.74813097 Z" id="Path"></path>
                                <path d="M21.4259764,12.8525239 C20.3794732,12.9616371 19.2108992,12.8246112 18.3742053,13.4704093 C17.3455041,14.2709959 17.3950954,15.7947749 17.1356948,17.0698772 C16.6893733,19.2990859 14.8761126,21.1375171 12.7233424,21.8213779 L12.8746594,21.8353342 C15.9149864,22.0827422 18.9565849,19.8053206 19.5618529,16.8173943 C19.8161671,15.542292 19.7716621,14.018513 20.8003633,13.2179263 C21.0366303,13.0416163 21.3047331,12.9123845 21.5900091,12.8372988 C21.5327884,12.8385675 21.480654,12.8474488 21.4259764,12.8525239 Z" id="Path"></path>
                            </g>
                            <path d="M96.4003633,17.6598499 C96.4003633,17.6598499 93.3485922,23.7498909 92.3313351,26.0336562 C91.3140781,28.3174216 82.0316076,31.7430696 80.7600363,31.8699454 C80.4189497,31.9166002 80.1012714,32.0693167 79.8521344,32.3063984 C79.1336966,32.9407776 78.7255223,34.0268349 78.7255223,34.0268349 C78.7255223,34.0268349 79.2341508,37.4524829 78.5983651,43.1618963 C78.5856494,43.2722783 78.5742053,43.3826603 78.5640327,43.489236 C78.0096276,48.92206 79.1705722,50.2035061 79.1705722,50.2035061 C79.1705722,50.2035061 66.8363306,54.8979127 67.217802,48.8078718 C67.3373297,46.8907776 67.3195277,45.4900682 67.2012716,44.3190041 C67.0718418,43.1201698 66.8274279,41.9364923 66.4713896,40.7842428 C66.1700272,39.732442 65.8101726,38.5791405 65.4376022,37.0084175 C65.2582624,36.2247152 65.0219732,35.4550816 64.7306085,34.7056207 C64.7217075,34.6827831 64.7128065,34.6599454 64.7051771,34.6383765 C64.0693915,33.0638472 63.4336058,32.555075 63.0699364,32.3901364 C62.7265538,32.2411009 62.3993321,32.0574459 62.0933697,31.8420327 C60.9184378,30.9957708 58.3969119,29.0989768 56.151317,26.8583492 C53.0995459,23.8133288 50.0477748,16.5814052 50.0477748,16.5814052 C50.0477748,16.5814052 49.1576748,12.394502 51.1921889,8.96885402 C53.226703,5.543206 52.3366031,15.6932742 52.3366031,15.6932742 C52.3366031,15.6932742 56.0241599,20.6414325 56.9142598,22.9251978 C57.3720254,24.1000682 58.0993642,24.7014598 58.6944596,25.0135744 C59.6776294,25.5242349 60.61896,26.1113712 61.5097184,26.7695362 C62.111729,27.2234825 62.744348,27.6355345 63.4030881,28.0027694 C64.8247048,28.7640246 66.5273388,29.6229741 67.9464124,29.8488131 C68.1679403,29.8853376 68.3920034,29.9044278 68.6165304,29.9059072 C68.8324353,29.9127755 69.0392431,29.8189799 69.1760218,29.6521555 C69.5574932,29.2042838 69.5485922,28.2400273 69.4608538,27.4470532 C69.4139848,27.0362549 69.3443658,26.6283597 69.2523161,26.2252387 C69.2523161,26.2252387 73.3849228,23.6242838 73.2577657,26.7961801 C73.2380471,27.1466767 73.2706156,27.4981519 73.3544051,27.8390996 C73.4921427,28.4762283 73.9629103,28.9900672 74.5865577,29.1839836 C75.0827699,29.3292042 75.6078279,29.3462308 76.1124432,29.2334652 C76.2697536,29.2066495 76.4217315,29.1548172 76.5625795,29.0799454 C76.9440509,28.8261937 80.7587648,27.6843111 81.9031789,27.5574352 C83.0475931,27.4305593 88.7696639,24.6392906 88.7696639,24.6392906 L95.0003633,16.0117326 C95.0003633,16.0117326 94.8732062,10.9366985 97.4163488,8.90668486 C99.9594914,6.87667121 96.4003633,17.6598499 96.4003633,17.6598499 Z" id="Path" fill="#FABDBD"></path>
                            <g id="Group" opacity="0.1" transform="translate(49.845595, 9.135061)" fill="#000000">
                                <path d="M28.7184378,33.5929195 C28.6073647,34.612481 28.558531,35.6378386 28.5722071,36.6633151 C28.5849228,35.9934106 28.6294278,35.2283492 28.7184378,34.3541746 C28.7286104,34.2475989 28.7400545,34.1372169 28.7527702,34.0268349 C28.9752142,32.0729036 29.0813647,30.1075321 29.070663,28.1410641 C29.0510523,29.8534802 28.9449534,31.5638218 28.7527702,33.2655798 C28.7451408,33.3759618 28.7286104,33.4863438 28.7184378,33.5929195 Z" id="Path"></path>
                                <path d="M19.5389646,17.0089768 C19.4537693,17.0584584 19.4118074,17.0889086 19.4118074,17.0889086 C19.5353956,17.6316552 19.6170163,18.1830728 19.6559491,18.7382947 C19.6816082,18.1593073 19.6423701,17.5792718 19.5389646,17.0089768 L19.5389646,17.0089768 Z" id="Path"></path>
                                <path d="M2.55077203,5.86927694 C2.61307902,4.98114598 2.70590372,3.38885402 2.68810173,1.97291951 C2.66648501,3.86590723 2.49736603,5.79695771 2.49736603,5.79695771 L2.55077203,5.86927694 Z" id="Path"></path>
                                <path d="M17.3811081,39.5243656 C17.3811081,39.5738472 17.3811081,39.6233288 17.3722071,39.6728104 C16.9907357,45.7628513 29.3249773,41.0684447 29.3249773,41.0684447 C29.1807493,40.8740521 29.0718593,40.655895 29.0032698,40.4239154 C27.1455041,41.0836698 17.8096276,44.151528 17.3811081,39.5243656 Z" id="Path"></path>
                                <path d="M46.5547684,7.76353342 C46.5547684,7.76353342 43.5029973,13.8535744 42.4857402,16.1373397 C41.4684832,18.421105 32.1860127,21.8467531 30.9144414,21.9736289 C30.5733548,22.0202837 30.2556765,22.1730002 30.0065395,22.4100819 C29.2881017,23.0444611 28.8799273,24.1305184 28.8799273,24.1305184 C28.8799273,24.1305184 28.910445,24.3373261 28.9473206,24.7306412 C29.0897366,24.4045703 29.4559491,23.6560027 30.0065395,23.171337 C30.2556765,22.9342553 30.5733548,22.7815388 30.9144414,22.734884 C32.1860127,22.6080082 41.4684832,19.1823602 42.4857402,16.8985948 C43.5029973,14.6148295 46.5547684,8.52478854 46.5547684,8.52478854 C46.5547684,8.52478854 48.7049955,2.00971351 48.4684832,0.0609004093 C48.2726612,2.55781719 46.5547684,7.76353342 46.5547684,7.76353342 Z" id="Path"></path>
                                <path d="M17.3556767,34.4226876 C17.2262469,33.2238533 16.981833,32.0401757 16.6257947,30.8879263 C16.3244323,29.8361255 15.9645777,28.682824 15.5920073,27.112101 C15.4126675,26.3283987 15.1763783,25.5587651 14.8850136,24.8093042 C14.8761126,24.7864666 14.8672116,24.7636289 14.8595822,24.74206 C14.2237965,23.1675307 13.5880109,22.6587585 13.2243415,22.4938199 C12.8809588,22.3447844 12.5537372,22.1611294 12.2477748,21.9457162 C11.0728429,21.0994543 8.55131698,19.2026603 6.30572207,16.9620327 C3.25395095,13.9170123 0.202179837,6.68508868 0.202179837,6.68508868 C0.0893896233,6.07456842 0.0264521114,5.45592039 0.0139872843,4.83523874 C-0.0170832736,5.70981845 0.0460088754,6.58519968 0.202179837,7.44634379 C0.202179837,7.44634379 3.25395095,14.6782674 6.30572207,17.7232879 C8.55131698,19.9639154 11.0728429,21.8607094 12.2477748,22.7069714 C12.5561517,22.9228378 12.8859503,23.1065043 13.2319709,23.255075 C13.5943688,23.4200136 14.2288828,23.9287858 14.8672116,25.5033151 C14.8748411,25.524884 14.8837421,25.5477217 14.8926431,25.5705593 C15.1827122,26.3201215 15.4177259,27.0897531 15.595822,27.8733561 C15.9683924,29.4440791 16.328247,30.5973806 16.6296094,31.6491814 C16.9856477,32.8014309 17.2300616,33.9851084 17.3594914,35.1839427 C17.4128974,35.7142838 17.4446866,36.2915689 17.4535876,36.9411733 C17.4689967,36.1005031 17.4363065,35.2596406 17.3556767,34.4226876 Z" id="Path"></path>
                            </g>
                            <path d="M79.7949137,38.0462619 C79.6007923,38.3664954 79.4307817,38.7006756 79.2862852,39.0460437 C79.0942779,39.5789222 79.0930064,40.1587449 79.0574024,40.7233424 C79.0066828,41.5156799 78.8858367,42.3019896 78.6962761,43.0730832 C78.6656242,43.2151037 78.6230894,43.3543091 78.569119,43.489236 C78.5311298,43.5800808 78.4810918,43.6654267 78.4203451,43.7429877 C78.3525501,43.8257205 78.2728478,43.8979779 78.1838329,43.9574079 C78.0473806,44.0482067 77.9031282,44.1267544 77.7527702,44.1921282 C75.982743,45.0168213 74.0524977,45.7450887 72.1209809,45.4608868 C71.3044368,45.3184431 70.5142772,45.053215 69.777475,44.6742565 C69.0781108,44.335498 68.2871935,43.9333015 67.5623978,44.2149659 L67.5623978,44.2149659 C67.4511615,44.2712994 67.3312406,44.3086114 67.2076294,44.3253479 C67.1837351,44.3257587 67.1598648,44.3236322 67.1364214,44.3190041 C66.897366,44.2733288 66.897366,43.4689359 66.8426885,43.231678 C66.6341508,42.3207094 66.6023615,41.582292 66.4777475,40.7905866 C66.4115177,40.3527652 66.309017,39.9211774 66.1712988,39.5002592 C65.6626703,37.9650614 65.5088102,36.3283629 65.5088102,34.7195771 C65.5088102,34.6396453 64.9366031,34.7195771 64.7458674,34.7119645 C64.6975477,34.7119645 64.6708447,34.704352 64.6822888,34.6878581 C64.6933245,34.6720825 64.7061225,34.6576102 64.720436,34.6447203 C64.787025,34.5907816 64.8647548,34.5522193 64.9480472,34.5318008 L65.0980926,34.4873943 C65.8839237,34.2653615 66.7511353,34.1727422 67.3386013,33.6208322 C67.9489555,33.0511596 68.1015441,32.1414598 68.0748411,31.3091542 C68.0672116,31.0414461 67.9362398,30.3918417 67.9578565,29.8526194 C68.1793845,29.8891438 68.4034475,29.908234 68.6279746,29.9097135 C68.8438795,29.9165818 69.0506873,29.8227862 69.1874659,29.6559618 C69.3996115,30.0657663 69.583154,30.4896933 69.7367847,30.9247203 C69.9529519,31.4550614 70.1182561,32.0133151 70.4348774,32.4929059 C70.9435059,33.2744611 71.8819255,33.7883083 72.8152589,33.7096453 C73.7485922,33.6309823 74.6170754,32.9154025 74.7836512,31.9968213 C74.9298819,31.1911596 74.5903724,30.0315143 74.5980018,29.1941337 C75.094214,29.3393542 75.6192721,29.3563809 76.1238874,29.2436153 C76.1453297,29.2953211 76.1635895,29.3482845 76.1785649,29.4022101 C76.4646685,30.3816917 76.8461399,31.5058117 77.8061762,31.8534516 C78.426703,32.0767531 79.1603996,31.9092769 79.7338783,32.2340791 C79.7779478,32.2593589 79.820414,32.2873246 79.8610354,32.3178172 C79.9934286,32.4160363 80.1074865,32.5367132 80.1980018,32.6743383 C80.4335912,33.0623971 80.5734849,33.5007177 80.6061762,33.9532469 C80.7530068,35.3678786 80.4703617,36.793891 79.7949137,38.0462619 L79.7949137,38.0462619 Z" id="Path" fill="url(#linearGradient-5)"></path>
                            <path d="M73.3544051,27.8378308 C72.0679462,28.3325879 70.6223062,28.1870246 69.4608538,27.4457844 C69.4139848,27.0349862 69.3443658,26.6270909 69.2523161,26.22397 C69.2523161,26.22397 73.3849228,23.623015 73.2577657,26.7949113 C73.2380471,27.1454079 73.2706156,27.4968831 73.3544051,27.8378308 L73.3544051,27.8378308 Z" id="Path" fill="#000000" opacity="0.1"></path>
                            <ellipse id="Oval" fill="#FABDBD" cx="71.7941871" cy="23.5595771" rx="4.32334242" ry="4.31377899"></ellipse>
                            <path d="M64.2296094,34.2805866 C64.2296094,34.2805866 72.62198,28.9518008 98.6891916,34.6612142 C124.756403,40.3706276 139.888102,35.8030969 139.888102,35.8030969 L139.888102,41.7662619 C139.888102,41.7662619 110.641962,44.9381583 99.4521344,41.7662619 C88.262307,38.5943656 72.3333333,36.7648158 66.75495,41.6761801 L64.2296094,34.2805866 Z" id="Path" fill="#F86D70"></path>
                            <path d="M64.2296094,34.2805866 C64.2296094,34.2805866 72.62198,28.9518008 98.6891916,34.6612142 C124.756403,40.3706276 139.888102,35.8030969 139.888102,35.8030969 L139.888102,41.7662619 C139.888102,41.7662619 110.641962,44.9381583 99.4521344,41.7662619 C88.262307,38.5943656 72.3333333,36.7648158 66.75495,41.6761801 L64.2296094,34.2805866 Z" id="Path" fill="#000000" opacity="0.1"></path>
                            <path d="M64.4839237,34.5343383 C64.4839237,34.5343383 72.62198,29.2055525 98.6891916,34.9149659 C124.756403,40.6243793 139.633787,36.0568486 139.633787,36.0568486 L139.760945,41.5125102 C139.760945,41.5125102 110.769119,44.6844065 99.5792916,41.5125102 C88.3894641,38.3406139 72.5876476,36.1304366 67.0092643,41.0418008 L64.4839237,34.5343383 Z" id="Path" fill="#F86D70"></path>
                            <path d="M61.4245232,42.7305184 C61.4245232,42.7305184 53.0321526,48.0593042 26.964941,42.3498909 C0.897729337,36.6404775 2.16930064,41.2080082 2.16930064,41.2080082 L2.16930064,35.2448431 C2.16930064,35.2448431 15.0121708,32.0729468 26.2019982,35.2448431 C37.3918256,38.4167394 53.3207993,40.2462892 58.8991826,35.334925 L61.4245232,42.7305184 Z" id="Path" fill="#F86D70"></path>
                            <path d="M61.4245232,42.7305184 C61.4245232,42.7305184 53.0321526,48.0593042 26.964941,42.3498909 C0.897729337,36.6404775 2.16930064,41.2080082 2.16930064,41.2080082 L2.16930064,35.2448431 C2.16930064,35.2448431 15.0121708,32.0729468 26.2019982,35.2448431 C37.3918256,38.4167394 53.3207993,40.2462892 58.8991826,35.334925 L61.4245232,42.7305184 Z" id="Path" fill="#000000" opacity="0.1"></path>
                            <path d="M61.1702089,42.4767667 C61.1702089,42.4767667 53.0321526,47.8055525 26.964941,42.0961392 C0.897729337,36.3867258 2.4236149,40.9542565 2.4236149,40.9542565 L2.29645777,35.4985948 C2.29645777,35.4985948 14.8850136,32.3266985 26.0748411,35.4985948 C37.2646685,38.6704911 53.066485,40.8806685 58.6448683,35.9693042 L61.1702089,42.4767667 Z" id="Path" fill="#F86D70"></path>
                            <path d="M68.0761126,24.2738881 C67.9489555,23.4821828 67.7531335,22.4849386 68.4168937,22.0319918 C68.6536295,21.8887646 68.9273535,21.8181686 69.2039964,21.8289905 C70.5785649,21.8150341 71.8920981,22.7704093 73.2399637,22.4912824 C74.1161696,22.3080742 74.8032147,21.6291272 74.9952687,20.7566665 C75.1873228,19.8842059 74.8486724,18.9804711 74.1300636,18.447749 C73.5998183,18.0544338 72.9297003,17.9123329 72.2811989,17.7791132 C70.5760218,17.4289359 68.795822,17.0800273 67.1122616,17.5253615 C65.4287012,17.9706958 63.8900999,19.4767121 64.0248865,21.2047613 C64.088465,22.0319918 64.5106267,22.7830969 64.9518619,23.4885266 C65.2875568,24.0239427 66.5947321,26.5335471 67.2292461,26.5716098 C68.1244323,26.6236289 68.163851,24.7915416 68.0761126,24.2738881 Z" id="Path" fill="#3F3D56"></path>
                            <path d="M78.7891008,48.0466166 C78.7891008,48.0466166 70.0152589,50.2035061 67.0906449,48.0466166 C67.0906449,48.0466166 65.8190736,52.9947749 66.200545,55.532292 C66.200545,55.532292 72.4312443,55.9129195 73.06703,56.2935471 C73.06703,56.2935471 73.1941871,55.2785402 73.8299728,55.7860437 C73.8299728,55.7860437 75.991644,53.2485266 79.933515,55.532292 C79.933515,55.532292 80.6964578,49.5691269 78.7891008,48.0466166 Z" id="Path" fill="url(#linearGradient-6)"></path>
                            <path d="M74.1326067,18.447749 C74.0421328,18.3823405 73.9474041,18.3230011 73.8490463,18.2701228 C74.3830323,18.8758375 74.5537934,19.7192425 74.2973399,20.4842873 C74.0408865,21.2493321 73.3959384,21.8205086 72.604178,21.983779 C71.2563124,22.2629059 69.9427793,21.3075307 68.5682107,21.321487 C68.2915678,21.3106652 68.0178439,21.3812612 67.7811081,21.5244884 C67.1173479,21.9774352 67.3118983,22.9746794 67.4390554,23.7663847 C67.5229791,24.2840382 67.4886467,26.1161255 66.5960036,26.0666439 L66.5807448,26.0666439 C66.826158,26.3648022 67.0550409,26.5665348 67.2317893,26.5741473 C68.1218892,26.6236289 68.1587648,24.7978854 68.0748411,24.2738881 C67.9476839,23.4821828 67.7531335,22.4849386 68.4168937,22.0319918 C68.6536295,21.8887646 68.9273535,21.8181686 69.2039964,21.8289905 C70.5785649,21.8150341 71.8920981,22.7704093 73.2399637,22.4912824 C74.1161696,22.3080742 74.8032147,21.6291272 74.9952687,20.7566665 C75.1873228,19.8842059 74.8486724,18.9804711 74.1300636,18.447749 L74.1326067,18.447749 Z" id="Path" fill="#000000" opacity="0.1"></path>
                            <g id="Group" opacity="0.1" transform="translate(0.000000, 11.291951)" fill="#214694">
                                <path d="M10.9812897,1.12919509 C10.9812897,1.12919509 1.47375114,-2.85978172 0.227611262,4.33407913 C0.227611262,4.33407913 -0.422161671,5.45439291 0.481925522,6.38058663 C0.481925522,6.38058663 0.676475931,5.88450205 1.59582198,6.39834925 C1.92401036,6.57840273 2.27226541,6.71935546 2.63342416,6.81830832 C3.12146603,6.95263482 3.64004438,6.92502662 4.11099001,6.73964529 L4.11099001,6.73964529 C4.11099001,6.73964529 7.23778383,6.57090041 9.86739328,2.48930423 C9.86739328,2.48930423 10.9940054,1.79402456 11.0512262,1.53392906 L9.16675749,1.66080491 C9.16675749,1.66080491 9.31044505,3.03740791 8.53097184,3.86336971 C8.53097184,3.86336971 9.2239782,1.72804911 8.89082652,1.6671487 C8.82343324,1.65446112 7.89518619,1.7775307 7.89518619,1.7775307 C7.89518619,1.7775307 8.13551317,4.17040928 6.87792916,5.4087176 C6.87792916,5.4087176 8.04523161,2.97396999 7.53660309,1.82066849 L6.14677566,2.08837653 C6.14677566,2.08837653 6.52824705,4.60559345 5.1524069,6.07100955 C5.1524069,6.07100955 6.28283379,3.48274216 5.84668483,2.16703956 L4.51407811,2.61364256 C4.51407811,2.61364256 4.83578565,5.07757162 3.68501362,6.29304229 C3.68501362,6.29304229 4.68955495,3.17062756 4.21653043,2.74051842 C4.21653043,2.74051842 3.01871026,3.22518417 2.76185286,3.50177353 C2.76185286,3.50177353 2.95258856,5.27803547 2.22016349,5.91241473 C2.22016349,5.91241473 2.67029973,3.75552524 2.44777475,3.66671214 C2.44777475,3.66671214 1.05540418,4.71216917 0.631970936,5.61425648 C0.631970936,5.61425648 1.1609446,4.23638472 2.27229791,3.45736698 C2.27229791,3.45736698 1.33896458,3.30004093 0.619255223,3.6895498 C0.619255223,3.6895498 1.10118074,2.7747749 2.60926431,3.20869031 C2.60926431,3.20869031 3.72697548,2.43728513 3.95077203,2.4474352 C3.95077203,2.4474352 2.52406903,1.81305593 1.4928247,1.8904502 C1.4928247,1.8904502 2.59782016,1.25607094 4.30045413,2.31675307 L5.62797457,1.83716235 C5.62797457,1.83716235 3.78546776,0.894474761 2.86103542,0.898281037 C2.86103542,0.898281037 4.0893733,0.425034106 5.97384196,1.74454297 L7.33315168,1.46668486 C7.33315168,1.46668486 5.80726612,0.53414734 4.77856494,0.317189632 C4.77856494,0.317189632 6.01326067,0.123069577 7.72606721,1.40324693 L8.6568574,1.3245839 C8.6568574,1.3245839 7.53024523,0.663560709 7.18946412,0.502428377 C6.84868302,0.341296044 6.86394187,0.235989086 6.86394187,0.235989086 C7.67503681,0.376501674 8.43097365,0.739357015 9.04722979,1.28398363 C9.04722979,1.28398363 10.9723887,1.24718963 10.9812897,1.12919509 Z" id="Path"></path>
                            </g>
                            <g id="Group" opacity="0.1" transform="translate(1.271571, 0.000000)" fill="#214694">
                                <path d="M9.35876476,5.27042292 C9.35876476,5.27042292 5.98401453,-2.50326057 1.14059946,1.06195089 C1.14059946,1.06195089 0.114441417,1.35884038 0.123342416,2.41952251 C0.123342416,2.41952251 0.522615804,2.23555252 0.774386921,3.06278308 C0.868521236,3.35654933 0.996536249,3.63841091 1.15585831,3.90270123 C1.36658012,4.25818457 1.68747986,4.5356231 2.07011807,4.69313779 L2.07011807,4.69313779 C2.07011807,4.69313779 4.02325159,6.37043656 7.91934605,5.44043656 C7.91934605,5.44043656 8.98619437,5.6688131 9.16930064,5.54574352 L7.97783833,4.54849932 C7.97783833,4.54849932 7.27847411,5.44804911 6.3400545,5.49245566 C6.3400545,5.49245566 7.97148047,4.61701228 7.80744777,4.39117326 C7.77438692,4.34549795 7.15386013,3.8912824 7.15386013,3.8912824 C7.15386013,3.8912824 5.92933697,5.44931787 4.4835604,5.47342428 C4.4835604,5.47342428 6.56766576,4.68933151 6.92370572,3.71619372 L5.94586739,3.08181446 C5.94586739,3.08181446 4.73278837,4.79336971 3.08101726,4.88218281 C3.08101726,4.88218281 5.22997275,3.99405184 5.72207084,2.95874488 L4.67556767,2.46646658 C4.67556767,2.46646658 3.4599455,4.11585266 2.08537693,4.17802183 C2.08537693,4.17802183 4.46448683,2.8940382 4.42761126,2.37004093 C4.42761126,2.37004093 3.43960036,1.97672578 3.12679382,1.99956344 C3.12679382,1.99956344 2.22779292,3.16047749 1.42543143,3.12748977 C1.42543143,3.12748977 2.92461399,2.10106412 2.84196185,1.92216917 C2.84196185,1.92216917 1.417802,1.75215553 0.651044505,2.04904502 C0.651044505,2.04904502 1.75222525,1.53139154 2.85722071,1.70140518 C2.85722071,1.70140518 2.39309718,1.07590723 1.74586739,0.902087312 C1.74586739,0.902087312 2.55458674,0.631841746 3.2030881,1.74708049 C3.2030881,1.74708049 4.30681199,1.92343793 4.43524069,2.05538881 C4.43524069,2.05538881 3.9520436,0.864024557 3.29082652,0.3273397 C3.29082652,0.3273397 4.30808356,0.581091405 4.71498638,2.17592087 L5.77674841,2.64663029 C5.77674841,2.64663029 5.22107175,1.03911323 4.66285195,0.517653479 C4.66285195,0.517653479 5.66357856,0.933806276 6.0297911,2.78873124 L6.99491371,3.39646658 C6.99491371,3.39646658 6.61980018,1.97545703 6.13405995,1.26748977 C6.13405995,1.26748977 6.97838329,1.85238745 7.2657584,3.58678035 L7.86339691,4.06890859 C7.86339691,4.06890859 7.57093551,3.03613915 7.46030881,2.74686221 C7.34968211,2.45758527 7.41961853,2.40429741 7.41961853,2.40429741 C7.82056428,2.9492054 8.06221525,3.59437851 8.11771117,4.26810368 C8.11771117,4.26810368 9.29009991,5.33639836 9.35876476,5.27042292 Z" id="Path"></path>
                            </g>
                        </g>
                    </g>
                </g>
            </g>
        </g>
    </g>
</svg>